<svg width="65" height="64" viewBox="0 0 65 64" fill="none" xmlns="http://www.w3.org/2000/svg">
<path fill-rule="evenodd" clip-rule="evenodd" d="M32.7866 61.5849C49.1259 61.5849 62.3715 48.3393 62.3715 32C62.3715 15.6607 49.1259 2.41509 32.7866 2.41509C16.4473 2.41509 3.20172 15.6607 3.20172 32C3.20172 48.3393 16.4473 61.5849 32.7866 61.5849ZM32.7866 64C50.4597 64 64.7866 49.6731 64.7866 32C64.7866 14.3269 50.4597 0 32.7866 0C15.1135 0 0.786621 14.3269 0.786621 32C0.786621 49.6731 15.1135 64 32.7866 64Z" fill="#0366DD"/>
<path fill-rule="evenodd" clip-rule="evenodd" d="M38.2178 48.95C38.5267 49.6154 38.2378 50.4052 37.5725 50.7142C34.4975 52.142 31.4511 52.4042 28.955 51.2584C26.4232 50.0963 24.7725 47.632 24.2303 44.2881L26.8526 43.8629C27.2907 46.5644 28.5282 48.1394 30.0632 48.844C31.634 49.565 33.8332 49.5214 36.4536 48.3047C37.119 47.9957 37.9088 48.2846 38.2178 48.95Z" fill="#0366DD"/>
<path fill-rule="evenodd" clip-rule="evenodd" d="M34.598 35.6226V30.1887H37.0131V38.0377H30.3716V35.6226H34.598Z" fill="#0366DD"/>
<path d="M49.6922 24.1509C49.6922 25.4848 48.611 26.566 47.2772 26.566C45.9433 26.566 44.8621 25.4848 44.8621 24.1509C44.8621 22.8171 45.9433 21.7358 47.2772 21.7358C48.611 21.7358 49.6922 22.8171 49.6922 24.1509Z" fill="#0366DD"/>
<path d="M20.7112 24.1509C20.7112 25.4848 19.6299 26.566 18.2961 26.566C16.9623 26.566 15.881 25.4848 15.881 24.1509C15.881 22.8171 16.9623 21.7358 18.2961 21.7358C19.6299 21.7358 20.7112 22.8171 20.7112 24.1509Z" fill="#0366DD"/>
</svg>
