<svg width="64" height="64" viewBox="0 0 64 64" fill="none" xmlns="http://www.w3.org/2000/svg">
<path d="M47.4933 11.92C47.28 11.92 47.0667 11.8666 46.88 11.76C41.76 9.11998 37.3333 7.99998 32.0267 7.99998C26.7467 7.99998 21.7333 9.25331 17.1733 11.76C16.5333 12.1066 15.7333 11.8666 15.36 11.2266C15.0133 10.5866 15.2533 9.75998 15.8933 9.41331C20.8533 6.71998 26.2933 5.33331 32.0267 5.33331C37.7067 5.33331 42.6667 6.58665 48.1067 9.38665C48.7733 9.73331 49.0133 10.5333 48.6667 11.1733C48.4267 11.6533 47.9733 11.92 47.4933 11.92ZM9.33333 25.92C9.06667 25.92 8.8 25.84 8.56 25.68C7.94667 25.2533 7.81333 24.4266 8.24 23.8133C10.88 20.08 14.24 17.1466 18.24 15.0933C26.6133 10.7733 37.3333 10.7466 45.7333 15.0666C49.7333 17.12 53.0933 20.0266 55.7333 23.7333C56.16 24.32 56.0267 25.1733 55.4133 25.6C54.8 26.0266 53.9733 25.8933 53.5467 25.28C51.1467 21.92 48.1067 19.28 44.5067 17.44C36.8533 13.52 27.0667 13.52 19.44 17.4666C15.8133 19.3333 12.7733 22 10.3733 25.36C10.16 25.7333 9.76 25.92 9.33333 25.92ZM26 58.1067C25.6533 58.1067 25.3067 57.9733 25.0667 57.7066C22.7467 55.3866 21.4933 53.8933 19.7067 50.6666C17.8667 47.3866 16.9067 43.3866 16.9067 39.0933C16.9067 31.1733 23.68 24.72 32 24.72C40.32 24.72 47.0933 31.1733 47.0933 39.0933C47.0933 39.84 46.5067 40.4266 45.76 40.4266C45.0133 40.4266 44.4267 39.84 44.4267 39.0933C44.4267 32.64 38.8533 27.3866 32 27.3866C25.1467 27.3866 19.5733 32.64 19.5733 39.0933C19.5733 42.9333 20.4267 46.48 22.0533 49.36C23.76 52.4266 24.9333 53.7333 26.9867 55.8133C27.4933 56.3466 27.4933 57.1733 26.9867 57.7066C26.6933 57.9733 26.3467 58.1067 26 58.1067ZM45.12 53.1733C41.9467 53.1733 39.1467 52.3733 36.8533 50.8C32.88 48.1066 30.5067 43.7333 30.5067 39.0933C30.5067 38.3466 31.0933 37.76 31.84 37.76C32.5867 37.76 33.1733 38.3466 33.1733 39.0933C33.1733 42.8533 35.0933 46.4 38.3467 48.5866C40.24 49.8666 42.4533 50.48 45.12 50.48C45.76 50.48 46.8267 50.4 47.8933 50.2133C48.6133 50.08 49.3067 50.56 49.44 51.3066C49.5733 52.0266 49.0933 52.72 48.3467 52.8533C46.8267 53.1466 45.4933 53.1733 45.12 53.1733ZM39.76 58.6666C39.6533 58.6666 39.52 58.64 39.4133 58.6133C35.1733 57.44 32.4 55.8666 29.4933 53.0133C25.76 49.3066 23.7067 44.3733 23.7067 39.0933C23.7067 34.7733 27.3867 31.2533 31.92 31.2533C36.4533 31.2533 40.1333 34.7733 40.1333 39.0933C40.1333 41.9466 42.6133 44.2666 45.68 44.2666C48.7467 44.2666 51.2267 41.9466 51.2267 39.0933C51.2267 29.04 42.56 20.88 31.8933 20.88C24.32 20.88 17.3867 25.0933 14.2667 31.6266C13.2267 33.7866 12.6933 36.32 12.6933 39.0933C12.6933 41.1733 12.88 44.4533 14.48 48.72C14.7467 49.4133 14.4 50.1866 13.7067 50.4266C13.0133 50.6933 12.24 50.32 12 49.6533C10.6933 46.16 10.0533 42.6933 10.0533 39.0933C10.0533 35.8933 10.6667 32.9866 11.8667 30.4533C15.4133 23.0133 23.28 18.1866 31.8933 18.1866C44.0267 18.1866 53.8933 27.5466 53.8933 39.0666C53.8933 43.3866 50.2133 46.9066 45.68 46.9066C41.1467 46.9066 37.4667 43.3866 37.4667 39.0666C37.4667 36.2133 34.9867 33.8933 31.92 33.8933C28.8533 33.8933 26.3733 36.2133 26.3733 39.0666C26.3733 43.6266 28.1333 47.8933 31.36 51.0933C33.8933 53.6 36.32 54.9866 40.08 56.0266C40.8 56.2133 41.2 56.96 41.0133 57.6533C40.88 58.2667 40.32 58.6666 39.76 58.6666Z" fill="#1A73E8"/>
</svg>
