<svg width="64" height="64" viewBox="0 0 64 64" fill="none" xmlns="http://www.w3.org/2000/svg">
<path d="M37.9568 4.82547C34.0165 3.84695 29.8701 3.70713 25.8356 4.57424C25.5238 4.64125 25.3256 4.94722 25.3929 5.25763C25.4602 5.56805 25.7675 5.76536 26.0793 5.69835C29.9431 4.86794 33.9233 5.00486 37.7091 5.94952C46.7628 8.2086 54.2988 14.9854 57.169 23.8378C58.2791 27.2613 58.7506 30.9067 58.845 34.7271C58.8529 35.0446 59.1177 35.2956 59.4366 35.2878C59.7555 35.28 60.0077 35.0163 59.9998 34.6988C59.9041 30.8259 59.427 27.0868 58.2896 23.5503C55.3088 14.2826 47.4324 7.17857 37.9568 4.82547Z" fill="#0366DD"/>
<path d="M22.9045 6.56518C23.212 6.48073 23.3925 6.1641 23.3077 5.85796C23.2229 5.55183 22.9048 5.37213 22.5973 5.45658C18.378 6.6154 12.4427 10.6195 8.77455 15.9688C8.77312 15.9708 8.7717 15.9729 8.7703 15.975C5.54946 20.8073 3.53045 26.8799 4.09415 32.7725C4.09469 32.7781 4.09531 32.7837 4.09601 32.7893C4.23111 33.8653 4.4579 34.9392 4.68496 36.0144C5.1632 38.2791 5.64261 40.5493 5.26893 42.8556C5.21814 43.1691 5.43224 43.4642 5.74716 43.5148C6.06207 43.5654 6.35853 43.3522 6.40933 43.0387C6.79994 40.6279 6.31492 38.2764 5.82981 35.9244C5.60545 34.8367 5.38108 33.7489 5.24329 32.655C4.71311 27.087 6.62276 21.2783 9.73071 16.614C13.2593 11.4701 18.9731 7.64492 22.9045 6.56518Z" fill="#0366DD"/>
<path d="M30.4837 7.84987C37.7351 7.40903 44.985 10.3553 49.8539 15.9997C50.0617 16.2406 50.034 16.6037 49.792 16.8105C49.55 17.0174 49.1854 16.9899 48.9776 16.7489C44.3474 11.3813 37.4485 8.57751 30.5507 8.99795C30.5482 8.9981 30.5457 8.99824 30.5433 8.99836C21.8201 9.41857 13.6507 15.31 10.6459 23.5653C10.5372 23.8639 10.206 24.0182 9.90612 23.91C9.60622 23.8018 9.4512 23.4721 9.55987 23.1735C12.7254 14.4768 21.3037 8.29364 30.4837 7.84987Z" fill="#0366DD"/>
<path d="M51.6135 18.5117C51.4357 18.2481 51.0768 18.1779 50.812 18.355C50.5472 18.532 50.4767 18.8893 50.6545 19.1529C53.3537 23.1541 54.4697 27.5082 54.9109 32.6752C54.938 32.9917 55.2175 33.2264 55.5354 33.1995C55.8532 33.1726 56.089 32.8943 56.0619 32.5778C55.6111 27.2979 54.4602 22.7316 51.6135 18.5117Z" fill="#0366DD"/>
<path d="M55.6758 35.0191C55.9942 34.9993 56.2684 35.2402 56.2883 35.5571C56.506 39.0244 56.508 42.9473 56.1227 45.8463C56.0809 46.1611 55.7906 46.3825 55.4744 46.3409C55.1581 46.2992 54.9357 46.0102 54.9775 45.6954C55.3489 42.9013 55.3509 39.0616 55.1354 35.6288C55.1155 35.3119 55.3574 35.0389 55.6758 35.0191Z" fill="#0366DD"/>
<path d="M9.77372 26.3503C9.84858 26.0416 9.65791 25.731 9.34784 25.6564C9.03776 25.5819 8.72571 25.7717 8.65084 26.0804C8.22692 27.8284 8.00685 29.6241 7.99813 31.4214C7.98914 33.2739 8.3361 35.0822 8.6832 36.8912C8.96713 38.371 9.25116 39.8512 9.3405 41.3566C9.45786 43.334 9.04007 45.3142 8.31814 47.199C8.20448 47.4957 8.35396 47.828 8.652 47.9411C8.95005 48.0543 9.2838 47.9055 9.39746 47.6087C10.1606 45.6165 10.6231 43.4706 10.4936 41.2887C10.4049 39.7937 10.1209 38.322 9.83701 36.851C9.4906 35.0559 9.14436 33.2617 9.15326 31.427C9.16154 29.7191 9.37069 28.0122 9.77372 26.3503Z" fill="#0366DD"/>
<path d="M24.9289 13.5725C25.0478 13.8672 24.9042 14.202 24.6082 14.3204C18.6204 16.7143 14.1239 22.1166 13.2067 28.487C12.8234 31.1485 13.2375 33.7848 13.6514 36.4205C13.8845 37.9047 14.1176 39.3888 14.2082 40.877C14.4047 44.1039 14.0355 47.6484 11.926 50.8734C11.7519 51.1395 11.3941 51.2148 11.1268 51.0415C10.8595 50.8682 10.7839 50.512 10.958 50.2458C12.8799 47.3076 13.2437 44.0439 13.0551 40.9466C12.9632 39.4366 12.7316 37.9354 12.5001 36.4351C12.0848 33.7433 11.67 31.0545 12.0632 28.3238C13.0426 21.5219 17.8314 15.7905 24.1777 13.2532C24.4737 13.1349 24.8101 13.2778 24.9289 13.5725Z" fill="#0366DD"/>
<path d="M45.205 16.8462C40.4812 12.4415 33.6347 10.9042 27.4124 12.2629C27.1008 12.3309 26.9036 12.6375 26.972 12.9477C27.0403 13.2579 27.3483 13.4542 27.6599 13.3862C33.552 12.0996 39.9988 13.5673 44.4154 17.6856C48.138 21.1567 50.2997 26.2075 50.8656 31.7181C50.898 32.0341 51.1815 32.264 51.4989 32.2317C51.8162 32.1994 52.0471 31.9171 52.0147 31.6012C51.4271 25.8791 49.1742 20.5473 45.205 16.8462Z" fill="#0366DD"/>
<path d="M51.8939 34.3396C52.2112 34.3072 52.4948 34.537 52.5274 34.8529C53.0759 40.1699 52.8395 45.9128 52.0114 51.4684C51.9646 51.7826 51.6709 51.9994 51.3554 51.9528C51.0398 51.9062 50.822 51.6138 50.8688 51.2996C51.6854 45.8212 51.9153 40.1759 51.3783 34.9704C51.3457 34.6544 51.5765 34.3721 51.8939 34.3396Z" fill="#0366DD"/>
<path d="M31.7576 15.6859C22.907 15.6859 15.7159 22.7155 15.7159 31.4067C15.7159 32.335 15.7986 33.2447 15.9564 34.1292C16.0121 34.4419 16.3119 34.6503 16.626 34.5948C16.9401 34.5393 17.1495 34.2408 17.0937 33.9282C16.9477 33.1092 16.871 32.2668 16.871 31.4067C16.871 23.3683 23.5271 16.8359 31.7576 16.8359C35.477 16.8359 38.8752 18.1705 41.4835 20.3758C41.7266 20.5813 42.0911 20.5517 42.2976 20.3097C42.5041 20.0676 42.4744 19.7048 42.2312 19.4992C39.4205 17.1228 35.7591 15.6859 31.7576 15.6859Z" fill="#0366DD"/>
<path d="M43.5253 21.6431C43.7556 21.4233 44.1212 21.4309 44.3419 21.6601C46.8909 24.3063 47.7068 28.4654 48.2467 31.9557C48.8548 35.8873 48.9476 39.7228 48.9476 41.5011C48.9476 41.8187 48.689 42.0762 48.3701 42.0762C48.0511 42.0762 47.7925 41.8187 47.7925 41.5011C47.7925 39.7516 47.7005 35.981 47.105 32.1307C46.6038 28.8904 45.8813 24.9197 43.5082 22.4561C43.2874 22.2269 43.2951 21.8629 43.5253 21.6431Z" fill="#0366DD"/>
<path d="M48.801 44.7942C48.8263 44.4776 48.5891 44.2005 48.2711 44.1753C47.9532 44.1501 47.6748 44.3862 47.6495 44.7028C47.3658 48.2447 46.9952 51.7827 46.2432 55.051C46.1719 55.3605 46.3662 55.6689 46.6772 55.7398C46.9881 55.8108 47.2979 55.6173 47.3691 55.3078C48.141 51.9534 48.5166 48.3455 48.801 44.7942Z" fill="#0366DD"/>
<path d="M16.886 36.2455C17.199 36.1842 17.5027 36.387 17.5643 36.6986C18.7855 42.8725 17.9419 48.4811 14.7079 53.3939C14.5331 53.6595 14.1751 53.7337 13.9083 53.5596C13.6415 53.3856 13.5669 53.0292 13.7418 52.7635C16.7846 48.1411 17.6035 42.8487 16.4309 36.9208C16.3693 36.6092 16.5731 36.3069 16.886 36.2455Z" fill="#0366DD"/>
<path d="M31.7576 19.4272C26.0123 19.4272 20.3763 23.8546 19.801 29.4191C19.5492 31.8552 19.903 34.2548 20.2569 36.6553C20.5659 38.7515 20.8751 40.8483 20.7812 42.9709C20.5664 47.8286 19.1347 51.8385 16.6748 55.1412C16.4848 55.3963 16.5385 55.7564 16.7947 55.9456C17.0509 56.1347 17.4126 56.0813 17.6026 55.8262C20.2117 52.3233 21.7112 48.0877 21.9352 43.0215C22.0287 40.9085 21.7186 38.8183 21.4087 36.7294C21.0543 34.3408 20.7002 31.9539 20.9501 29.5368C21.4554 24.6485 26.5093 20.5772 31.7576 20.5772C34.2054 20.5772 40.5388 21.8967 42.5534 28.4304C43.8159 32.5248 44.1602 38.066 43.8544 43.4493C43.5487 48.8319 42.5975 53.98 41.3185 57.2812C41.2037 57.5775 41.3519 57.9103 41.6495 58.0246C41.9471 58.1389 42.2815 57.9914 42.3963 57.6951C43.7344 54.2413 44.6982 48.9628 45.0077 43.5142C45.3172 38.0663 44.977 32.3718 43.6576 28.0929C41.4213 20.8403 34.4111 19.4272 31.7576 19.4272Z" fill="#0366DD"/>
<path d="M22.8692 53.3948C23.1364 53.5683 23.2117 53.9245 23.0375 54.1905C22.6793 54.7372 22.3642 55.3092 22.0492 55.8812C21.7341 56.4532 21.419 57.0253 21.0607 57.5721C20.8865 57.8381 20.5286 57.9131 20.2614 57.7396C19.9943 57.5661 19.9189 57.2099 20.0932 56.9439C20.4514 56.3972 20.7664 55.8252 21.0815 55.2532C21.3966 54.6811 21.7117 54.109 22.0699 53.5623C22.2442 53.2963 22.6021 53.2213 22.8692 53.3948Z" fill="#0366DD"/>
<path d="M27.8148 25.396C28.0799 25.2194 28.1511 24.8623 27.9737 24.5983C27.7964 24.3344 27.4377 24.2635 27.1726 24.4401C24.8855 25.963 23.4823 28.0573 23.4823 31.1252C23.4823 32.952 23.8074 34.4452 24.1408 35.9768C24.6397 38.2686 24.9781 40.5555 24.9173 42.9095C24.8435 45.768 24.2817 48.3801 23.2017 50.8685C23.0752 51.16 23.2101 51.4984 23.5029 51.6244C23.7957 51.7503 24.1356 51.6161 24.2621 51.3246C25.404 48.6936 25.9946 45.9358 26.0721 42.9391C26.1352 40.4929 25.7875 38.1155 25.27 35.7336C24.9358 34.1954 24.6374 32.822 24.6374 31.1252C24.6374 28.4966 25.799 26.7383 27.8148 25.396Z" fill="#0366DD"/>
<path d="M30.069 23.3757C32.4657 22.8892 35.0449 23.4903 36.9432 25.02C40.3341 27.7523 40.785 32.7352 41.1505 36.7731L41.1691 36.9788C41.6413 42.1837 41.1008 47.2392 40.0119 52.3163C39.9453 52.6269 39.6384 52.8249 39.3264 52.7586C39.0145 52.6922 38.8156 52.3867 38.8822 52.0762C39.9548 47.0752 40.4775 42.1399 40.0186 37.0822C40.0034 36.9148 39.9883 36.7449 39.973 36.5731L39.9728 36.5706C39.6482 32.9217 39.2417 28.3516 36.2165 25.9139C34.5935 24.6061 32.3675 24.0828 30.2998 24.5025C29.9872 24.5659 29.6822 24.3651 29.6185 24.0539C29.5548 23.7428 29.7565 23.4391 30.069 23.3757Z" fill="#0366DD"/>
<path d="M39.1956 55.1775C39.2743 54.8697 39.0875 54.5567 38.7783 54.4784C38.4692 54.4 38.1548 54.586 38.0761 54.8937C37.7269 56.2592 37.1889 57.4916 36.5067 58.6263C36.3429 58.8988 36.432 59.2519 36.7057 59.415C36.9794 59.5781 37.3341 59.4894 37.4979 59.2169C38.2331 57.9941 38.8167 56.6589 39.1956 55.1775Z" fill="#0366DD"/>
<path d="M36.3712 46.8331C36.688 46.8704 36.9144 47.1564 36.8769 47.4717C36.3314 52.0608 35.0999 56.1537 33.1239 59.7036C32.9693 59.9814 32.6178 60.0818 32.3388 59.9278C32.0598 59.7739 31.9589 59.424 32.1135 59.1462C34.0046 55.7489 35.1987 51.8046 35.7298 47.3366C35.7672 47.0212 36.0544 46.7958 36.3712 46.8331Z" fill="#0366DD"/>
<path d="M36.2522 30.8236C35.8517 28.6936 34.0154 27.0642 31.7862 27.0642C28.7674 27.0642 26.6494 30.0935 27.3958 32.912C28.6587 37.8869 28.866 42.6817 28.0111 47.2998L28.0104 47.3032C27.2686 51.4495 25.8439 55.1795 23.9005 58.3403C23.734 58.6111 23.8195 58.9651 24.0916 59.1309C24.3637 59.2967 24.7192 59.2115 24.8857 58.9406C26.9086 55.6506 28.3817 51.7845 29.1474 47.5065C30.035 42.7103 29.8151 37.7474 28.5149 32.6272L28.5134 32.6212C27.9536 30.5129 29.514 28.2142 31.7862 28.2142C33.4259 28.2142 34.8103 29.4151 35.116 31.0313C35.9567 35.886 36.3946 40.3879 36.0828 44.264C36.0573 44.5806 36.2945 44.8577 36.6124 44.8831C36.9304 44.9084 37.2088 44.6724 37.2343 44.3558C37.5574 40.3382 37.1013 35.7254 36.2536 30.8317C36.2532 30.829 36.2527 30.8263 36.2522 30.8236Z" fill="#0366DD"/>
<path d="M30.0627 55.7275C30.3464 55.8727 30.4582 56.2193 30.3125 56.5017L28.782 59.4668C28.6362 59.7492 28.2881 59.8605 28.0043 59.7154C27.7206 59.5702 27.6088 59.2236 27.7546 58.9411L29.285 55.9761C29.4308 55.6937 29.779 55.5824 30.0627 55.7275Z" fill="#0366DD"/>
<path d="M32.2157 31.3781C32.1428 31.0689 31.8319 30.8772 31.5214 30.9498C31.2108 31.0224 31.0182 31.3319 31.0912 31.6411C33.0389 39.8953 32.7714 47.1433 30.399 53.3176C30.285 53.6142 30.4341 53.9466 30.7321 54.0601C31.03 54.1736 31.3639 54.0251 31.4779 53.7285C33.9516 47.2907 34.203 39.7999 32.2157 31.3781Z" fill="#0366DD"/>
</svg>
