<svg width="65" height="64" viewBox="0 0 65 64" fill="none" xmlns="http://www.w3.org/2000/svg">
<path fill-rule="evenodd" clip-rule="evenodd" d="M4.03662 17.5625V10.375C4.03662 6.44625 7.23293 3.25 11.1616 3.25H18.3491C19.2466 3.25 19.9741 2.52244 19.9741 1.625C19.9741 0.727562 19.2466 0 18.3491 0H11.1616C5.44087 0 0.786621 4.65419 0.786621 10.375V17.5625C0.786621 18.4599 1.51418 19.1875 2.41162 19.1875C3.30906 19.1875 4.03662 18.4599 4.03662 17.5625ZM18.3491 60.75C19.2466 60.75 19.9741 61.4776 19.9741 62.375C19.9741 63.2724 19.2466 64 18.3491 64H11.1616C5.44087 64 0.786621 59.3457 0.786621 53.625V46.4375C0.786621 45.5401 1.51418 44.8125 2.41162 44.8125C3.30906 44.8125 4.03662 45.5401 4.03662 46.4375V53.625C4.03662 57.5537 7.23293 60.75 11.1616 60.75H18.3491ZM64.7866 46.4375V53.625C64.7866 59.3457 60.1324 64 54.4116 64H47.2241C46.3267 64 45.5991 63.2724 45.5991 62.375C45.5991 61.4776 46.3267 60.75 47.2241 60.75H54.4116C58.3403 60.75 61.5366 57.5537 61.5366 53.625V46.4375C61.5366 45.5401 62.2642 44.8125 63.1616 44.8125C64.0591 44.8125 64.7866 45.5401 64.7866 46.4375ZM64.7866 10.375V17.5625C64.7866 18.4599 64.0591 19.1875 63.1616 19.1875C62.2642 19.1875 61.5366 18.4599 61.5366 17.5625V10.375C61.5366 6.44625 58.3403 3.25 54.4116 3.25H47.2241C46.3267 3.25 45.5991 2.52244 45.5991 1.625C45.5991 0.727562 46.3267 0 47.2241 0H54.4116C60.1324 0 64.7866 4.65419 64.7866 10.375ZM44.0008 47.3021C44.6854 46.6698 44.7277 45.6021 44.0954 44.9175C43.4629 44.2329 42.3954 44.1906 41.7107 44.8229C39.2747 47.0731 36.1053 48.3124 32.7865 48.3124C29.4677 48.3124 26.2983 47.0731 23.8622 44.8229C23.1775 44.1906 22.11 44.2329 21.4776 44.9175C20.8452 45.6021 20.8875 46.6698 21.5722 47.3021C24.6337 50.13 28.6163 51.6874 32.7865 51.6874C36.9567 51.6874 40.9392 50.13 44.0008 47.3021ZM36.1616 24.125V36.125C36.1616 38.5029 34.2271 40.4375 31.8491 40.4375H30.4741C29.5421 40.4375 28.7866 39.682 28.7866 38.75C28.7866 37.818 29.5421 37.0625 30.4741 37.0625H31.8491C32.3661 37.0625 32.7866 36.6419 32.7866 36.125V24.125C32.7866 23.193 33.5421 22.4375 34.4741 22.4375C35.4061 22.4375 36.1616 23.193 36.1616 24.125ZM47.7866 28.8438V24.0312C47.7866 23.1511 47.0731 22.4375 46.1929 22.4375C45.3127 22.4375 44.5991 23.1511 44.5991 24.0312V28.8438C44.5991 29.7239 45.3127 30.4375 46.1929 30.4375C47.0731 30.4375 47.7866 29.7239 47.7866 28.8438ZM18.1616 28.8438C18.1616 29.7239 18.8752 30.4375 19.7554 30.4375C20.6356 30.4375 21.3491 29.7239 21.3491 28.8438V24.0312C21.3491 23.1511 20.6356 22.4375 19.7554 22.4375C18.8752 22.4375 18.1616 23.1511 18.1616 24.0312V28.8438Z" fill="#0366DD"/>
</svg>
