<svg width="248" height="200" viewBox="0 0 248 200" fill="none" xmlns="http://www.w3.org/2000/svg">
<g clip-path="url(#clip0_154_10854)">
<path fill-rule="evenodd" clip-rule="evenodd" d="M93.0141 192.853C121.226 199.903 138.239 182.356 162.591 171.496C194.823 157.123 218.343 177.601 240.482 107.355C260.188 44.8356 198.107 89.4634 136.206 49.8351C74.3037 10.2053 7.75895 -16.1519 9.79791 62.5241C11.838 141.2 27.463 176.471 93.0141 192.853Z" fill="#F4F5F6"/>
<path d="M188.278 53.5918C188.278 43.6075 180.182 35.5019 170.188 35.5019H74.5288C64.5445 35.5019 56.4389 43.5978 56.4389 53.5918V77.5987H188.278V53.5918ZM92.5703 50.8609C89.5392 50.8609 87.0794 48.4011 87.0794 45.37C87.0794 42.3389 89.5392 39.8791 92.5703 39.8791C95.6014 39.8791 98.0611 42.3389 98.0611 45.37C98.0611 48.4011 95.6014 50.8609 92.5703 50.8609ZM152.166 50.8609C149.135 50.8609 146.675 48.4011 146.675 45.37C146.675 42.3389 149.135 39.8791 152.166 39.8791C155.197 39.8791 157.657 42.3389 157.657 45.37C157.657 48.4011 155.197 50.8609 152.166 50.8609Z" fill="#DE0299"/>
<path d="M56.4486 148.167C56.4486 158.151 64.5445 166.257 74.5385 166.257H170.198C180.182 166.257 188.288 158.161 188.288 148.167V77.5987H56.4486V148.167Z" fill="white"/>
<path d="M172.096 134.115H152.796V151.237H172.096V134.115Z" fill="#E6E6E6"/>
<path d="M118.659 88.687H99.3588V105.799H118.659V88.687Z" fill="#E6E6E6"/>
<path d="M145.378 88.687H126.077V105.799H145.378V88.687Z" fill="#E6E6E6"/>
<path d="M172.096 88.687H152.796V105.799H172.096V88.687Z" fill="#E6E6E6"/>
<path d="M91.9311 111.396H72.6307V128.508H91.9311V111.396Z" fill="#E6E6E6"/>
<path d="M118.659 111.396H99.3588V128.508H118.659V111.396Z" fill="#454B54"/>
<path d="M145.378 111.396H126.077V128.508H145.378V111.396Z" fill="#E6E6E6"/>
<path d="M172.096 111.396H152.796V128.508H172.096V111.396Z" fill="#E6E6E6"/>
<path d="M91.9311 134.115H72.6307V151.237H91.9311V134.115Z" fill="#E6E6E6"/>
<path d="M118.659 134.115H99.3588V151.237H118.659V134.115Z" fill="#E6E6E6"/>
<path d="M145.378 134.115H126.077V151.237H145.378V134.115Z" fill="#E6E6E6"/>
<path d="M92.5703 38.4749C88.7644 38.4749 85.6849 41.5641 85.6849 45.3603C85.6849 49.1565 88.7741 52.2457 92.5703 52.2457C96.3664 52.2457 99.4557 49.1565 99.4557 45.3603C99.4557 41.5641 96.3664 38.4749 92.5703 38.4749ZM92.5703 50.8609C89.5391 50.8609 87.0794 48.4011 87.0794 45.37C87.0794 42.3389 89.5391 39.8791 92.5703 39.8791C95.6014 39.8791 98.0611 42.3389 98.0611 45.37C98.0611 48.4011 95.6014 50.8609 92.5703 50.8609Z" fill="white"/>
<path d="M88.319 25.905V45.3216C88.319 47.6651 90.2171 49.5632 92.5606 49.5632C94.9042 49.5632 96.8022 47.6651 96.8022 45.3216V25.905C96.8022 23.5614 94.9042 21.6633 92.5606 21.6633C90.2171 21.6633 88.319 23.5614 88.319 25.905Z" fill="#242424"/>
<path d="M152.166 38.4749C148.36 38.4749 145.281 41.5641 145.281 45.3603C145.281 49.1565 148.37 52.2457 152.166 52.2457C155.962 52.2457 159.052 49.1565 159.052 45.3603C159.052 41.5641 155.962 38.4749 152.166 38.4749ZM152.166 50.8609C149.135 50.8609 146.675 48.4011 146.675 45.37C146.675 42.3389 149.135 39.8791 152.166 39.8791C155.197 39.8791 157.657 42.3389 157.657 45.37C157.657 48.4011 155.197 50.8609 152.166 50.8609Z" fill="white"/>
<path d="M152.166 21.6536H152.157C149.814 21.6536 147.915 23.5527 147.915 25.8953V45.3216C147.915 47.6641 149.814 49.5632 152.157 49.5632H152.166C154.509 49.5632 156.408 47.6641 156.408 45.3216V25.8953C156.408 23.5527 154.509 21.6536 152.166 21.6536Z" fill="#242424"/>
<path d="M88.5707 83.1089H55.4511C48.0436 83.1089 42.0387 89.1139 42.0387 96.5214V96.5311C42.0387 103.939 48.0436 109.944 55.4511 109.944H88.5707C95.9782 109.944 101.983 103.939 101.983 96.5311V96.5214C101.983 89.1139 95.9782 83.1089 88.5707 83.1089Z" fill="#DE0299"/>
<path d="M66.491 83.1477H33.4489C26.0467 83.1477 20.0461 89.1483 20.0461 96.5504V96.5795C20.0461 103.982 26.0467 109.982 33.4489 109.982H66.491C73.8932 109.982 79.8938 103.982 79.8938 96.5795V96.5504C79.8938 89.1483 73.8932 83.1477 66.491 83.1477Z" fill="#DE0299"/>
<path d="M83.719 108.413H38.2522C28.9555 108.413 21.276 103.145 20.0074 96.3083C19.8912 96.9572 19.8234 97.6157 19.8234 98.2936C19.8234 106.07 28.0742 112.384 38.2425 112.384H83.7094C93.8873 112.384 102.129 106.08 102.129 98.2936C102.129 97.6157 102.061 96.9572 101.945 96.3083C100.686 103.145 92.9964 108.413 83.6997 108.413H83.719Z" fill="#454B54"/>
<path d="M81.9819 92.243L84.1511 96.3831L86.3576 92.243H88.2045L85.0064 97.9698V101.044H83.3082V97.945L80.1226 92.243H81.9819Z" fill="white"/>
<path d="M75.9864 92.243H77.7218L80.957 101.044H79.1968L78.3787 98.8499H75.3046L74.4989 101.044H72.7387L75.9864 92.243ZM78.0688 97.6475L76.8541 94.0156L75.5897 97.6475H78.0688Z" fill="white"/>
<path d="M66.5125 101.044V92.243H70.2436C70.6485 92.243 71.0204 92.3256 71.3592 92.4909C71.698 92.6562 71.9914 92.8793 72.2393 93.1603C72.4955 93.4412 72.6938 93.7552 72.8343 94.1023C72.9748 94.4494 73.045 94.8047 73.045 95.1684C73.045 95.6642 72.9293 96.1352 72.6979 96.5815C72.4666 97.0277 72.1484 97.3913 71.7435 97.6723C71.3386 97.9532 70.8593 98.0937 70.3056 98.0937H68.2231V101.044H66.5125ZM68.2231 96.5939H70.2064C70.413 96.5939 70.5989 96.536 70.7642 96.4203C70.9295 96.3046 71.0617 96.1393 71.1609 95.9245C71.26 95.7014 71.3096 95.4493 71.3096 95.1684C71.3096 94.8626 71.2518 94.6023 71.1361 94.3874C71.0287 94.1726 70.884 94.0114 70.7022 93.904C70.5287 93.7966 70.3386 93.7429 70.132 93.7429H68.2231V96.5939Z" fill="white"/>
<path d="M60.899 101.106C60.2544 101.106 59.6677 100.982 59.1388 100.734C58.6182 100.486 58.1678 100.151 57.7877 99.7299C57.4158 99.3002 57.1266 98.8209 56.92 98.292C56.7134 97.7549 56.6101 97.2053 56.6101 96.6434C56.6101 96.0567 56.7175 95.4989 56.9324 94.97C57.1555 94.4328 57.4571 93.9577 57.8373 93.5445C58.2257 93.123 58.6802 92.7925 59.2008 92.5528C59.7297 92.3049 60.3081 92.181 60.9362 92.181C61.5725 92.181 62.151 92.3091 62.6716 92.5652C63.2005 92.8214 63.6508 93.1644 64.0227 93.5941C64.3946 94.0238 64.6838 94.5031 64.8904 95.032C65.097 95.5608 65.2003 96.1063 65.2003 96.6682C65.2003 97.2467 65.0929 97.8045 64.878 98.3416C64.6631 98.8705 64.3615 99.3457 63.9731 99.7671C63.593 100.18 63.1385 100.507 62.6096 100.746C62.089 100.986 61.5188 101.106 60.899 101.106ZM58.3455 96.6434C58.3455 97.0235 58.4033 97.3913 58.519 97.7466C58.6347 98.102 58.8 98.4201 59.0149 98.7011C59.238 98.9738 59.5066 99.1928 59.8206 99.358C60.1429 99.5151 60.5065 99.5936 60.9114 99.5936C61.3246 99.5936 61.6923 99.5109 62.0146 99.3457C62.3369 99.1721 62.6055 98.9449 62.8203 98.6639C63.0352 98.3747 63.1963 98.0565 63.3038 97.7094C63.4194 97.3541 63.4773 96.9987 63.4773 96.6434C63.4773 96.2633 63.4153 95.8997 63.2914 95.5526C63.1757 95.1972 63.0063 94.8832 62.7831 94.6105C62.5683 94.3295 62.2997 94.1106 61.9774 93.9535C61.6634 93.7883 61.3081 93.7056 60.9114 93.7056C60.4899 93.7056 60.1181 93.7924 59.7958 93.9659C59.4818 94.1312 59.2173 94.3543 59.0025 94.6353C58.7876 94.9163 58.6223 95.2303 58.5066 95.5774C58.3992 95.9245 58.3455 96.2798 58.3455 96.6434Z" fill="white"/>
<path d="M56.2564 93.7429H53.4426V101.044H51.7444V93.7429H48.9305V92.243H56.2564V93.7429Z" fill="white"/>
<path d="M44.1086 101.106C43.4062 101.106 42.8071 100.99 42.3113 100.759C41.8237 100.519 41.4271 100.193 41.1213 99.7795C40.8238 99.3663 40.6048 98.8994 40.4643 98.3788C40.3238 97.8499 40.2536 97.3004 40.2536 96.7302V92.243H41.9642V96.7302C41.9642 97.0938 41.9973 97.4492 42.0634 97.7962C42.1377 98.135 42.2576 98.4408 42.4228 98.7135C42.5881 98.9862 42.8071 99.2011 43.0798 99.3581C43.3525 99.5151 43.6913 99.5936 44.0963 99.5936C44.5094 99.5936 44.8524 99.5151 45.1251 99.3581C45.4061 99.1928 45.625 98.9738 45.7821 98.7011C45.9473 98.4284 46.0672 98.1226 46.1415 97.7838C46.2159 97.4368 46.2531 97.0855 46.2531 96.7302V92.243H47.9513V96.7302C47.9513 97.3335 47.8769 97.8995 47.7282 98.4284C47.5877 98.9573 47.3604 99.4242 47.0464 99.8291C46.7407 100.226 46.344 100.54 45.8564 100.771C45.3689 100.994 44.7863 101.106 44.1086 101.106Z" fill="white"/>
<path d="M34.7926 92.243H36.528L39.7633 101.044H38.0031L37.185 98.8499H34.1109L33.3052 101.044H31.545L34.7926 92.243ZM36.8751 97.6475L35.6603 94.0156L34.396 97.6475H36.8751Z" fill="white"/>
</g>
<defs>
<clipPath id="clip0_154_10854">
<rect width="248" height="200" fill="white"/>
</clipPath>
</defs>
</svg>
