<svg width="248" height="200" viewBox="0 0 248 200" fill="none" xmlns="http://www.w3.org/2000/svg">
<g clip-path="url(#clip0_154_10570)">
<mask id="mask0_154_10570" style="mask-type:luminance" maskUnits="userSpaceOnUse" x="0" y="0" width="248" height="200">
<path d="M248 0H0V200H248V0Z" fill="#D8DBDF"/>
</mask>
<g mask="url(#mask0_154_10570)">
<path d="M248 0H0V190.133H248V0Z" fill="none"/>
<path fill-rule="evenodd" clip-rule="evenodd" d="M112.979 196.557C140.624 197.172 152.732 176.707 173.047 161.042C199.936 140.308 226.041 154.774 231.87 82.8293C237.059 18.7966 188.817 74.9271 123.101 50.4888C57.3831 26.0492 -9.86204 15.303 8.5015 90.057C26.8662 164.811 48.7444 195.13 112.979 196.557Z" fill="#F4F5F6"/>
<path d="M198.272 85.8514H134.023V155.572H198.272V85.8514Z" fill="white"/>
<path d="M208.828 148.298H191.427V155.151H208.828V148.298Z" fill="white"/>
<path d="M203.157 142.098H197.007V148.207H203.157V142.098Z" fill="white"/>
<path d="M204.704 87.7031L153.674 87.5708L134.545 101.707L134.264 62.6219L153.409 53.2475L205.241 82.3049L204.704 87.7031Z" fill="white"/>
<path fill-rule="evenodd" clip-rule="evenodd" d="M150.992 51.8262C151.529 51.5555 152.162 51.5555 152.7 51.8263L207.582 79.4951C208.367 79.8903 208.778 80.7731 208.574 81.6279C208.371 82.4827 207.607 83.0861 206.728 83.0861H96.9552C96.0765 83.0861 95.3126 82.4827 95.1093 81.6279C94.9059 80.7731 95.3168 79.8903 96.1013 79.4951L150.992 51.8262ZM104.934 79.2917H198.751L151.846 55.645L104.934 79.2917Z" fill="#D8DBDF"/>
<path fill-rule="evenodd" clip-rule="evenodd" d="M98.9812 79.2917C100.029 79.2917 100.878 80.1416 100.878 81.189V85.8059H202.806V81.189C202.806 80.1416 203.656 79.2917 204.704 79.2917C205.752 79.2917 206.601 80.1416 206.601 81.189V87.7031C206.601 88.7505 205.752 89.6003 204.704 89.6003H98.9812C97.9338 89.6003 97.084 88.7505 97.084 87.7031V81.189C97.084 80.1416 97.9338 79.2917 98.9812 79.2917Z" fill="#D8DBDF"/>
<path fill-rule="evenodd" clip-rule="evenodd" d="M104.012 94.9282C104.012 93.88 104.862 93.031 105.909 93.031H115.374C116.422 93.031 117.271 93.88 117.271 94.9282V133.434C117.271 134.482 116.422 135.332 115.374 135.332H105.909C104.862 135.332 104.012 134.482 104.012 133.434V94.9282ZM107.806 96.8254V131.537H113.477V96.8254H107.806Z" fill="#D8DBDF"/>
<path fill-rule="evenodd" clip-rule="evenodd" d="M124.141 94.9282C124.141 93.88 124.99 93.031 126.038 93.031H135.503C136.551 93.031 137.4 93.88 137.4 94.9282V133.434C137.4 134.482 136.551 135.332 135.503 135.332H126.038C124.99 135.332 124.141 134.482 124.141 133.434V94.9282ZM127.935 96.8254V131.537H133.606V96.8254H127.935Z" fill="#D8DBDF"/>
<path fill-rule="evenodd" clip-rule="evenodd" d="M166.276 94.9282C166.276 93.88 167.126 93.031 168.174 93.031H177.639C178.687 93.031 179.536 93.88 179.536 94.9282V133.434C179.536 134.482 178.687 135.332 177.639 135.332H168.174C167.126 135.332 166.276 134.482 166.276 133.434V94.9282ZM170.071 96.8254V131.537H175.742V96.8254H170.071Z" fill="#D8DBDF"/>
<path fill-rule="evenodd" clip-rule="evenodd" d="M186.488 94.9282C186.488 93.88 187.338 93.031 188.385 93.031H197.851C198.899 93.031 199.748 93.88 199.748 94.9282V133.434C199.748 134.482 198.899 135.332 197.851 135.332H188.385C187.338 135.332 186.488 134.482 186.488 133.434V94.9282ZM190.283 96.8254V131.537H195.954V96.8254H190.283Z" fill="#D8DBDF"/>
<path fill-rule="evenodd" clip-rule="evenodd" d="M98.6133 141.263C98.6133 140.214 99.4631 139.366 100.51 139.366H203.166C204.214 139.366 205.063 140.214 205.063 141.263V148.207C205.063 149.254 204.214 150.104 203.166 150.104C202.119 150.104 201.269 149.254 201.269 148.207V143.16H102.408V148.207C102.408 149.254 101.559 150.104 100.51 150.104C99.4631 150.104 98.6133 149.254 98.6133 148.207V141.263Z" fill="#D8DBDF"/>
<path fill-rule="evenodd" clip-rule="evenodd" d="M92.9502 148.207C92.9502 147.158 93.8 146.31 94.8474 146.31H208.828C209.876 146.31 210.725 147.158 210.725 148.207V155.151C210.725 156.198 209.876 157.048 208.828 157.048C207.781 157.048 206.931 156.198 206.931 155.151V150.104H96.7446V155.151C96.7446 156.198 95.8956 157.048 94.8474 157.048C93.8 157.048 92.9502 156.198 92.9502 155.151V148.207Z" fill="#D8DBDF"/>
<path fill-rule="evenodd" clip-rule="evenodd" d="M87.9414 155.151C87.9414 154.103 88.7912 153.254 89.8386 153.254H213.839C214.886 153.254 215.736 154.103 215.736 155.151C215.736 156.198 214.886 157.048 213.839 157.048H89.8386C88.7912 157.048 87.9414 156.198 87.9414 155.151Z" fill="#D8DBDF"/>
<path fill-rule="evenodd" clip-rule="evenodd" d="M117.019 85.8059C118.067 85.8059 118.917 86.6557 118.917 87.7031V93.3079C118.917 95.2481 117.339 96.8254 115.399 96.8254C114.351 96.8254 113.502 95.9756 113.502 94.9282C113.502 93.9742 114.205 93.1847 115.122 93.0508V87.7031C115.122 86.6557 115.971 85.8059 117.019 85.8059Z" fill="#D8DBDF"/>
<path fill-rule="evenodd" clip-rule="evenodd" d="M104.263 85.8059C105.312 85.8059 106.161 86.6557 106.161 87.7031V93.0508C107.077 93.1847 107.781 93.9742 107.781 94.9282C107.781 95.9756 106.932 96.8254 105.884 96.8254C103.943 96.8254 102.366 95.2481 102.366 93.3079V87.7031C102.366 86.6557 103.216 85.8059 104.263 85.8059Z" fill="#D8DBDF"/>
<path fill-rule="evenodd" clip-rule="evenodd" d="M137.148 85.8059C138.196 85.8059 139.046 86.6557 139.046 87.7031V93.3079C139.046 95.2481 137.468 96.8254 135.528 96.8254C134.48 96.8254 133.631 95.9756 133.631 94.9282C133.631 93.9742 134.334 93.1847 135.251 93.0508V87.7031C135.251 86.6557 136.1 85.8059 137.148 85.8059Z" fill="#D8DBDF"/>
<path fill-rule="evenodd" clip-rule="evenodd" d="M124.393 85.8059C125.442 85.8059 126.29 86.6557 126.29 87.7031V93.0508C127.207 93.1847 127.911 93.9742 127.911 94.9282C127.911 95.9756 127.062 96.8254 126.014 96.8254C124.073 96.8254 122.496 95.2481 122.496 93.3079V87.7031C122.496 86.6557 123.346 85.8059 124.393 85.8059Z" fill="#D8DBDF"/>
<path fill-rule="evenodd" clip-rule="evenodd" d="M179.283 85.8059C180.331 85.8059 181.18 86.6557 181.18 87.7031V93.3079C181.18 95.2489 179.603 96.8254 177.663 96.8254C176.615 96.8254 175.766 95.9756 175.766 94.9282C175.766 93.9742 176.469 93.1847 177.386 93.0508V87.7031C177.386 86.6557 178.236 85.8059 179.283 85.8059Z" fill="#D8DBDF"/>
<path fill-rule="evenodd" clip-rule="evenodd" d="M166.528 85.8059C167.575 85.8059 168.425 86.6557 168.425 87.7031V93.0508C169.342 93.1847 170.046 93.9742 170.046 94.9282C170.046 95.9756 169.196 96.8254 168.148 96.8254C166.208 96.8254 164.631 95.2489 164.631 93.3079V87.7031C164.631 86.6557 165.48 85.8059 166.528 85.8059Z" fill="#D8DBDF"/>
<path fill-rule="evenodd" clip-rule="evenodd" d="M199.496 85.8059C200.544 85.8059 201.393 86.6557 201.393 87.7031V93.3079C201.393 95.2489 199.816 96.8254 197.876 96.8254C196.828 96.8254 195.979 95.9756 195.979 94.9282C195.979 93.9742 196.682 93.1847 197.599 93.0508V87.7031C197.599 86.6557 198.449 85.8059 199.496 85.8059Z" fill="#D8DBDF"/>
<path fill-rule="evenodd" clip-rule="evenodd" d="M186.74 85.8059C187.787 85.8059 188.637 86.6557 188.637 87.7031V93.0508C189.554 93.1847 190.257 93.9742 190.257 94.9282C190.257 95.9756 189.408 96.8254 188.36 96.8254C186.42 96.8254 184.843 95.2489 184.843 93.3079V87.7031C184.843 86.6557 185.692 85.8059 186.74 85.8059Z" fill="#D8DBDF"/>
<path fill-rule="evenodd" clip-rule="evenodd" d="M188.637 135.32C189.554 135.186 190.257 134.396 190.257 133.442C190.257 132.395 189.408 131.545 188.36 131.545C186.42 131.545 184.843 133.122 184.843 135.063V140.667C184.843 141.716 185.692 142.565 186.74 142.565C187.787 142.565 188.637 141.716 188.637 140.667V135.32Z" fill="#D8DBDF"/>
<path fill-rule="evenodd" clip-rule="evenodd" d="M195.979 133.442C195.979 132.395 196.828 131.545 197.876 131.545C199.816 131.545 201.393 133.122 201.393 135.063V140.667C201.393 141.716 200.544 142.565 199.496 142.565C198.449 142.565 197.599 141.716 197.599 140.667V135.32C196.682 135.186 195.979 134.396 195.979 133.442Z" fill="#D8DBDF"/>
<path fill-rule="evenodd" clip-rule="evenodd" d="M168.425 135.32C169.342 135.186 170.046 134.396 170.046 133.442C170.046 132.395 169.196 131.545 168.148 131.545C166.208 131.545 164.631 133.122 164.631 135.063V140.667C164.631 141.716 165.48 142.565 166.528 142.565C167.575 142.565 168.425 141.716 168.425 140.667V135.32Z" fill="#D8DBDF"/>
<path fill-rule="evenodd" clip-rule="evenodd" d="M175.766 133.442C175.766 132.395 176.615 131.545 177.663 131.545C179.603 131.545 181.18 133.122 181.18 135.063V140.667C181.18 141.716 180.331 142.565 179.283 142.565C178.236 142.565 177.386 141.716 177.386 140.667V135.32C176.469 135.186 175.766 134.396 175.766 133.442Z" fill="#D8DBDF"/>
<path fill-rule="evenodd" clip-rule="evenodd" d="M153.766 133.442C153.766 132.395 154.615 131.545 155.663 131.545C157.603 131.545 159.18 133.122 159.18 135.063V140.667C159.18 141.716 158.331 142.565 157.283 142.565C156.236 142.565 155.386 141.716 155.386 140.667V135.32C154.469 135.186 153.766 134.396 153.766 133.442Z" fill="#D8DBDF"/>
<path fill-rule="evenodd" clip-rule="evenodd" d="M126.29 135.32C127.207 135.186 127.911 134.396 127.911 133.442C127.911 132.395 127.062 131.545 126.014 131.545C124.073 131.545 122.496 133.123 122.496 135.063V140.667C122.496 141.716 123.346 142.565 124.393 142.565C125.442 142.565 126.29 141.716 126.29 140.667V135.32Z" fill="#D8DBDF"/>
<path fill-rule="evenodd" clip-rule="evenodd" d="M133.631 133.442C133.631 132.395 134.48 131.545 135.528 131.545C137.468 131.545 139.046 133.123 139.046 135.063V140.667C139.046 141.716 138.196 142.565 137.148 142.565C136.1 142.565 135.251 141.716 135.251 140.667V135.32C134.334 135.186 133.631 134.396 133.631 133.442Z" fill="#D8DBDF"/>
<path fill-rule="evenodd" clip-rule="evenodd" d="M106.161 135.32C107.077 135.186 107.781 134.396 107.781 133.442C107.781 132.395 106.932 131.545 105.884 131.545C103.943 131.545 102.366 133.123 102.366 135.063V140.667C102.366 141.716 103.216 142.565 104.263 142.565C105.312 142.565 106.161 141.716 106.161 140.667V135.32Z" fill="#D8DBDF"/>
<path fill-rule="evenodd" clip-rule="evenodd" d="M113.502 133.442C113.502 132.395 114.351 131.545 115.399 131.545C117.339 131.545 118.917 133.123 118.917 135.063V140.667C118.917 141.716 118.067 142.565 117.019 142.565C115.971 142.565 115.122 141.716 115.122 140.667V135.32C114.205 135.186 113.502 134.396 113.502 133.442Z" fill="#D8DBDF"/>
<path fill-rule="evenodd" clip-rule="evenodd" d="M145 94.9286C145 93.8639 145.833 93 146.86 93H156.14C157.168 93 158 93.8639 158 94.9286V134.071C158 135.136 157.168 136 156.14 136H146.86C145.833 136 145 135.136 145 134.071V94.9286ZM148.72 96.8571V132.143H154.28V96.8571H148.72Z" fill="#D8DBDF"/>
<path fill-rule="evenodd" clip-rule="evenodd" d="M157.658 85.9547C158.706 85.9547 159.555 86.8045 159.555 87.8519V93.4567C159.555 95.3969 157.979 96.9742 156.038 96.9742C154.99 96.9742 154.141 96.1252 154.141 95.077C154.141 94.123 154.844 93.3335 155.761 93.1996V87.8519C155.761 86.8045 156.611 85.9547 157.658 85.9547Z" fill="#D8DBDF"/>
<path fill-rule="evenodd" clip-rule="evenodd" d="M144.902 85.4587C145.95 85.4587 146.799 86.3085 146.799 87.3559V92.7036C147.716 92.8375 148.42 93.627 148.42 94.581C148.42 95.6292 147.571 96.4782 146.522 96.4782C144.582 96.4782 143.005 94.9017 143.005 92.9607V87.3559C143.005 86.3085 143.855 85.4587 144.902 85.4587Z" fill="#D8DBDF"/>
<path d="M113.543 128.15C113.138 130.332 111.013 131.787 108.831 131.374L22.7503 115.254C20.5679 114.849 19.1129 112.724 19.5263 110.542L28.8345 60.8343C29.2396 58.6519 31.3641 57.1969 33.5465 57.6103L119.627 73.7303C121.81 74.1353 123.265 76.2599 122.851 78.4423L113.543 128.15Z" fill="#DE0299"/>
<path d="M118.552 101.504L24.5383 83.9099L21.9395 97.7962L115.953 115.39L118.552 101.504Z" fill="#D8DBDF"/>
<path d="M30.379 93.8431L30.9812 90.6249C31.0329 90.3488 31.2934 90.1702 31.5697 90.2223L67.9723 97.0348C68.2486 97.0869 68.4269 97.3473 68.3753 97.6234L67.773 100.841C67.7214 101.117 67.4609 101.295 67.1846 101.244L30.7819 94.4317C30.5057 94.3796 30.3274 94.1192 30.379 93.8431Z" fill="white"/>
<path d="M89.958 105.02C89.9084 105.292 89.6438 105.474 89.371 105.425L73.466 102.449C73.1932 102.399 73.0113 102.135 73.0609 101.862L73.6644 98.646C73.714 98.3732 73.9785 98.1913 74.2513 98.2409L90.1564 101.217C90.4292 101.267 90.611 101.531 90.5614 101.804L89.958 105.02Z" fill="white"/>
<path d="M95.2278 105.988L95.8296 102.771C95.8817 102.495 96.1421 102.316 96.4182 102.368L112.328 105.345C112.604 105.397 112.783 105.658 112.731 105.934L112.129 109.151C112.077 109.428 111.816 109.606 111.54 109.555L95.6304 106.577C95.3543 106.525 95.1757 106.265 95.2278 105.988Z" fill="white"/>
<path d="M65.0009 69.3884L37.1057 64.168L36.2998 68.4745L64.1949 73.695L65.0009 69.3884Z" fill="#EEEFF1"/>
<path d="M112.902 78.347L80.2292 72.2324L79.8262 74.3857L112.499 80.5003L112.902 78.347Z" fill="white"/>
<path d="M112.068 82.8178L90.6731 78.8139L90.2705 80.9671L111.665 84.9713L112.068 82.8178Z" fill="white"/>
<path opacity="0.5" d="M60.1066 112.392L27.6205 106.313L27.0928 109.132L59.579 115.212L60.1066 112.392Z" fill="white"/>
<path opacity="0.4" d="M97.7294 116.119L93.0364 119.333C92.5768 119.647 92.4594 120.275 92.7744 120.735L95.9868 125.428C96.3018 125.887 96.9292 126.005 97.3888 125.69L102.082 122.476C102.541 122.162 102.659 121.535 102.345 121.075L99.1314 116.382C98.8165 115.923 98.189 115.805 97.7294 116.119Z" fill="white"/>
<path opacity="0.2" d="M104.046 117.296L99.354 120.51C98.8944 120.825 98.777 121.452 99.0911 121.912L102.304 126.605C102.619 127.064 103.247 127.182 103.706 126.867L108.399 123.653C108.859 123.339 108.976 122.711 108.661 122.251L105.448 117.558C105.134 117.099 104.506 116.981 104.046 117.296Z" fill="white"/>
<path d="M140.781 32.5541H94.7444C88.5989 32.5541 83.6174 37.5358 83.6174 43.6811V159.58C83.6174 165.725 88.5989 170.707 94.7444 170.707H140.781C146.927 170.707 151.908 165.725 151.908 159.58V43.6811C151.908 37.5358 146.927 32.5541 140.781 32.5541Z" fill="#0F506E"/>
<path d="M140.798 35.5383H94.7195C90.2456 35.5383 86.6182 39.1655 86.6182 43.6397V159.638C86.6182 164.112 90.2456 167.739 94.7195 167.739H140.798C145.272 167.739 148.899 164.112 148.899 159.638V43.6397C148.899 39.1655 145.272 35.5383 140.798 35.5383Z" fill="#F4F5F6"/>
<path d="M140.798 35.5383H94.7195C90.2555 35.5383 86.6182 39.1757 86.6182 43.6397V48.9634H148.899V43.6397C148.899 39.1757 145.262 35.5383 140.798 35.5383Z" fill="#DE0299"/>
<path d="M140.798 167.73H94.7195C90.2555 167.73 86.6182 164.093 86.6182 159.629V154.305H148.899V159.629C148.899 164.093 145.262 167.73 140.798 167.73Z" fill="#DE0299"/>
<path d="M133.217 43.7638H102.308C101.473 43.7638 100.796 43.0859 100.796 42.251C100.796 41.416 101.473 40.7382 102.308 40.7382H133.217C134.052 40.7382 134.73 41.416 134.73 42.251C134.73 43.0859 134.052 43.7638 133.217 43.7638Z" fill="#454B54"/>
<path d="M117.759 110.765C129.94 110.765 139.814 100.89 139.814 88.7095C139.814 76.5285 129.94 66.654 117.759 66.654C105.578 66.654 95.7032 76.5285 95.7032 88.7095C95.7032 100.89 105.578 110.765 117.759 110.765Z" fill="white"/>
<path d="M131.586 102.541C139.225 94.9037 139.225 82.5193 131.586 74.8811C123.948 67.2428 111.564 67.2428 103.926 74.8811C96.2877 82.5193 96.2877 94.9037 103.926 102.541C111.564 110.18 123.948 110.18 131.586 102.541Z" fill="#454B54"/>
<path fill-rule="evenodd" clip-rule="evenodd" d="M106.039 89.8894C105.451 88.9359 105.746 87.6851 106.7 87.0962C107.653 86.5072 108.904 86.8031 109.492 87.7566L113.631 94.4568L126.117 78.6726C126.811 77.7937 128.087 77.6442 128.965 78.3384C129.844 79.0326 129.994 80.3085 129.3 81.187L115.067 99.18C114.916 99.3873 114.723 99.5692 114.491 99.7125C113.538 100.301 112.287 100.006 111.698 99.0521L106.039 89.8894Z" fill="white"/>
<path opacity="0.2" d="M55.1966 111.757L52.5596 119.734H55.1966V111.757Z" fill="#1D1D1B"/>
<path opacity="0.2" d="M83.6174 109.484V66.9847L77.624 109.484H83.6174Z" fill="#1D1D1B"/>
<path d="M110.17 166.424C110.17 169.624 107.549 172.236 104.358 172.236H25.3209C22.1217 172.236 19.5094 169.615 19.5094 166.424V125.546C19.5094 122.346 22.1299 119.734 25.3209 119.734H104.35C107.549 119.734 110.162 122.355 110.162 125.546V166.424H110.17Z" fill="#ABB1BA"/>
<path d="M110.17 125.802H19.5094V137.003H110.17V125.802Z" fill="black"/>
<path opacity="0.8" d="M107.483 140.5H33.0419V152.164H107.483V140.5Z" fill="white"/>
<path d="M27.0981 156.802H51.088C53.0307 156.802 54.6096 158.381 54.6096 160.324V163.845C54.6096 165.788 53.0307 167.367 51.088 167.367H27.0981C25.1555 167.367 23.5765 165.788 23.5765 163.845V160.324C23.5765 158.381 25.1555 156.802 27.0981 156.802Z" fill="#ABB1BA"/>
<path d="M95.1825 162.365V112.832C95.1825 110.856 93.215 109.236 90.8177 109.236H58.9745C58.9497 109.236 58.9332 109.236 58.9084 109.236C58.5281 109.236 58.1644 109.285 57.8172 109.36C56.3044 109.748 55.1884 110.955 55.1884 112.377V119.734H62.5209V166.061C62.5209 168.036 64.4884 169.657 66.8857 169.657H98.7289C98.7537 169.657 98.7702 169.657 98.795 169.657C99.1753 169.657 99.539 169.607 99.8862 169.533C101.399 169.144 102.515 167.937 102.515 166.515V162.365H95.1825Z" fill="white"/>
<path d="M58.9165 109.227C58.9 109.227 58.8835 109.227 58.8587 109.227C58.5032 109.227 58.156 109.269 57.8253 109.36C56.3125 109.748 55.1965 110.955 55.1965 112.377V119.734H62.5291V112.377C62.5291 110.666 60.9088 109.26 58.9165 109.236V109.227Z" fill="#B4BEBE"/>
<path d="M95.1824 162.365H70.6966V166.515C70.6966 167.937 69.5806 169.144 68.0678 169.533C67.7371 169.615 67.3899 169.665 67.0344 169.665H98.8528C99.2083 169.665 99.5555 169.624 99.8862 169.533C101.399 169.144 102.515 167.937 102.515 166.515V162.365H95.1824Z" fill="#DAE4E4"/>
<path d="M84.8904 115.378H73.3088V115.956H84.8904V115.378Z" fill="#3C3C3B"/>
<path d="M80.567 111.757H77.624V112.137H80.567V111.757Z" fill="#3C3C3B"/>
<path d="M85.9073 120.635H72.2838V120.974H85.9073V120.635Z" fill="#3C3C3B"/>
<path d="M78.3349 123.62H65.8771V124.231H78.3349V123.62Z" fill="#3C3C3B"/>
<path d="M73.0029 132.647H65.8771V133.259H73.0029V132.647Z" fill="#3C3C3B"/>
<path d="M70.3659 134.846H65.8771V135.457H70.3659V134.846Z" fill="#3C3C3B"/>
<path d="M93.3142 134.846H91.0657V135.457H93.3142V134.846Z" fill="#3C3C3B"/>
<path d="M80.9555 130.44H65.8771V131.051H80.9555V130.44Z" fill="#3C3C3B"/>
<path d="M74.7059 126.025H65.8771V126.637H74.7059V126.025Z" fill="#3C3C3B"/>
<path d="M75.7144 128.232H65.8771V128.844H75.7144V128.232Z" fill="#3C3C3B"/>
<path d="M77.3925 137.053H65.8771V137.665H77.3925V137.053Z" fill="#3C3C3B"/>
<path d="M80.1205 141.467H65.8771V142.079H80.1205V141.467Z" fill="#3C3C3B"/>
<path d="M79.0707 139.26H65.8771V139.872H79.0707V139.26Z" fill="#3C3C3B"/>
<path d="M72.2341 144.972H65.8771V146.527H72.2341V144.972Z" fill="#3C3C3B"/>
<path d="M93.2645 144.972H89.6272V146.527H93.2645V144.972Z" fill="#3C3C3B"/>
<path d="M93.3059 123.62H90.6936V124.231H93.3059V123.62Z" fill="#3C3C3B"/>
<path d="M93.3142 132.647H90.8011V133.259H93.3142V132.647Z" fill="#3C3C3B"/>
<path d="M93.3142 130.44H91.0657V131.051H93.3142V130.44Z" fill="#3C3C3B"/>
<path d="M93.3142 126.025H91.0657V126.637H93.3142V126.025Z" fill="#3C3C3B"/>
<path d="M93.3142 128.232H91.7352V128.844H93.3142V128.232Z" fill="#3C3C3B"/>
<path d="M93.3059 137.053H91.1814V137.665H93.3059V137.053Z" fill="#3C3C3B"/>
<path d="M93.3142 139.26H91.0657V139.872H93.3142V139.26Z" fill="#3C3C3B"/>
<path d="M93.3059 141.467H91.1814V142.079H93.3059V141.467Z" fill="#3C3C3B"/>
<path d="M88.2302 116.89H69.9691V117.469H88.2302V116.89Z" fill="#3C3C3B"/>
<path d="M67.1915 119.172H66.8525V119.461H67.1915V119.172Z" fill="#3C3C3B"/>
<path d="M68.1174 119.172H67.7784V119.461H68.1174V119.172Z" fill="#3C3C3B"/>
<path d="M69.0515 119.172H68.7125V119.461H69.0515V119.172Z" fill="#3C3C3B"/>
<path d="M69.9774 119.172H69.6384V119.461H69.9774V119.172Z" fill="#3C3C3B"/>
<path d="M70.9033 119.172H70.5643V119.461H70.9033V119.172Z" fill="#3C3C3B"/>
<path d="M71.8373 119.172H71.4984V119.461H71.8373V119.172Z" fill="#3C3C3B"/>
<path d="M72.7633 119.172H72.4243V119.461H72.7633V119.172Z" fill="#3C3C3B"/>
<path d="M73.6973 119.172H73.3584V119.461H73.6973V119.172Z" fill="#3C3C3B"/>
<path d="M74.6232 119.172H74.2843V119.461H74.6232V119.172Z" fill="#3C3C3B"/>
<path d="M75.5574 119.172H75.2185V119.461H75.5574V119.172Z" fill="#3C3C3B"/>
<path d="M76.4832 119.172H76.1443V119.461H76.4832V119.172Z" fill="#3C3C3B"/>
<path d="M77.4091 119.172H77.0702V119.461H77.4091V119.172Z" fill="#3C3C3B"/>
<path d="M78.3432 119.172H78.0043V119.461H78.3432V119.172Z" fill="#3C3C3B"/>
<path d="M79.2691 119.172H78.9302V119.461H79.2691V119.172Z" fill="#3C3C3B"/>
<path d="M80.2032 119.172H79.8643V119.461H80.2032V119.172Z" fill="#3C3C3B"/>
<path d="M81.1291 119.172H80.7902V119.461H81.1291V119.172Z" fill="#3C3C3B"/>
<path d="M82.055 119.172H81.7161V119.461H82.055V119.172Z" fill="#3C3C3B"/>
<path d="M82.9891 119.172H82.6501V119.461H82.9891V119.172Z" fill="#3C3C3B"/>
<path d="M83.915 119.172H83.576V119.461H83.915V119.172Z" fill="#3C3C3B"/>
<path d="M84.8491 119.172H84.5101V119.461H84.8491V119.172Z" fill="#3C3C3B"/>
<path d="M85.775 119.172H85.436V119.461H85.775V119.172Z" fill="#3C3C3B"/>
<path d="M86.7009 119.172H86.3619V119.461H86.7009V119.172Z" fill="#3C3C3B"/>
<path d="M87.635 119.172H87.296V119.461H87.635V119.172Z" fill="#3C3C3B"/>
<path d="M88.5609 119.172H88.2219V119.461H88.5609V119.172Z" fill="#3C3C3B"/>
<path d="M89.4949 119.172H89.156V119.461H89.4949V119.172Z" fill="#3C3C3B"/>
<path d="M90.4209 119.172H90.0819V119.461H90.4209V119.172Z" fill="#3C3C3B"/>
<path d="M91.3467 119.172H91.0078V119.461H91.3467V119.172Z" fill="#3C3C3B"/>
</g>
</g>
<defs>
<clipPath id="clip0_154_10570">
<rect width="248" height="200" fill="white"/>
</clipPath>
</defs>
</svg>
