<svg width="248" height="248" viewBox="0 0 248 248" fill="none" xmlns="http://www.w3.org/2000/svg">
<path fill-rule="evenodd" clip-rule="evenodd" d="M120.967 74.8975C148.26 74.8975 159.759 94.426 179.462 109.606C205.541 129.698 231.618 116.619 235.792 184.504C239.508 244.924 193.135 191.046 127.752 212.688C62.3669 234.332 -4.22462 243.046 15.5354 173.021C35.2965 102.996 57.5503 74.8975 120.967 74.8975Z" fill="#F4F5F6"/>
<path d="M84.0546 109.686C69.2953 113.282 55.1088 111.843 52.4275 111.527C51.7084 133.976 50.6115 187.103 52.3909 188.017C54.6456 189.175 59.5695 188.931 59.862 187.517C60.0814 186.457 65.4074 145.348 68.1862 124.372C69.149 131.527 70.2337 139.01 70.8553 143.495C72.4153 154.756 75.2917 185.908 75.9742 187.273C76.6567 188.638 82.1777 188.87 83.2015 187.517C84.2131 186.176 84.4446 156.487 84.3593 144.104C84.3106 135.585 84.3837 119.046 84.0546 109.698V109.686Z" fill="#17191C"/>
<path d="M92.4026 190.698C91.196 189.552 82.9084 187.639 82.9084 187.639H82.7865C81.4093 188.431 77.948 188.334 76.5342 187.542H76.2051C74.5232 189.967 75.5957 193.843 75.5957 193.843H93.0851C93.0851 193.843 93.6092 191.832 92.4026 190.686V190.698Z" fill="#011E41"/>
<path d="M59.5202 187.383C59.5202 187.383 61.4581 193.721 60.4465 193.843C59.8737 193.916 52.171 193.964 50.3672 193.843C49.4897 193.782 52.3295 187.761 52.5001 187.383C52.6707 187.005 55.9858 185.957 59.508 187.383H59.5202Z" fill="#011E41"/>
<path d="M52.4392 111.624C52.4392 111.941 52.4148 112.258 52.4148 112.587C55.4374 113.111 69.5873 115.195 84.1273 111.648C84.1151 111.003 84.0907 110.381 84.0663 109.784C69.307 113.379 55.1083 111.941 52.4392 111.624Z" fill="#002C61"/>
<path d="M91.5866 70.4662L88.3081 77.535C88.3081 77.535 87.6378 73.5009 83.9205 67.6142C80.2033 61.7276 72.2081 59.9482 72.2081 59.9482H72.1594C71.5743 60.7891 70.0265 62.8001 69.1734 62.8123C68.3568 62.8123 65.4439 60.7891 63.8108 59.5581L63.4817 59.4485C63.4817 59.4485 51.7205 62.3126 48.503 66.1395C48.3933 66.2492 48.2958 66.3589 48.1983 66.4808C44.1398 71.2462 40.2153 89.089 42.4457 94.2566C44.676 99.4242 53.1465 94.1226 53.1465 94.1226L51.9765 111.551C51.9765 111.551 67.9668 113.806 84.5299 109.65L84.4324 108.553L83.3477 89.8934V89.8081L83.043 84.4942C83.043 84.5796 83.1527 85.2864 83.5427 86.1762C83.6524 86.4199 83.7743 86.6758 83.9327 86.944C84.798 88.4187 86.4921 90.0519 89.7463 90.2347C95.8279 90.5759 95.9376 70.9171 95.9376 70.9171C95.2795 70.1737 91.5988 70.4418 91.5988 70.4418L91.5866 70.4662Z" fill="#DE0299"/>
<path d="M95.3032 64.4942C95.3032 64.4942 95.7298 63.1657 95.9735 63.0195C96.2173 62.8732 96.6561 62.8976 96.6195 63.6776C96.5829 64.4576 96.1929 66.0298 96.1929 66.0298L95.3154 64.4942H95.3032Z" fill="#D78046"/>
<path d="M97.0959 56.0846H91.5748C91.0873 56.0846 90.5754 56.4746 90.4535 56.9377L87.1141 68.967C86.98 69.4423 87.2725 69.8202 87.7601 69.8202H93.2811C93.7686 69.8202 94.2805 69.4302 94.4024 68.967L94.5974 68.248L96.3646 61.8738L97.7418 56.9377C97.8759 56.4624 97.5834 56.0846 97.0959 56.0846Z" fill="#454B54"/>
<path d="M94.1462 60.4722C94.0731 60.7403 93.7684 60.9597 93.4881 60.9597H93.2931C93.0128 60.9597 92.8421 60.7403 92.9275 60.4722L93.5856 58.1931C93.6587 57.925 93.9634 57.7056 94.2437 57.7056H94.4387C94.7191 57.7056 94.8897 57.925 94.8044 58.1931L94.1462 60.4722Z" fill="#0F506E"/>
<path d="M87.6256 69.2717L90.9651 57.2424C91.0991 56.7671 91.5988 56.3893 92.0863 56.3893H97.6074C97.6318 56.3893 97.6561 56.3893 97.6927 56.3893C97.583 56.2065 97.3758 56.0846 97.0955 56.0846H91.5744C91.0869 56.0846 90.5751 56.4746 90.4532 56.9377L87.1137 68.967C86.9919 69.4058 87.2478 69.7836 87.6866 69.8202C87.6012 69.6739 87.5769 69.4789 87.6378 69.2717H87.6256Z" fill="#19699B"/>
<path d="M91.8173 70.7343C92.0367 71.0268 92.3779 71.2705 92.8898 71.4046C94.7424 71.8921 95.6199 71.0512 95.6199 71.0512C95.7174 69.9055 95.8027 68.1139 96.0099 67.4436C96.3268 66.4442 96.4121 65.7251 96.0952 65.2376C95.7783 64.7501 95.0349 63.446 94.8764 63.1901C94.718 62.9463 93.3286 61.9591 92.4389 61.5569C91.5492 61.1669 91.3054 62.1054 91.9026 62.4832C92.1829 62.666 93.3895 63.5313 93.6455 63.9335C93.9014 64.3357 94.2792 64.9938 94.1452 64.9938C94.0111 64.9938 93.548 64.3113 92.9995 64.0066C92.4511 63.7019 91.9026 63.5557 90.6717 63.0682C89.4529 62.5807 89.3919 63.4704 89.5504 63.641C89.9891 64.1041 91.5857 64.8476 91.8904 65.006C92.1951 65.1645 93.2798 66.1151 93.1458 66.1273C93.0239 66.1273 91.8782 65.3595 91.476 65.2985C91.0739 65.2376 89.9648 65.0182 89.2091 64.9451C88.4535 64.872 88.5997 65.8836 89.4163 66.0907C90.2207 66.2979 90.7082 66.4929 91.6832 66.9439C92.6583 67.3948 92.3414 67.5289 92.3414 67.5289C92.3414 67.5289 91.1348 67.8458 90.3913 67.7848C89.6357 67.7239 88.7948 67.7361 88.7216 68.1017C88.6363 68.6014 89.0751 68.7355 89.7698 68.833C90.4645 68.9305 91.8539 69.0767 91.8539 69.0767C91.8904 69.8324 91.6711 70.3077 91.8173 70.7221V70.7343Z" fill="#FA8C64"/>
<path d="M65.5161 83.897L53.1577 94.1469L53.0237 96.5479L65.5161 83.897Z" fill="#454B54"/>
<path d="M54.9505 72.2699C55.3162 72.2699 54.268 82.8489 54.6824 83.1048C55.109 83.3608 63.5673 80.4113 63.872 80.4601C64.1767 80.4966 58.29 83.4095 53.1589 84.5552C52.9396 84.6039 54.6093 72.2699 54.9505 72.2699Z" fill="#454B54"/>
<path d="M83.3478 89.8325V89.9178C82.5069 85.2133 81.1419 72.0384 81.5562 72.2821C81.9341 72.5015 83.1528 82.8733 83.5306 86.2005C83.1406 85.3108 83.0431 84.6039 83.0309 84.5186L83.3356 89.8325H83.3478Z" fill="#454B54"/>
<path d="M75.2311 77.3887C75.1824 77.3278 75.097 77.2547 74.9995 77.1815C74.378 76.7306 72.9276 75.9871 72.4889 75.8043C71.9648 75.5849 71.3432 75.6581 69.7466 75.5849C68.15 75.5118 67.7722 76.0968 67.5407 76.365C67.3578 76.5843 65.4444 78.6928 64.2256 79.68C64.6887 79.7166 65.7856 81.0938 65.8587 83.0926C66.9434 82.9463 68.0525 82.4101 68.6375 82.3004C69.2713 82.1907 69.6491 82.7026 70.4535 82.3613C71.2579 82.0201 71.1848 81.1304 71.1848 81.1304C72.111 80.716 71.9039 79.8385 71.9039 79.8385C72.2085 79.6922 72.5864 79.0463 72.3548 78.5588C72.1232 78.0712 70.4413 77.2547 70.4413 77.2547C72.5132 77.145 73.4761 78.0834 74.4145 78.1931C74.707 78.2297 74.9264 78.1931 75.0727 78.1322C75.3895 77.9859 75.4139 77.6325 75.2311 77.4009V77.3887Z" fill="#FA8C64"/>
<path d="M75.6456 48.4551V48.7598C75.6456 51.6483 75.3165 55.4508 73.8662 57.0718C73.6346 57.3278 73.3665 57.5349 73.0862 57.6812C72.7937 57.8275 72.4768 57.9371 72.1477 57.9859L72.3062 59.9603C72.3062 59.9603 70.3196 62.9097 69.1983 62.9341C68.077 62.9585 63.5066 59.4606 63.5066 59.4606L63.9454 54.5855L64.1404 52.3674C63.7626 52.3674 63.2263 52.2211 62.7144 51.7092C62.2879 51.2826 61.8735 50.5758 61.5566 49.4545C61.5566 49.4301 61.5444 49.3935 61.5322 49.3692C61.5078 49.2839 61.4835 49.1985 61.4713 49.1132C61.0813 47.4435 62.1416 47.3704 63.1166 47.6141C63.1166 47.6141 63.5554 48.5038 64.0795 49.0889C64.5304 49.6982 65.0301 50.2345 65.286 50.0517C65.4811 49.9176 65.5786 49.1985 65.6395 48.3454C65.737 46.7854 65.6882 44.7256 65.6882 44.7256C65.6882 44.7256 66.5779 45.0791 68.1502 45.3228C68.7839 45.4203 69.5396 45.5057 70.3805 45.53C71.8309 45.5788 73.5737 45.4813 75.5359 45.0791C75.5359 45.0791 75.6091 45.8104 75.6456 46.9316C75.6456 46.956 75.6456 46.9804 75.6456 47.0048C75.6456 47.0535 75.6456 47.1144 75.6456 47.1632C75.6456 47.1998 75.6456 47.2363 75.6456 47.2851C75.6456 47.4191 75.6456 47.5532 75.6456 47.6873C75.6456 47.7238 75.6456 47.7726 75.6456 47.8091V47.8457C75.6456 47.931 75.6456 48.0041 75.6456 48.0895C75.6456 48.1382 75.6456 48.1991 75.6456 48.2479C75.6456 48.3088 75.6456 48.382 75.6456 48.4429V48.4551Z" fill="#FA8C64"/>
<path d="M64.1275 52.3795L63.9325 54.5977C63.189 54.098 62.8478 52.7086 62.7015 51.7214C63.2134 52.2454 63.7497 52.3673 64.1275 52.3795Z" fill="#20386F"/>
<path d="M77.0585 38.0711C75.7056 37.2789 75.9494 37.7908 72.7928 37.2546C72.549 37.218 72.3174 37.1693 72.0981 37.1205C72.0737 37.1205 72.0615 37.1205 72.0371 37.1083C70.209 36.6696 68.6367 35.2192 65.797 36.5477C62.0066 38.3027 62.3966 40.6062 62.3966 40.6062C62.3966 40.6062 59.5447 40.6915 59.2522 42.995C59.045 44.6403 59.3253 47.3582 61.5435 49.4789C61.5191 49.3692 61.4826 49.2473 61.4582 49.1376C61.0682 47.4679 62.1285 47.3948 63.1035 47.6385C63.1035 47.6385 63.5423 48.5282 64.0664 49.1132C64.5173 49.7226 65.017 50.2589 65.2729 50.0761C65.4679 49.942 65.5654 49.2229 65.6264 48.3698C65.7239 46.8098 65.6751 44.75 65.6751 44.75C65.6751 44.75 66.5648 45.1035 68.1371 45.3472C68.7708 45.4447 69.5265 45.53 70.3674 45.5544C71.8177 45.6032 73.5606 45.5057 75.5228 45.1035C75.5228 45.1035 75.6691 46.7001 75.6691 48.772C76.0713 48.2601 76.5222 47.0779 76.571 45.3838C76.571 45.3838 79.6545 39.5824 77.095 38.0833L77.0585 38.0711Z" fill="#20386F"/>
<path d="M65.6637 55.5483C67.2237 56.9499 70.0269 58.3515 72.1354 57.9859L72.2207 59.0706C71.1116 59.2412 68.0768 59.3143 65.6515 55.5483H65.6637Z" fill="#E07746"/>
<path d="M70.3678 49.7958C70.3435 50.0761 70.1363 50.2954 69.9047 50.2833C69.6731 50.2711 69.5147 50.0273 69.5513 49.747C69.5756 49.4667 69.7828 49.2473 70.0144 49.2595C70.246 49.2717 70.4044 49.5154 70.3678 49.7958Z" fill="#20386F"/>
<path d="M74.2079 49.6129C74.2566 49.8811 74.476 50.0761 74.6954 50.0395C74.9148 50.0029 75.0488 49.747 75.0001 49.4789C74.9513 49.2107 74.7319 49.0157 74.5126 49.0523C74.2932 49.0889 74.1591 49.3448 74.2079 49.6129Z" fill="#20386F"/>
<path d="M68.4542 48.5648C68.4785 48.4186 68.8564 47.9311 69.6486 47.7482C70.4408 47.5654 70.8308 47.6995 70.843 47.992C70.8552 48.3089 69.9411 48.0895 69.222 48.4186C68.5029 48.7476 68.442 48.6258 68.4542 48.5648Z" fill="#20386F"/>
<path d="M75.9864 48.1991C75.9499 48.0651 75.5233 47.6019 74.7189 47.5044C73.9145 47.3947 73.5367 47.5654 73.5489 47.8579C73.5611 48.1748 74.4508 47.8701 75.2064 48.126C75.962 48.382 75.9986 48.2601 75.9864 48.1991Z" fill="#20386F"/>
<path d="M72.3425 52.7573C72.2206 52.7573 72.111 52.7574 72.0135 52.7208C71.8306 52.6598 71.7331 52.538 71.7209 52.3552C71.7209 52.3186 71.7453 52.2942 71.7819 52.2942C71.8184 52.2942 71.8428 52.3186 71.8428 52.3552C71.8428 52.477 71.916 52.5623 72.05 52.6111C72.3913 52.7208 73.0494 52.5258 73.281 52.2455C73.4272 52.0626 73.1225 51.4655 72.83 50.8926C72.5253 50.3076 72.2206 49.7104 72.2328 49.3082C72.2328 49.2717 72.2572 49.2473 72.2938 49.2473C72.3303 49.2473 72.3547 49.2717 72.3547 49.3082C72.3425 49.6739 72.6472 50.2589 72.9397 50.8317C73.281 51.502 73.5857 52.0748 73.3785 52.3186C73.1835 52.5623 72.7325 52.7452 72.3425 52.7573Z" fill="#E07746"/>
<path d="M70.4414 54.488C70.4414 54.488 71.3677 54.6952 72.0502 54.6708C72.7205 54.6343 73.4396 54.354 73.7077 54.3418C73.9758 54.3296 73.0008 55.1949 72.0746 55.2437C71.2214 55.2802 69.8929 54.4393 70.4414 54.5002V54.488Z" fill="#E07746"/>
<path d="M172.393 46.1272H127.079C121.035 46.1272 116.135 51.0273 116.135 57.0718V171.161C116.135 177.206 121.035 182.106 127.079 182.106H172.393C178.438 182.106 183.338 177.206 183.338 171.161V57.0718C183.338 51.0273 178.438 46.1272 172.393 46.1272Z" fill="#454B54"/>
<path d="M127.067 49.0523H172.418C176.818 49.0523 180.389 52.6233 180.389 57.0231V171.186C180.389 175.585 176.818 179.156 172.418 179.156H127.067C122.668 179.156 119.097 175.585 119.097 171.186V57.0353C119.097 52.6355 122.668 49.0645 127.067 49.0645V49.0523Z" fill="#EEEFF1"/>
<path d="M172.418 49.0523H127.067C122.668 49.0523 119.097 52.6233 119.097 57.0231V62.2638H180.389V57.0231C180.389 52.6233 176.818 49.0523 172.418 49.0523Z" fill="#DE0299"/>
<path d="M172.418 179.169H127.067C122.668 179.169 119.097 175.598 119.097 171.198V165.957H180.389V171.198C180.389 175.598 176.818 179.169 172.418 179.169Z" fill="#DE0299"/>
<path d="M164.946 57.1571H134.525C133.697 57.1571 133.039 56.4868 133.039 55.6702C133.039 54.8536 133.709 54.1833 134.525 54.1833H164.946C165.775 54.1833 166.433 54.8536 166.433 55.6702C166.433 56.4868 165.763 57.1571 164.946 57.1571Z" fill="#454B54"/>
<path d="M178.656 68.4796H121.045V140.192H178.656V68.4796Z" fill="white"/>
<path d="M136.865 122.191H125.652V124.738H136.865V122.191Z" fill="#B1B1B1"/>
<path d="M173.952 122.191H167.529V124.738H173.952V122.191Z" fill="#B1B1B1"/>
<path d="M138.23 100.85H125.652V101.85H138.23V100.85Z" fill="#B1B1B1"/>
<path d="M143.008 94.7807H125.652V95.7801H143.008V94.7807Z" fill="#B1B1B1"/>
<path d="M145.969 106.92H125.652V107.919H145.969V106.92Z" fill="#B1B1B1"/>
<path d="M150.771 112.977H125.652V113.976H150.771V112.977Z" fill="#B1B1B1"/>
<path d="M174.038 100.85H169.614V101.85H174.038V100.85Z" fill="#B1B1B1"/>
<path d="M174.037 94.7806H171.246V95.78H174.037V94.7806Z" fill="#B1B1B1"/>
<path d="M174.038 106.92H170.284V107.919H174.038V106.92Z" fill="#B1B1B1"/>
<path d="M174.038 112.977H170.284V113.976H174.038V112.977Z" fill="#B1B1B1"/>
<path d="M163.093 84.4211H137.462V85.4449H163.093V84.4211Z" fill="#B1B1B1"/>
<path d="M155.999 80.8745H144.555V81.8982H155.999V80.8745Z" fill="#B1B1B1"/>
<path d="M129.272 89.5887H128.675V90.1006H129.272V89.5887Z" fill="#B1B1B1"/>
<path d="M130.906 89.5887H130.308V90.1006H130.906V89.5887Z" fill="#B1B1B1"/>
<path d="M132.551 89.5887H131.953V90.1006H132.551V89.5887Z" fill="#B1B1B1"/>
<path d="M134.185 89.5887H133.588V90.1006H134.185V89.5887Z" fill="#B1B1B1"/>
<path d="M135.83 89.5887H135.233V90.1006H135.83V89.5887Z" fill="#B1B1B1"/>
<path d="M137.464 89.5887H136.867V90.1006H137.464V89.5887Z" fill="#B1B1B1"/>
<path d="M139.109 89.5887H138.512V90.1006H139.109V89.5887Z" fill="#B1B1B1"/>
<path d="M140.741 89.5887H140.144V90.1006H140.741V89.5887Z" fill="#B1B1B1"/>
<path d="M142.386 89.5887H141.789V90.1006H142.386V89.5887Z" fill="#B1B1B1"/>
<path d="M144.019 89.5887H143.422V90.1006H144.019V89.5887Z" fill="#B1B1B1"/>
<path d="M145.653 89.5887H145.056V90.1006H145.653V89.5887Z" fill="#B1B1B1"/>
<path d="M147.298 89.5887H146.701V90.1006H147.298V89.5887Z" fill="#B1B1B1"/>
<path d="M148.932 89.5887H148.335V90.1006H148.932V89.5887Z" fill="#B1B1B1"/>
<path d="M150.578 89.5887H149.981V90.1006H150.578V89.5887Z" fill="#B1B1B1"/>
<path d="M152.21 89.5887H151.613V90.1006H152.21V89.5887Z" fill="#B1B1B1"/>
<path d="M153.856 89.5887H153.259V90.1006H153.856V89.5887Z" fill="#B1B1B1"/>
<path d="M155.489 89.5887H154.892V90.1006H155.489V89.5887Z" fill="#B1B1B1"/>
<path d="M157.134 89.5887H156.537V90.1006H157.134V89.5887Z" fill="#B1B1B1"/>
<path d="M158.766 89.5887H158.169V90.1006H158.766V89.5887Z" fill="#B1B1B1"/>
<path d="M160.412 89.5887H159.815V90.1006H160.412V89.5887Z" fill="#B1B1B1"/>
<path d="M162.045 89.5887H161.448V90.1006H162.045V89.5887Z" fill="#B1B1B1"/>
<path d="M163.691 89.5887H163.094V90.1006H163.691V89.5887Z" fill="#B1B1B1"/>
<path d="M165.325 89.5887H164.728V90.1006H165.325V89.5887Z" fill="#B1B1B1"/>
<path d="M166.969 89.5887H166.372V90.1006H166.969V89.5887Z" fill="#B1B1B1"/>
<path d="M168.603 89.5887H168.006V90.1006H168.603V89.5887Z" fill="#B1B1B1"/>
<path d="M170.248 89.5887H169.651V90.1006H170.248V89.5887Z" fill="#B1B1B1"/>
<path d="M171.881 89.5887H171.284V90.1006H171.881V89.5887Z" fill="#B1B1B1"/>
<path d="M129.272 76.8525H128.675V77.3644H129.272V76.8525Z" fill="#B1B1B1"/>
<path d="M130.906 76.8525H130.308V77.3644H130.906V76.8525Z" fill="#B1B1B1"/>
<path d="M132.551 76.8525H131.953V77.3644H132.551V76.8525Z" fill="#B1B1B1"/>
<path d="M134.185 76.8525H133.588V77.3644H134.185V76.8525Z" fill="#B1B1B1"/>
<path d="M135.83 76.8525H135.233V77.3644H135.83V76.8525Z" fill="#B1B1B1"/>
<path d="M137.464 76.8525H136.867V77.3644H137.464V76.8525Z" fill="#B1B1B1"/>
<path d="M139.109 76.8525H138.512V77.3644H139.109V76.8525Z" fill="#B1B1B1"/>
<path d="M140.741 76.8525H140.144V77.3644H140.741V76.8525Z" fill="#B1B1B1"/>
<path d="M142.386 76.8525H141.789V77.3644H142.386V76.8525Z" fill="#B1B1B1"/>
<path d="M144.019 76.8525H143.422V77.3644H144.019V76.8525Z" fill="#B1B1B1"/>
<path d="M145.653 76.8525H145.056V77.3644H145.653V76.8525Z" fill="#B1B1B1"/>
<path d="M147.298 76.8525H146.701V77.3644H147.298V76.8525Z" fill="#B1B1B1"/>
<path d="M148.932 76.8525H148.335V77.3644H148.932V76.8525Z" fill="#B1B1B1"/>
<path d="M150.578 76.8525H149.981V77.3644H150.578V76.8525Z" fill="#B1B1B1"/>
<path d="M152.21 76.8525H151.613V77.3644H152.21V76.8525Z" fill="#B1B1B1"/>
<path d="M153.856 76.8525H153.259V77.3644H153.856V76.8525Z" fill="#B1B1B1"/>
<path d="M155.489 76.8525H154.892V77.3644H155.489V76.8525Z" fill="#B1B1B1"/>
<path d="M157.134 76.8525H156.537V77.3644H157.134V76.8525Z" fill="#B1B1B1"/>
<path d="M158.766 76.8525H158.169V77.3644H158.766V76.8525Z" fill="#B1B1B1"/>
<path d="M160.412 76.8525H159.815V77.3644H160.412V76.8525Z" fill="#B1B1B1"/>
<path d="M162.045 76.8525H161.448V77.3644H162.045V76.8525Z" fill="#B1B1B1"/>
<path d="M163.691 76.8525H163.094V77.3644H163.691V76.8525Z" fill="#B1B1B1"/>
<path d="M165.325 76.8525H164.728V77.3644H165.325V76.8525Z" fill="#B1B1B1"/>
<path d="M166.969 76.8525H166.372V77.3644H166.969V76.8525Z" fill="#B1B1B1"/>
<path d="M168.603 76.8525H168.006V77.3644H168.603V76.8525Z" fill="#B1B1B1"/>
<path d="M170.248 76.8525H169.651V77.3644H170.248V76.8525Z" fill="#B1B1B1"/>
<path d="M171.881 76.8525H171.284V77.3644H171.881V76.8525Z" fill="#B1B1B1"/>
<path d="M163.734 150.623C171.13 143.226 171.13 131.234 163.734 123.838C156.337 116.442 144.345 116.442 136.949 123.838C129.553 131.234 129.553 143.226 136.949 150.623C144.345 158.019 156.337 158.019 163.734 150.623Z" fill="#454B54"/>
<path fill-rule="evenodd" clip-rule="evenodd" d="M139.716 137.707C139.209 136.887 139.464 135.81 140.284 135.303C141.105 134.796 142.182 135.051 142.688 135.872L146.25 141.639L156.998 128.053C157.595 127.296 158.693 127.167 159.45 127.765C160.206 128.362 160.335 129.461 159.737 130.217L147.486 145.704C147.356 145.883 147.191 146.039 146.991 146.163C146.17 146.67 145.094 146.415 144.587 145.594L139.716 137.707Z" fill="white"/>
<path d="M150.346 157.523C139.157 157.523 130.065 148.419 130.065 137.243C130.065 126.067 139.17 116.962 150.346 116.962C161.522 116.962 170.626 126.067 170.626 137.243C170.626 148.419 161.522 157.523 150.346 157.523ZM150.346 119.644C140.644 119.644 132.759 127.529 132.759 137.231C132.759 146.932 140.644 154.817 150.346 154.817C160.047 154.817 167.933 146.932 167.933 137.231C167.933 127.529 160.047 119.644 150.346 119.644Z" fill="white"/>
<path d="M204.494 193.83H35.4746V195.512H204.494V193.83Z" fill="#ABB1BA"/>
</svg>
