<svg width="248" height="183" viewBox="0 0 248 183" fill="none" xmlns="http://www.w3.org/2000/svg">
<path fill-rule="evenodd" clip-rule="evenodd" d="M123.194 0C152.26 0 164.506 20.7972 185.489 36.9639C213.262 58.3607 241.033 44.4321 245.478 116.727C249.436 181.072 200.051 123.694 130.419 146.742C60.7869 169.792 -10.1308 179.072 10.9129 104.498C31.9579 29.9242 55.6574 0 123.194 0Z" fill="#F4F5F6"/>
<path fill-rule="evenodd" clip-rule="evenodd" d="M40.6204 171.256C59.9575 171.256 75.6347 173.043 75.6347 175.247C75.6347 177.452 59.9575 179.237 40.6204 179.237C21.2834 179.237 5.60498 177.449 5.60498 175.247C5.60498 173.045 21.2822 171.256 40.6204 171.256Z" fill="#F4F5F6"/>
<path fill-rule="evenodd" clip-rule="evenodd" d="M212.985 174.632C232.323 174.632 248 176.42 248 178.623C248 180.827 232.323 182.614 212.985 182.614C193.646 182.614 177.97 180.827 177.97 178.623C177.97 176.42 193.646 174.632 212.985 174.632Z" fill="#F4F5F6"/>
<path fill-rule="evenodd" clip-rule="evenodd" d="M212.831 154.554C212.831 154.554 218.151 158.392 218.988 159.533C220.194 161.182 209.98 164.26 211.094 162.332C211.35 161.892 212.084 160.392 212.118 160.253C212.287 159.464 210.122 157.355 210.122 157.355L212.831 154.555V154.554Z" fill="#F9AF79"/>
<path fill-rule="evenodd" clip-rule="evenodd" d="M208.331 165.56L211.943 160.453C211.943 160.453 214.193 159.933 216.512 157.324C216.512 157.324 218.592 158.114 219.871 159.843C219.871 159.843 217.452 162.441 213.728 165.381C213.728 165.381 211.52 167.33 208.47 168.368C205.417 169.398 208.333 165.559 208.333 165.559L208.331 165.56Z" fill="#0E2952"/>
<path fill-rule="evenodd" clip-rule="evenodd" d="M193.342 39.9224C193.342 39.9224 193.166 40.7423 193.126 41.0223C193.083 41.3526 193.029 42.352 193.029 42.352C193.029 42.352 193.053 45.8407 193.311 45.8299C193.568 45.8204 194.16 45.52 194.236 45.3105C194.314 45.1011 194.246 44.6212 194.322 44.4105C194.4 44.2011 194.689 44.0012 194.963 44.0814C195.237 44.1712 195.264 45.35 195.264 45.35C195.264 45.35 195.282 46.3099 194.957 46.8796C193.828 48.8483 193.533 48.5779 193.397 48.8292C193.235 49.1392 193.709 53.8176 193.709 53.8176C193.709 53.8176 195.567 67.581 195.663 68.3207L195.669 68.3302C195.187 68.6797 194.532 68.6402 193.978 68.73C192.181 69.2805 191.79 68.8496 189.994 69.2805C189.868 67.0807 189.542 51.6477 189.526 50.0679C189.526 50.0679 188.774 48.0692 188.34 46.7994C187.906 45.5296 188.055 44.1604 187.989 43.7906C187.978 43.7307 187.825 42.4812 188.052 40.9122C188.246 39.5526 188.693 40.9529 188.693 40.9529C188.693 40.9529 188.791 43.5512 188.995 43.5213C189.155 43.4914 189.017 42.0719 189.217 40.5723C189.266 40.1833 189.317 39.8028 189.366 39.4533C189.503 38.5329 190.112 38.3737 190.126 39.3635C190.134 39.713 190.13 40.2923 190.065 40.7028C190.001 41.1528 190.085 41.5824 190.085 41.9726C190.087 42.7326 190.077 43.2819 190.112 43.2723C190.152 43.252 190.259 43.4028 190.326 43.0031C190.408 42.5028 190.345 41.4137 190.521 40.704C190.618 40.3042 190.776 39.4449 190.776 39.4449C190.776 39.4449 191.259 38.205 191.342 38.2146C191.794 38.2553 191.711 39.2043 191.505 39.7238C191.548 40.1331 191.359 41.0331 191.359 41.0331C191.359 41.0331 191.385 42.942 191.66 42.9624C191.777 42.9624 191.899 41.7931 192.204 40.6728C192.488 39.634 192.946 38.6335 193.164 38.6741C193.533 38.7244 193.346 39.9236 193.346 39.9236L193.342 39.9224Z" fill="#F9AF79"/>
<path fill-rule="evenodd" clip-rule="evenodd" d="M220.965 115.151L220.126 119.31L198.982 138.542L214.114 153.866L210.031 158.035C210.031 158.035 187.675 141.621 186.87 139.473C185.626 136.164 202.893 114.224 202.893 114.224L220.965 115.152V115.151Z" fill="#17191C"/>
<path fill-rule="evenodd" clip-rule="evenodd" d="M235.783 165.62C235.783 165.62 241.1 169.458 241.937 170.598C243.143 172.247 232.931 175.326 234.044 173.397C234.299 172.956 235.035 171.468 235.068 171.317C235.237 170.527 233.071 168.418 233.071 168.418L235.782 165.619L235.783 165.62Z" fill="#F9AF79"/>
<path fill-rule="evenodd" clip-rule="evenodd" d="M231.276 176.645L234.886 171.537C234.886 171.537 237.286 171.107 239.599 168.509C239.599 168.509 241.535 169.209 242.813 170.928C242.813 170.928 240.397 173.536 236.674 176.464C236.674 176.464 234.465 178.424 231.414 179.454C228.364 180.483 231.276 176.645 231.276 176.645Z" fill="#0E2952"/>
<path fill-rule="evenodd" clip-rule="evenodd" d="M220.241 117.08L219.292 143.33L237.169 165.25L232.98 169.109C232.98 169.109 212.222 151.296 209.946 146.339C208.531 143.249 203.775 115.442 203.775 115.442L220.241 117.08Z" fill="#17191C"/>
<path fill-rule="evenodd" clip-rule="evenodd" d="M203.185 114.932C204.906 111.044 204.709 83.2247 211.401 76.708C213.753 77.0969 215.434 77.3279 215.827 77.4273C216.174 80.2961 216.559 90.8113 216.796 100.448C216.953 106.875 216.789 113.612 217.58 117.161C218.073 119.359 201.616 118.47 203.184 114.932H203.185Z" fill="white"/>
<path fill-rule="evenodd" clip-rule="evenodd" d="M221.302 78.8671C223.111 79.2704 224.457 80.0998 226.748 83.4006C230.432 88.2047 236.792 97.5171 236.804 98.009C236.815 98.6398 234.872 114.257 234.872 114.257L229.806 114.356L228.799 101.212C226.317 98.5644 223.302 94.2486 222.972 93.8094C222.867 93.6694 223.366 103.556 223.366 105.124C223.366 106.692 225.919 119.259 225.919 119.259C225.919 119.259 218.333 121.128 216.852 117.73C212.311 107.335 215.797 77.4165 215.797 77.4165C215.797 77.4165 219.952 78.5559 221.305 78.8659L221.302 78.8671Z" fill="#DE0299"/>
<path fill-rule="evenodd" clip-rule="evenodd" d="M209.848 78.3273C209.848 78.3273 206.772 86.5542 204.535 85.4448C202.299 84.3246 190.099 71.0303 189.973 70.4115C189.85 69.7915 188.98 54.0785 188.98 54.0785L193.947 53.0791L197.28 65.8336C197.28 65.8336 205.998 74.7392 207.861 75.6093C209.726 76.4794 209.848 78.3285 209.848 78.3285V78.3273Z" fill="#DE0299"/>
<path fill-rule="evenodd" clip-rule="evenodd" d="M202.515 116.791C201.009 116.791 200.453 116.581 199.453 116.281C199.453 116.281 202.316 100.138 203.981 84.1247C204.639 77.7971 205.251 75.2084 207.86 75.6679C208.614 75.7972 210.656 76.5775 211.398 76.708C204.841 95.2504 204.82 109.534 203.891 113.673C203.427 115.752 203.021 116.802 202.515 116.791Z" fill="#DE0299"/>
<path fill-rule="evenodd" clip-rule="evenodd" d="M212.089 73.899L211.403 76.708C211.403 76.708 211.247 79.1471 212.379 79.3673C213.744 79.627 215.774 77.5876 215.774 77.5876L216.95 69.6802L212.089 73.899Z" fill="#F7A390"/>
<path fill-rule="evenodd" clip-rule="evenodd" d="M212.089 73.899L211.403 76.708C211.403 76.708 211.247 79.1471 212.379 79.3673C213.744 79.627 215.774 77.5876 215.774 77.5876L216.95 69.6802L212.089 73.899Z" fill="#F9AF79"/>
<path fill-rule="evenodd" clip-rule="evenodd" d="M216.941 69.7101L212.09 73.8978L211.579 75.9971C213.432 75.547 216.073 73.5077 216.941 69.7101Z" fill="#ED7D57"/>
<path fill-rule="evenodd" clip-rule="evenodd" d="M212.075 62.4442C210.903 62.4442 209.848 63.2533 209.436 64.4226C209.095 65.392 208.654 66.8318 208.378 68.481C207.865 71.5198 209.596 74.2988 211.1 74.5286C212.606 74.7488 216.194 73.7482 216.988 69.4409C217.33 67.6014 217.775 65.173 216.259 63.9032C215.079 62.9134 213.423 62.4442 212.076 62.4442H212.075Z" fill="#F9AF79"/>
<path fill-rule="evenodd" clip-rule="evenodd" d="M216.498 72.7297C216.498 72.7297 221.809 67.9915 222.038 64.2933C222.273 60.6047 218.859 58.6252 215.938 58.5151C214.619 58.4744 213.727 58.5354 212.367 58.7054C209.442 59.0752 207.547 60.3642 208.215 62.7638C209.11 65.9821 215.179 63.2629 216.418 64.2634C217.443 65.0928 215.785 67.0724 216.778 67.8216C217.714 68.5409 217.237 68.3015 216.929 69.6503C216.618 70.9991 216.498 72.7297 216.498 72.7297Z" fill="#20386F"/>
<path fill-rule="evenodd" clip-rule="evenodd" d="M218.547 68.4403C218.416 69.32 217.874 69.9795 217.335 69.8993C216.8 69.8191 216.471 69.0399 216.603 68.1507C216.734 67.2603 217.276 66.6104 217.811 66.6906C218.35 66.7708 218.676 67.5499 218.547 68.4403Z" fill="#F9AF79"/>
<path fill-rule="evenodd" clip-rule="evenodd" d="M213.059 68.8437C213.347 68.9322 213.913 67.8635 213.213 67.648C212.839 67.5343 212.587 68.6976 213.059 68.8437Z" fill="#20386F"/>
<path fill-rule="evenodd" clip-rule="evenodd" d="M209.407 67.7965C209.119 67.7079 209.232 66.5027 209.933 66.7169C210.306 66.8306 209.881 67.9437 209.407 67.7965Z" fill="#20386F"/>
<path fill-rule="evenodd" clip-rule="evenodd" d="M213.272 66.5649C212.803 66.4392 212.701 66.8282 213.008 67.0353C213.097 67.0975 214.871 68.0466 214.823 67.9054C214.735 67.6145 214.162 66.8043 213.272 66.5649Z" fill="#20386F"/>
<path fill-rule="evenodd" clip-rule="evenodd" d="M210.701 65.7271C211.169 65.866 211.058 66.2525 210.688 66.2669C210.514 66.2741 208.553 66.1676 208.713 66.0395C208.979 65.8337 209.849 65.4722 210.701 65.7259V65.7271Z" fill="#20386F"/>
<path fill-rule="evenodd" clip-rule="evenodd" d="M209.913 69.9831C210.924 70.4726 210.883 69.9615 210.574 69.9675C209.546 69.9855 210.599 69.5797 210.74 67.8264C210.752 67.6421 210.547 67.6289 210.514 67.7785C210.494 67.8826 210.46 68.2692 210.428 68.3793C210.055 69.7317 209.589 69.8251 209.912 69.9831H209.913Z" fill="#ED7D57"/>
<path fill-rule="evenodd" clip-rule="evenodd" d="M209.509 70.7167C210.423 73.6166 212.339 71.5006 211.94 71.357C209.909 70.6293 209.395 70.3624 209.509 70.7167Z" fill="white"/>
<path fill-rule="evenodd" clip-rule="evenodd" d="M235.028 121.01C235.028 121.01 235.291 120.455 235.287 120.156C235.287 120.156 235.24 119.613 235.229 119.224C235.226 119.101 235.226 118.993 235.234 118.922C235.263 118.634 235.418 118.007 235.297 117.289C235.205 116.752 234.798 115.221 234.598 114.486C234.578 114.438 234.561 114.358 234.545 114.264L230.196 114.348C229.777 115.407 228.716 118.159 228.746 118.704C228.749 118.77 228.754 118.836 228.766 118.897C228.853 119.472 229.158 119.862 229.239 120.157C229.27 120.266 229.64 121.324 229.952 121.44C230.388 121.603 230.755 121.539 231.014 121.349C231.014 121.349 231.88 121.63 232.451 121.405C232.451 121.405 233.243 121.689 233.873 121.207C233.873 121.207 234.708 121.406 235.029 121.008L235.028 121.01Z" fill="#F9AF79"/>
<path fill-rule="evenodd" clip-rule="evenodd" d="M57.2635 68.4559C56.8638 65.7858 56.4497 63.1097 53.9854 60.9458C51.9927 59.1997 49.5117 58.703 47.0917 59.311C40.2387 61.038 41.8975 67.1118 36.653 72.0631C34.4102 74.1731 31.5605 74.9008 29.7258 77.2286C26.4082 81.4211 26.8702 89.4661 32.2703 95.0577C45.4952 108.761 57.8392 91.77 58.7212 87.7403C59.3795 84.7446 57.522 70.1757 57.2635 68.4559Z" fill="#20386F"/>
<path fill-rule="evenodd" clip-rule="evenodd" d="M59.7146 155.453C59.2586 158.991 58.3502 162.134 58.2245 162.509C58.1599 162.687 57.528 163.359 57.461 163.536C58.0211 167.787 60.7439 170.174 63.2739 171.839C62.6408 169.719 61.3435 167.315 61.4727 166.828C61.681 166.056 62.4601 162.518 64.2637 158.03C62.2183 157.906 61.4308 156.659 59.7134 155.453H59.7146Z" fill="#F9AF79"/>
<path fill-rule="evenodd" clip-rule="evenodd" d="M15.3209 123.124C15.79 123.467 19.2991 128.588 20.7544 131.403C22.1368 130.158 22.8896 128.818 24.4957 127.877C22.8728 126.065 19.5744 121.603 19.1962 120.475C18.3021 117.809 17.6451 117.504 17.6451 117.504C17.6451 117.504 9.241 122.02 8.77424 122.995C8.30987 123.961 13.4335 121.693 15.3209 123.123V123.124Z" fill="#F9AF79"/>
<path fill-rule="evenodd" clip-rule="evenodd" d="M19.3853 121.072C20.071 120.968 18.8754 117.848 18.6097 117.134C18.3165 116.324 17.8186 116.142 17.6965 116.129C17.3722 116.106 8.02979 121.13 6.54932 122.635C6.4452 122.735 6.28362 123.038 6.25968 123.1C5.59664 125.019 13.7458 124.071 14.8026 123.106C15.7409 122.263 16.2986 121.561 19.3841 121.072H19.3853Z" fill="#0E2952"/>
<path fill-rule="evenodd" clip-rule="evenodd" d="M53.6849 103.732L40.338 112.968C40.338 112.968 46.206 119.694 48.4081 122.196C50.6091 124.698 61.9418 133.966 62.1082 134.527C62.1453 134.635 61.42 135.859 61.1052 137.436C60.2531 141.697 59.0311 150.015 58.3154 157.166C59.5613 158.686 62.4672 159.246 64.1835 159.825C69.1587 151.344 71.9915 134.554 72.1292 132.515C72.3434 129.205 53.6849 103.733 53.6849 103.733V103.732Z" fill="#17191C"/>
<path fill-rule="evenodd" clip-rule="evenodd" d="M56.2019 106.881L45.4341 101.474C45.476 101.505 45.3371 101.945 45.3264 101.978C44.0087 106.13 38.5739 104.142 35.802 111.335C33.85 116.405 33.4168 133.919 33.4168 133.919C33.4168 133.919 28.5218 129.74 23.3874 125.3C22.9146 124.9 18.6982 128.933 18.6982 128.933C25.1659 141.898 36.2532 147.549 37.7481 147.078C42.8453 145.498 52.7108 112.774 52.7012 112.773C53.8047 110.856 56.2031 106.884 56.2031 106.884L56.2019 106.881Z" fill="#17191C"/>
<path fill-rule="evenodd" clip-rule="evenodd" d="M40.3141 77.5242C40.3141 77.5242 26.9001 73.7698 23.902 73.1139C20.9028 72.47 10.5826 68.2836 10.1888 68.1136C9.79269 67.9305 8.55996 62.2875 7.94839 62.6645C7.33681 63.0403 8.72512 65.5189 7.96873 65.8085C7.21114 66.1101 1.02716 63.0163 0.956546 63.5501C0.827289 64.5399 4.66669 65.5931 4.52547 66.0455C4.38065 66.4955 0.622629 64.5662 0.119964 65.2328C-0.381505 65.9114 3.85166 66.7217 3.90911 67.1143C3.97014 67.496 -0.18283 66.8917 0.00626775 67.7234C0.109195 68.1699 3.71402 68.1687 3.53929 68.6797C3.36455 69.1919 0.596301 69.6348 0.761463 70.1494C0.929018 70.6533 3.03782 69.4588 4.4393 69.861C5.83839 70.2631 7.06992 69.8143 9.09614 71.1404C11.1248 72.4665 17.7216 77.9922 22.5377 79.2141C27.3513 80.4469 37.9898 83.1792 37.9898 83.1792L40.3141 77.5254V77.5242Z" fill="#F9AF79"/>
<path fill-rule="evenodd" clip-rule="evenodd" d="M56.1194 77.2478C56.1194 77.2478 62.2519 64.729 63.7599 62.0685C65.2739 59.3983 69.0175 48.9094 69.148 48.4893C69.2808 48.0812 65.8938 43.4004 66.5808 43.1958C67.2678 42.9923 68.1869 45.6744 68.9134 45.3117C69.6399 44.9479 71.4495 38.272 71.8899 38.5748C72.7157 39.1373 70.9432 42.7039 71.3777 42.8942C71.8133 43.0844 72.8701 39.0021 73.7079 39.0751C74.5421 39.1469 72.3303 42.8463 72.5817 43.1443C72.8306 43.4531 75.1465 39.944 75.636 40.6369C75.9041 41.0163 73.5008 43.7032 74.0011 43.9079C74.5026 44.1233 76.6748 42.3616 76.9405 42.8176C77.2074 43.2759 74.9107 44.0515 74.2812 45.374C73.6552 46.6857 72.4979 47.3068 72.1353 49.7005C71.7726 52.0953 71.5069 60.6909 69.2162 65.0988C66.9255 69.5187 61.8892 79.2704 61.8892 79.2704L56.117 77.2466L56.1194 77.2478Z" fill="#F9AF79"/>
<path fill-rule="evenodd" clip-rule="evenodd" d="M59.0611 93.0351C59.4082 90.6486 60.1502 84.2193 60.1 83.4162C60.9569 80.9675 63.7311 77.4524 64.3295 76.4363C64.3295 76.4363 61.1675 72.1481 58.6171 72.0212C58.6171 72.0212 55.6789 75.413 53.5976 76.3789C53.5689 76.3621 52.8616 76.6506 52.566 76.623C50.6259 76.489 43.8651 75.8247 42.5725 76.1371L42.5701 87.1228C42.8908 87.781 42.5091 100.387 43.19 101.479C43.8722 102.559 54.4701 107.987 56.3587 106.893C56.4317 106.851 58.361 97.8535 59.0599 93.0363L59.0611 93.0351Z" fill="#DE0299"/>
<path fill-rule="evenodd" clip-rule="evenodd" d="M46.0182 76.5392C45.725 76.3561 45.02 76.1419 43.9812 76.0605C40.9113 75.8032 35.7423 75.3352 35.7423 75.3352C35.7423 75.3352 34.0476 81.8352 34.9619 83.488C34.9619 83.488 42.9675 85.2713 42.6922 85.9523L46.017 76.5392H46.0182Z" fill="#DE0299"/>
<path fill-rule="evenodd" clip-rule="evenodd" d="M48.4082 72.3073C48.4082 72.3073 48.8606 76.1443 48.6249 77.6379C48.3831 79.1304 48.7433 83.999 51.7749 84.2145C54.8053 84.4299 52.7551 78.1143 52.566 76.623C52.3745 75.1414 52.6043 70.5958 52.6043 70.5958L48.4082 72.3085V72.3073Z" fill="#F9AF79"/>
<path fill-rule="evenodd" clip-rule="evenodd" d="M52.5229 72.8698C52.5552 71.6251 52.6055 70.5958 52.6055 70.5958L48.4094 72.3085C48.4094 72.3085 48.5015 73.0876 48.5841 74.0882C50.3375 74.586 51.6743 73.9804 52.5229 72.871V72.8698Z" fill="#F27458"/>
<path fill-rule="evenodd" clip-rule="evenodd" d="M47.6111 61.725C47.6111 61.725 45.9846 62.5388 45.2809 64.4717C44.5796 66.3938 44.8979 71.5222 48.8666 73.0158C52.8329 74.5082 54.8531 70.603 54.2248 67.3991C53.5988 64.1964 52.0442 60.0961 47.6111 61.725Z" fill="#F9AF79"/>
<path fill-rule="evenodd" clip-rule="evenodd" d="M54.81 66.2142C54.6784 67.0472 54.1889 67.672 53.7209 67.5858C53.2506 67.5116 52.9837 66.7624 53.1153 65.9294C53.2518 65.0856 53.7401 64.4729 54.2092 64.5471C54.676 64.6213 54.9465 65.3705 54.8088 66.2142H54.81Z" fill="#F9AF79"/>
<path fill-rule="evenodd" clip-rule="evenodd" d="M58.1946 162.616C57.9097 161.953 55.4263 164.244 54.8375 164.714C54.1721 165.247 54.1469 165.8 54.1721 165.917C54.2343 166.241 61.2106 174.327 63.1937 175.375C63.3792 175.481 63.7622 175.46 63.8711 175.416C64.9195 174.918 62.8502 168.096 61.3841 166.808C60.4326 165.986 59.4931 165.567 58.1946 162.616Z" fill="#0E2952"/>
<path fill-rule="evenodd" clip-rule="evenodd" d="M48.1042 61.5035C48.1042 61.5035 46.996 67.1298 45.1744 68.037C43.3517 68.9442 43.9237 71.4994 43.9237 71.4994C43.9237 71.4994 42.7174 65.5608 44.2253 63.7727C45.7357 61.9954 48.1042 61.5035 48.1042 61.5035Z" fill="#20386F"/>
<path fill-rule="evenodd" clip-rule="evenodd" d="M46.1618 68.9131C46.5867 69.6826 46.5304 70.5539 46.0302 70.8639C45.5311 71.1631 44.7783 70.7825 44.3534 70.013C43.9261 69.2422 43.9848 68.3721 44.4851 68.0729C44.9829 67.7737 45.7357 68.1423 46.163 68.9131H46.1618Z" fill="#F9AF79"/>
<path fill-rule="evenodd" clip-rule="evenodd" d="M48.6296 65.8397C48.4249 66.1413 47.5955 66.1604 47.1826 66.3196C46.9744 66.3998 46.4514 66.784 46.2503 66.7624C45.6351 66.6978 47.3849 65.3561 48.4931 65.4914C48.632 65.5081 48.7146 65.7152 48.6296 65.8397Z" fill="#20386F"/>
<path fill-rule="evenodd" clip-rule="evenodd" d="M50.8258 64.887C51.7665 64.285 53.9256 64.7697 53.3966 65.0881C53.2218 65.1934 52.5851 65.0629 52.3649 65.0809C51.9233 65.112 51.1633 65.4447 50.8497 65.2604C50.7229 65.1826 50.6941 64.972 50.8258 64.887Z" fill="#20386F"/>
<path fill-rule="evenodd" clip-rule="evenodd" d="M48.0634 68.1016C47.7547 68.177 47.2305 67.0699 47.9737 66.888C48.371 66.7911 48.5625 67.9795 48.0634 68.1016Z" fill="#20386F"/>
<path fill-rule="evenodd" clip-rule="evenodd" d="M52.6281 67.0341C52.9345 66.9599 52.889 65.7355 52.1446 65.9174C51.7473 66.0144 52.1255 67.1573 52.6281 67.0341Z" fill="#20386F"/>
<path fill-rule="evenodd" clip-rule="evenodd" d="M50.2908 69.5689C50.2297 69.4457 50.4451 69.381 50.5756 69.3152C51.0531 69.0806 51.1369 69.3224 50.3829 67.2567C50.2345 66.8521 50.11 66.6463 50.2549 66.5984C50.3913 66.5577 50.3961 66.7313 50.5636 67.1897C51.3823 69.4337 51.3188 69.15 50.42 69.6084C50.3733 69.6312 50.3147 69.6156 50.2896 69.5677L50.2908 69.5689Z" fill="#ED7D57"/>
<path fill-rule="evenodd" clip-rule="evenodd" d="M50.1041 71.3163C49.9725 71.1069 50.2274 71.144 52.3506 70.7957C52.9645 70.6952 51.289 73.1977 50.1041 71.3163Z" fill="white"/>
<path d="M126 126C150.301 126 170 106.301 170 82C170 57.6994 150.301 38 126 38C101.699 38 82 57.6994 82 82C82 106.301 101.699 126 126 126Z" fill="white"/>
<path d="M153.586 109.594C168.824 94.3572 168.824 69.6508 153.586 54.4127C138.348 39.1747 113.643 39.1747 98.4045 54.4127C83.1661 69.6508 83.1661 94.3572 98.4045 109.594C113.643 124.832 138.348 124.832 153.586 109.594Z" fill="#454B54"/>
<path fill-rule="evenodd" clip-rule="evenodd" d="M102.62 84.3538C101.446 82.4516 102.035 79.9564 103.938 78.7814C105.84 77.6065 108.335 78.1967 109.509 80.0989L117.765 93.4656L142.674 61.9767C144.059 60.2233 146.604 59.9251 148.357 61.31C150.111 62.6949 150.409 65.2402 149.024 66.9929L120.63 102.888C120.329 103.302 119.945 103.665 119.482 103.951C117.58 105.126 115.084 104.535 113.91 102.633L102.62 84.3538Z" fill="white"/>
</svg>
