<svg width="768" height="1024" viewBox="0 0 768 1024" fill="none" xmlns="http://www.w3.org/2000/svg">
<g id="Background Layer 02 Tablet" clip-path="url(#clip0_556_1526)">
<rect width="768" height="1024" fill="white"/>
<rect id="Background layer" width="768" height="1024" fill="white"/>
<path id="Intersect | middle" opacity="0.04" fill-rule="evenodd" clip-rule="evenodd" d="M103.113 316.271L90.9636 320.408L79.0542 324.893L67.4026 329.717L56.026 334.874L44.9403 340.352L34.1598 346.14L23.698 352.227L13.5674 358.601L3.77947 365.25L-5.65457 372.159L-14.7241 379.318L-23.4202 386.712L-31.7342 394.329L-39.6583 402.154L-47.1864 410.175L-54.313 418.377L-61.0336 426.747L-67.3454 435.269L-73.2464 443.93L-78.7356 452.715L-83.8135 461.61L-88.482 470.601L-92.7436 479.673L-96.6021 488.812L-100.063 498.005L-103.131 507.239L-105.813 516.499L-108.118 525.773L-110.054 535.05L-111.629 544.316L-112.852 553.562L-113.734 562.777L-114.285 571.95L-114.513 581.072L-114.428 590.136L-114.04 599.132L-113.358 608.055L-112.393 616.896L-111.155 625.649L-109.656 634.307L-107.909 642.865L-105.926 651.317L-103.722 659.657L-101.31 667.88L-98.7045 675.983L-95.921 683.961L-92.9748 691.812L-89.8815 699.531L-86.6571 707.118L-83.3177 714.569L-79.8795 721.884L-76.3592 729.062L-72.7725 736.102L-69.136 743.006L-65.4657 749.774L-61.7775 756.406L-58.0872 762.906L-54.4101 769.275L-50.7611 775.517L-47.1549 781.634L-43.6052 787.63L-40.1259 793.51L-36.7299 799.277L-33.4294 804.937L-30.2364 810.495L-27.1613 815.957L-24.2147 821.328L-21.4059 826.614L-18.7438 831.822L-16.2359 836.958L-13.8892 842.029L-11.7103 847.041L-9.70406 852.001L-7.87475 856.917L-6.22626 861.794L-4.76097 866.641L-3.48073 871.463L-2.38633 876.267L-1.47783 881.061L-0.754621 885.85L-0.214608 890.642L0.144623 895.441L0.32605 900.255L0.333824 905.089L0.172956 909.949L-0.151116 914.839L-0.632326 919.764L-1.2638 924.73L-2.03857 929.741L-2.94991 934.8L-3.99019 939.912L-5.15215 945.08L-6.42827 950.308L-7.81095 955.599L-9.29216 960.956L-10.8639 966.38L-12.5181 971.876L-14.2461 977.444L-16.04 983.088L-17.8907 988.807L-19.7893 994.604L-21.7268 1000.48L-23.6939 1006.43L-25.6811 1012.47L-27.6787 1018.58L-29.6769 1024.77L-31.6653 1031.04L-33.6339 1037.39L-35.5718 1043.81L-37.4686 1050.31L-39.3133 1056.88L-41.0948 1063.51L-42.8021 1070.22L-44.4236 1076.98L-45.9483 1083.81L-47.3647 1090.69L-48.6613 1097.62L-49.8273 1104.59L-50.8509 1111.6L-51.7215 1118.65L-52.4281 1125.72L-52.9599 1132.82L-53.3065 1139.93L-53.4577 1147.04L-53.4036 1154.16L-53.1343 1161.27L-52.6409 1168.36L-51.9141 1175.43L-50.9456 1182.47L-49.7274 1189.46L-48.2514 1196.41L-46.5108 1203.29L-44.4991 1210.11L-42.2101 1216.85L-39.6383 1223.5L-36.779 1230.05L-33.628 1236.5L-30.1815 1242.84L-26.437 1249.04L-22.3922 1255.11L-18.0456 1261.04L-13.397 1266.82L-8.44593 1272.43L-3.19368 1277.87L2.35835 1283.13L8.2077 1288.2L14.3507 1293.08L20.7837 1297.75L27.5018 1302.21L34.4993 1306.46L41.7701 1310.48L49.3068 1314.27L57.1017 1317.83L65.1464 1321.15L73.4314 1324.23L81.9472 1327.07L90.6831 1329.65L99.6281 1331.99L108.771 1334.08L118.099 1335.92L127.6 1337.51L137.262 1338.85L147.071 1339.94L157.014 1340.79L167.077 1341.41L177.246 1341.78L187.509 1341.93L197.85 1341.86L208.257 1341.57L218.717 1341.07L229.218 1340.37L239.748 1339.47L250.297 1338.38L260.854 1337.1L271.41 1335.65L281.953 1334.02L292.476 1332.23L302.968 1330.28L313.423 1328.17L323.831 1325.93L334.184 1323.54L344.477 1321.03L354.7 1318.4L364.849 1315.66L374.918 1312.81L384.9 1309.87L394.791 1306.84L404.586 1303.73L414.282 1300.56L423.875 1297.33L433.363 1294.05L442.744 1290.73L452.016 1287.38L461.178 1284L470.231 1280.61L479.175 1277.22L488.011 1273.83L496.74 1270.45L505.365 1267.08L513.888 1263.74L522.313 1260.42L530.643 1257.14L538.882 1253.9L547.035 1250.71L555.106 1247.57L563.1 1244.48L571.023 1241.45L578.881 1238.48L586.679 1235.58L594.424 1232.74L602.121 1229.97L609.778 1227.26L617.399 1224.62L624.992 1222.05L632.562 1219.55L640.116 1217.11L647.659 1214.73L655.196 1212.41L662.734 1210.15L670.277 1207.94L677.829 1205.77L685.395 1203.65L692.978 1201.57L700.583 1199.52L708.211 1197.5L715.865 1195.5L723.547 1193.51L731.258 1191.53L738.999 1189.56L746.771 1187.58L754.573 1185.59L762.404 1183.58L770.264 1181.55L778.151 1179.5L786.063 1177.4L793.997 1175.27L801.951 1173.09L809.922 1170.86L817.906 1168.58L825.901 1166.24L833.903 1163.83L841.908 1161.35L849.912 1158.8L857.913 1156.19L865.905 1153.49L873.887 1150.72L881.855 1147.87L889.806 1144.94L897.737 1141.93L905.645 1138.84L913.527 1135.67L921.378 1132.42L929.194 1129.08L936.97 1125.66L944.701 1122.15L952.381 1118.55L960.004 1114.86L967.565 1111.08L975.057 1107.22L982.476 1103.26L989.815 1099.21L997.068 1095.07L1004.23 1090.83L1011.3 1086.51L1018.26 1082.1L1025.12 1077.61L1031.86 1073.02L1038.49 1068.35L1045 1063.6L1051.39 1058.77L1057.64 1053.87L1063.77 1048.88L1069.76 1043.82L1075.62 1038.7L1081.33 1033.5L1086.89 1028.24L1092.31 1022.91L1097.57 1017.52L1102.67 1012.08L1107.61 1006.58L1112.39 1001.02L1117 995.42L1121.45 989.772L1125.74 984.081L1129.86 978.353L1133.82 972.59L1137.62 966.798L1141.27 960.978L1144.76 955.137L1148.11 949.276L1151.33 943.399L1154.41 937.51L1157.36 931.612L1160.2 925.707L1162.92 919.798L1165.55 913.887L1168.08 907.976L1170.52 902.067L1172.89 896.16L1175.19 890.258L1177.43 884.359L1179.62 878.465L1181.76 872.576L1183.88 866.691L1185.96 860.808L1188.03 854.929L1190.08 849.05L1192.13 843.17L1194.18 837.289L1196.24 831.403L1198.3 825.511L1200.38 819.61L1202.48 813.698L1204.6 807.773L1206.74 801.831L1208.9 795.871L1211.09 789.89L1213.31 783.885L1215.55 777.854L1217.81 771.795L1220.1 765.704L1222.4 759.58L1224.72 753.421L1227.05 747.224L1229.39 740.989L1231.74 734.713L1234.08 728.395L1236.41 722.035L1238.73 715.63L1241.04 709.18L1243.31 702.686L1245.56 696.146L1247.76 689.562L1249.91 682.934L1252 676.264L1254.01 669.552L1255.95 662.801L1257.79 656.013L1259.53 649.191L1261.16 642.338L1262.67 635.456L1264.04 628.55L1265.27 621.622L1266.35 614.678L1267.27 607.721L1268.02 600.755L1268.6 593.786L1268.98 586.818L1269.18 579.855L1269.18 572.903L1268.97 565.968L1268.54 559.054L1267.9 552.167L1267.03 545.313L1265.93 538.498L1264.59 531.728L1263.01 525.01L1261.18 518.35L1259.09 511.757L1256.74 505.237L1254.13 498.797L1251.24 492.445L1248.09 486.186L1244.66 480.029L1240.96 473.978L1236.99 468.04L1232.74 462.222L1228.22 456.528L1223.44 450.964L1218.38 445.534L1213.06 440.245L1207.49 435.099L1201.66 430.101L1195.58 425.256L1189.26 420.565L1182.7 416.032L1175.91 411.66L1168.9 407.452L1161.67 403.409L1154.24 399.533L1146.6 395.826L1138.77 392.288L1130.76 388.922L1122.57 385.727L1114.21 382.703L1105.69 379.851L1097.02 377.171L1088.21 374.661L1079.26 372.322L1070.19 370.153L1061 368.151L1051.71 366.317L1042.31 364.647L1032.82 363.141L1023.25 361.795L1013.61 360.609L1003.89 359.579L994.123 358.702L984.301 357.976L974.436 357.397L964.535 356.963L954.607 356.668L944.658 356.51L934.696 356.484L924.728 356.586L914.76 356.812L904.799 357.156L894.851 357.614L884.924 358.181L875.021 358.85L865.151 359.616L855.319 360.471L845.532 361.406L835.797 362.412L826.12 363.477L816.507 364.589L806.965 365.737L797.498 366.908L788.113 368.086L778.811 369.259L769.597 370.412L760.473 371.53L751.44 372.599L742.498 373.605L733.646 374.532L724.882 375.366L716.203 376.095L707.605 376.706L699.083 377.185L690.628 377.521L682.235 377.705L673.894 377.725L665.595 377.575L657.329 377.246L649.083 376.733L640.845 376.031L632.602 375.138L624.342 374.052L616.049 372.773L607.711 371.303L599.312 369.646L590.839 367.805L582.278 365.788L573.614 363.601L564.834 361.253L555.925 358.754L546.874 356.115L537.669 353.35L528.3 350.471L518.755 347.494L509.027 344.434L499.106 341.308L488.987 338.133L478.662 334.928L468.129 331.711L457.383 328.503L446.424 325.322L435.251 322.19L423.866 319.126L412.272 316.151L400.473 313.287L388.476 310.552L376.288 307.967L363.918 305.553L351.377 303.327L338.677 301.311L325.831 299.52L312.855 297.973L299.764 296.686L286.575 295.674L273.306 294.953L259.978 294.535L246.609 294.433L233.22 294.657L219.834 295.218L206.472 296.122L193.155 297.378L179.907 298.99L166.751 300.963L153.708 303.299L140.801 305.999L128.052 309.062L115.482 312.488L103.113 316.271Z" fill="#02DECB"/>
<path id="Intersect | foreground" opacity="0.06" fill-rule="evenodd" clip-rule="evenodd" d="M21.834 614.084L11.8365 620.711L2.20411 627.618L-7.04895 634.793L-15.9094 642.225L-24.3662 649.9L-32.4095 657.805L-40.0314 665.926L-47.2246 674.247L-53.983 682.756L-60.3007 691.436L-66.1728 700.275L-71.5955 709.257L-76.5661 718.367L-81.0823 727.591L-85.1435 736.915L-88.7499 746.324L-91.9029 755.804L-94.6052 765.339L-96.8605 774.917L-98.6736 784.523L-100.05 794.144L-100.999 803.766L-101.526 813.377L-101.641 822.963L-101.355 832.513L-100.679 842.015L-99.623 851.458L-98.2005 860.832L-96.4238 870.126L-94.3064 879.332L-91.8614 888.441L-89.102 897.444L-86.0414 906.335L-82.6928 915.106L-79.0683 923.753L-75.18 932.269L-71.0397 940.649L-66.6601 948.889L-62.0544 956.985L-57.2363 964.933L-52.2199 972.731L-47.0201 980.375L-41.6517 987.863L-36.1304 995.195L-30.4715 1002.37L-24.691 1009.38L-18.8051 1016.24L-12.8295 1022.94L-6.7808 1029.48L-0.674917 1035.87L5.47217 1042.11L11.6442 1048.2L17.826 1054.14L24.0018 1059.94L30.1568 1065.61L36.276 1071.14L42.3454 1076.54L48.3511 1081.82L54.2799 1086.98L60.1193 1092.04L65.8573 1096.99L71.4824 1101.85L76.9841 1106.61L82.3525 1111.3L87.5783 1115.91L92.6536 1120.45L97.5706 1124.94L102.323 1129.38L106.904 1133.77L111.31 1138.13L115.536 1142.46L119.579 1146.77L123.436 1151.08L127.107 1155.37L130.59 1159.67L133.885 1163.98L136.995 1168.31L139.92 1172.67L142.662 1177.05L145.226 1181.47L147.616 1185.93L149.836 1190.44L151.891 1195L153.789 1199.62L155.535 1204.3L157.137 1209.05L158.603 1213.86L159.941 1218.75L161.159 1223.71L162.266 1228.75L163.27 1233.87L164.18 1239.06L165.004 1244.34L165.75 1249.7L166.429 1255.15L167.047 1260.68L167.614 1266.3L168.139 1272L168.631 1277.79L169.097 1283.67L169.549 1289.63L169.993 1295.67L170.441 1301.8L170.9 1308L171.38 1314.28L171.891 1320.64L172.441 1327.07L173.041 1333.58L173.699 1340.14L174.426 1346.77L175.23 1353.46L176.122 1360.19L177.111 1366.98L178.206 1373.8L179.417 1380.66L180.752 1387.55L182.221 1394.46L183.833 1401.38L185.596 1408.31L187.519 1415.24L189.609 1422.16L191.875 1429.06L194.323 1435.93L196.961 1442.77L199.795 1449.56L202.832 1456.3L206.077 1462.97L209.536 1469.57L213.213 1476.08L217.112 1482.5L221.239 1488.82L225.595 1495.02L230.183 1501.09L235.006 1507.03L240.066 1512.83L245.362 1518.46L250.896 1523.94L256.667 1529.23L262.673 1534.34L268.914 1539.26L275.387 1543.97L282.089 1548.47L289.016 1552.74L296.165 1556.79L303.529 1560.6L311.104 1564.16L318.884 1567.47L326.861 1570.52L335.028 1573.31L343.378 1575.83L351.902 1578.08L360.59 1580.05L369.434 1581.73L378.424 1583.14L387.549 1584.26L396.798 1585.1L406.162 1585.65L415.628 1585.92L425.185 1585.91L434.822 1585.61L444.527 1585.04L454.288 1584.2L464.093 1583.09L473.932 1581.71L483.792 1580.09L493.663 1578.21L503.533 1576.1L513.391 1573.76L523.227 1571.19L533.032 1568.41L542.797 1565.43L552.513 1562.26L562.171 1558.89L571.765 1555.35L581.288 1551.64L590.732 1547.76L600.091 1543.74L609.359 1539.56L618.532 1535.25L627.604 1530.82L636.571 1526.26L645.429 1521.6L654.174 1516.83L662.804 1511.97L671.316 1507.04L679.709 1502.03L687.981 1496.96L696.131 1491.84L704.161 1486.67L712.069 1481.47L719.857 1476.25L727.527 1471.01L735.081 1465.77L742.522 1460.53L749.852 1455.3L757.076 1450.09L764.197 1444.9L771.22 1439.75L778.15 1434.63L784.991 1429.56L791.75 1424.54L798.432 1419.57L805.042 1414.66L811.588 1409.82L818.076 1405.04L824.511 1400.33L830.902 1395.69L837.254 1391.12L843.573 1386.63L849.868 1382.21L856.143 1377.87L862.405 1373.6L868.66 1369.4L874.914 1365.28L881.172 1361.22L887.44 1357.22L893.721 1353.29L900.02 1349.41L906.342 1345.59L912.688 1341.82L919.062 1338.09L925.467 1334.4L931.902 1330.74L938.371 1327.11L944.873 1323.5L951.408 1319.9L957.976 1316.31L964.575 1312.72L971.204 1309.13L977.86 1305.53L984.541 1301.91L991.244 1298.27L997.966 1294.61L1004.7 1290.9L1011.45 1287.16L1018.2 1283.38L1024.95 1279.55L1031.7 1275.67L1038.44 1271.72L1045.17 1267.73L1051.88 1263.66L1058.56 1259.54L1065.22 1255.34L1071.84 1251.08L1078.43 1246.74L1084.98 1242.34L1091.48 1237.86L1097.94 1233.31L1104.34 1228.69L1110.7 1224L1116.99 1219.23L1123.22 1214.39L1129.39 1209.48L1135.49 1204.5L1141.51 1199.45L1147.44 1194.32L1153.29 1189.12L1159.04 1183.84L1164.69 1178.5L1170.24 1173.08L1175.67 1167.59L1180.98 1162.04L1186.18 1156.42L1191.24 1150.73L1196.18 1144.99L1200.97 1139.18L1205.63 1133.31L1210.14 1127.39L1214.51 1121.42L1218.73 1115.4L1222.79 1109.33L1226.7 1103.22L1230.45 1097.06L1234.04 1090.87L1237.47 1084.65L1240.73 1078.39L1243.83 1072.11L1246.75 1065.8L1249.5 1059.48L1252.07 1053.13L1254.47 1046.77L1256.69 1040.4L1258.73 1034.02L1260.6 1027.64L1262.3 1021.25L1263.84 1014.87L1265.21 1008.5L1266.42 1002.13L1267.48 995.78L1268.39 989.44L1269.16 983.115L1269.81 976.807L1270.32 970.518L1270.73 964.249L1271.02 958.001L1271.22 951.773L1271.33 945.565L1271.35 939.378L1271.31 933.211L1271.2 927.062L1271.03 920.93L1270.82 914.814L1270.57 908.711L1270.29 902.62L1269.99 896.538L1269.66 890.462L1269.33 884.389L1268.99 878.318L1268.65 872.244L1268.31 866.165L1267.98 860.078L1267.66 853.979L1267.36 847.866L1267.06 841.735L1266.79 835.584L1266.53 829.41L1266.29 823.21L1266.06 816.982L1265.84 810.723L1265.63 804.432L1265.44 798.106L1265.25 791.745L1265.05 785.347L1264.86 778.91L1264.66 772.434L1264.45 765.919L1264.21 759.364L1263.96 752.769L1263.67 746.136L1263.35 739.463L1262.99 732.753L1262.58 726.008L1262.11 719.229L1261.57 712.42L1260.96 705.583L1260.27 698.723L1259.48 691.843L1258.59 684.948L1257.58 678.043L1256.46 671.133L1255.21 664.222L1253.82 657.317L1252.29 650.424L1250.61 643.547L1248.77 636.694L1246.76 629.869L1244.59 623.08L1242.23 616.333L1239.7 609.633L1236.98 602.988L1234.06 596.404L1230.95 589.887L1227.65 583.444L1224.14 577.083L1220.42 570.809L1216.49 564.631L1212.35 558.557L1208 552.593L1203.42 546.748L1198.63 541.031L1193.61 535.45L1188.37 530.01L1182.91 524.72L1177.23 519.587L1171.33 514.616L1165.2 509.813L1158.87 505.185L1152.32 500.735L1145.57 496.468L1138.62 492.389L1131.46 488.502L1124.12 484.808L1116.59 481.312L1108.89 478.016L1101.01 474.922L1092.97 472.031L1084.77 469.344L1076.42 466.862L1067.93 464.587L1059.31 462.517L1050.56 460.652L1041.69 458.992L1032.71 457.536L1023.63 456.282L1014.46 455.23L1005.2 454.377L995.861 453.721L986.455 453.26L976.988 452.991L967.467 452.912L957.9 453.019L948.295 453.31L938.659 453.78L929 454.427L919.324 455.245L909.638 456.232L899.95 457.384L890.265 458.694L880.591 460.16L870.934 461.777L861.299 463.538L851.692 465.44L842.119 467.477L832.584 469.643L823.094 471.933L813.652 474.341L804.264 476.861L794.933 479.487L785.663 482.212L776.458 485.029L767.321 487.932L758.255 490.912L749.264 493.959L740.35 497.061L731.515 500.207L722.76 503.385L714.086 506.581L705.493 509.782L696.98 512.973L688.546 516.14L680.188 519.268L671.902 522.344L663.684 525.353L655.528 528.28L647.428 531.113L639.376 533.839L631.364 536.445L623.382 538.919L615.422 541.251L607.47 543.432L599.518 545.454L591.552 547.308L583.559 548.989L575.527 550.493L567.443 551.816L559.293 552.957L551.063 553.915L542.741 554.694L534.313 555.295L525.767 555.723L517.09 555.986L508.269 556.09L499.296 556.044L490.157 555.858L480.845 555.544L471.351 555.115L461.666 554.583L451.785 553.963L441.702 553.272L431.413 552.524L420.916 551.738L410.209 550.931L399.293 550.121L388.169 549.328L376.841 548.569L365.313 547.865L353.592 547.235L341.686 546.697L329.603 546.272L317.356 545.978L304.956 545.834L292.416 545.858L279.754 546.067L266.984 546.479L254.124 547.11L241.194 547.975L228.213 549.088L215.202 550.463L202.183 552.111L189.178 554.045L176.211 556.274L163.305 558.806L150.484 561.648L137.772 564.807L125.193 568.286L112.772 572.09L100.532 576.219L88.4966 580.674L76.6897 585.454L65.1334 590.555L53.8494 595.975L42.8584 601.708L32.1804 607.747L21.834 614.084Z" fill="#02DECB"/>
</g>
<defs>
<clipPath id="clip0_556_1526">
<rect width="768" height="1024" fill="white"/>
</clipPath>
</defs>
</svg>
