<svg width="112" height="112" viewBox="0 0 112 112" fill="none" xmlns="http://www.w3.org/2000/svg">
<path d="M93.333 14H88.6663V4.66666H79.333V14H32.6663V4.66666H23.333V14H18.6663C13.533 14 9.33301 18.2 9.33301 23.3333V98C9.33301 103.133 13.533 107.333 18.6663 107.333H93.333C98.4663 107.333 102.666 103.133 102.666 98V23.3333C102.666 18.2 98.4663 14 93.333 14ZM93.333 98H18.6663V46.6667H93.333V98ZM93.333 37.3333H18.6663V23.3333H93.333V37.3333Z" fill="#9AE6FE"/>
<path d="M45.472 87C45.472 85.3733 45.5787 83.9466 45.792 82.72C46.0054 81.4666 46.3387 80.36 46.792 79.4C47.272 78.4133 47.8854 77.5466 48.632 76.8C49.3787 76.0533 50.2987 75.3466 51.392 74.68C52.3254 74.1466 53.2854 73.6266 54.272 73.12C55.2854 72.6133 56.2187 72.08 57.072 71.52C57.952 70.96 58.6587 70.32 59.192 69.6C59.752 68.88 60.032 68 60.032 66.96C60.032 66.16 59.8587 65.48 59.512 64.92C59.192 64.3333 58.712 63.88 58.072 63.56C57.4587 63.24 56.712 63.08 55.832 63.08C54.8187 63.08 53.872 63.2666 52.992 63.64C52.1387 63.9866 51.3654 64.4266 50.672 64.96C50.0054 65.4666 49.432 65.9733 48.952 66.48L45.592 62.96C45.9654 62.5333 46.472 62.0533 47.112 61.52C47.7787 60.9866 48.5654 60.4666 49.472 59.96C50.4054 59.4533 51.4587 59.04 52.632 58.72C53.8054 58.4 55.0987 58.24 56.512 58.24C58.592 58.24 60.3387 58.6133 61.752 59.36C63.1654 60.08 64.232 61.08 64.952 62.36C65.6987 63.6133 66.072 65.0666 66.072 66.72C66.072 67.92 65.872 68.9866 65.472 69.92C65.0987 70.8266 64.5787 71.6266 63.912 72.32C63.2454 73.0133 62.4987 73.64 61.672 74.2C60.8454 74.7333 59.992 75.2533 59.112 75.76C57.7254 76.5066 56.6054 77.16 55.752 77.72C54.8987 78.28 54.2187 78.8 53.712 79.28C53.232 79.76 52.8587 80.24 52.592 80.72C52.352 81.1733 52.1387 81.6533 51.952 82.16H66.112V87H45.472Z" fill="#0366DD"/>
</svg>
