<svg width="112" height="112" viewBox="0 0 112 112" fill="none" xmlns="http://www.w3.org/2000/svg">
<path d="M93.333 14H88.6663V4.66666H79.333V14H32.6663V4.66666H23.333V14H18.6663C13.533 14 9.33301 18.2 9.33301 23.3333V98C9.33301 103.133 13.533 107.333 18.6663 107.333H93.333C98.4663 107.333 102.666 103.133 102.666 98V23.3333C102.666 18.2 98.4663 14 93.333 14ZM93.333 98H18.6663V46.6667H93.333V98ZM93.333 37.3333H18.6663V23.3333H93.333V37.3333Z" fill="#9AE6FE"/>
<path d="M55.1808 87.28C53.6608 87.28 52.2741 87.0933 51.0208 86.72C49.7941 86.32 48.7141 85.76 47.7808 85.04C46.8741 84.2933 46.1541 83.4133 45.6208 82.4L48.5008 78.76C48.7674 79.3466 49.1941 79.92 49.7808 80.48C50.3674 81.04 51.1008 81.4933 51.9808 81.84C52.8608 82.1866 53.8608 82.36 54.9808 82.36C56.0741 82.36 57.0208 82.2 57.8208 81.88C58.6208 81.56 59.2341 81.12 59.6608 80.56C60.1141 79.9733 60.3408 79.2666 60.3408 78.44C60.3408 77.56 60.0608 76.8133 59.5008 76.2C58.9674 75.5866 58.1674 75.12 57.1008 74.8C56.0341 74.48 54.7274 74.32 53.1808 74.32H51.8608V70.32H53.2608C55.1808 70.32 56.7141 69.9866 57.8608 69.32C59.0341 68.6533 59.6208 67.7066 59.6208 66.48C59.6208 65.7333 59.4208 65.0933 59.0208 64.56C58.6208 64 58.0874 63.5866 57.4208 63.32C56.7541 63.0266 56.0208 62.88 55.2208 62.88C53.8874 62.88 52.7008 63.2 51.6608 63.84C50.6474 64.4533 49.8741 65.2533 49.3408 66.24L45.8608 62.36C46.4474 61.5066 47.2474 60.7866 48.2608 60.2C49.2741 59.5866 50.4074 59.1066 51.6608 58.76C52.9408 58.4133 54.2608 58.24 55.6208 58.24C57.5141 58.24 59.1941 58.5733 60.6608 59.24C62.1274 59.88 63.2741 60.76 64.1008 61.88C64.9274 63 65.3408 64.28 65.3408 65.72C65.3408 66.7866 65.1141 67.76 64.6608 68.64C64.2341 69.52 63.6208 70.2533 62.8208 70.84C62.0208 71.4266 61.0741 71.8533 59.9808 72.12C61.1541 72.3066 62.1808 72.7466 63.0608 73.44C63.9674 74.1066 64.6608 74.96 65.1408 76C65.6474 77.0133 65.9008 78.12 65.9008 79.32C65.9008 81 65.4208 82.4266 64.4608 83.6C63.5274 84.7733 62.2474 85.68 60.6208 86.32C59.0208 86.96 57.2074 87.28 55.1808 87.28Z" fill="#0366DD"/>
</svg>
