<svg width="112" height="112" viewBox="0 0 112 112" fill="none" xmlns="http://www.w3.org/2000/svg">
<path d="M93.333 14H88.6663V4.66666H79.333V14H32.6663V4.66666H23.333V14H18.6663C13.533 14 9.33301 18.2 9.33301 23.3333V98C9.33301 103.133 13.533 107.333 18.6663 107.333H93.333C98.4663 107.333 102.666 103.133 102.666 98V23.3333C102.666 18.2 98.4663 14 93.333 14ZM93.333 98H18.6663V46.6667H93.333V98ZM93.333 37.3333H18.6663V23.3333H93.333V37.3333Z" fill="#9AE6FE"/>
<path d="M64.9153 82.16V87H48.8353V82.16H54.3553V63.68C54.142 64 53.782 64.36 53.2753 64.76C52.7953 65.1333 52.2353 65.5066 51.5953 65.88C50.982 66.2266 50.342 66.52 49.6753 66.76C49.0353 67 48.4486 67.12 47.9153 67.12V62.16C48.6353 62.16 49.3686 61.9733 50.1153 61.6C50.862 61.2266 51.5553 60.8 52.1953 60.32C52.8353 59.84 53.342 59.4 53.7153 59C54.1153 58.5733 54.3286 58.3466 54.3553 58.32H59.8353V82.16H64.9153Z" fill="#0366DD"/>
</svg>
