<svg width="112" height="112" viewBox="0 0 112 112" fill="none" xmlns="http://www.w3.org/2000/svg">
<path d="M93.333 14H88.6663V4.66666H79.333V14H32.6663V4.66666H23.333V14H18.6663C13.533 14 9.33301 18.2 9.33301 23.3333V98C9.33301 103.133 13.533 107.333 18.6663 107.333H93.333C98.4663 107.333 102.666 103.133 102.666 98V23.3333C102.666 18.2 98.4663 14 93.333 14ZM93.333 98H18.6663V46.6667H93.333V98ZM93.333 37.3333H18.6663V23.3333H93.333V37.3333Z" fill="#9AE6FE"/>
<path d="M58.9705 63.48H46.0905V58.6H67.4505L53.3305 87H47.2505L58.9705 63.48Z" fill="#0366DD"/>
</svg>
