<svg width="112" height="112" viewBox="0 0 112 112" fill="none" xmlns="http://www.w3.org/2000/svg">
<path d="M93.333 14H88.6663V4.66666H79.333V14H32.6663V4.66666H23.333V14H18.6663C13.533 14 9.33301 18.2 9.33301 23.3333V98C9.33301 103.133 13.533 107.333 18.6663 107.333H93.333C98.4663 107.333 102.666 103.133 102.666 98V23.3333C102.666 18.2 98.4663 14 93.333 14ZM93.333 98H18.6663V46.6667H93.333V98ZM93.333 37.3333H18.6663V23.3333H93.333V37.3333Z" fill="#9AE6FE"/>
<path d="M66.5316 77.52C66.5316 79.36 66.0649 81.0266 65.1316 82.52C64.2249 84.0133 62.9849 85.2 61.4116 86.08C59.8649 86.96 58.1049 87.4 56.1316 87.4C53.9982 87.4 52.1449 86.88 50.5716 85.84C49.0249 84.8 47.8249 83.3066 46.9716 81.36C46.1182 79.4133 45.6916 77.08 45.6916 74.36C45.6916 70.92 46.1316 68.0133 47.0116 65.64C47.9182 63.24 49.1982 61.44 50.8516 60.24C52.5049 59.0133 54.4516 58.4 56.6916 58.4C58.4782 58.4 60.1182 58.7866 61.6116 59.56C63.1316 60.3333 64.4116 61.44 65.4516 62.88L62.3716 66.24C61.7316 65.2533 60.9049 64.48 59.8916 63.92C58.8782 63.3333 57.7849 63.04 56.6116 63.04C55.4116 63.04 54.3716 63.36 53.4916 64C52.6116 64.64 51.9316 65.5733 51.4516 66.8C50.9716 68 50.7049 69.4533 50.6516 71.16C51.0249 70.52 51.5049 69.9733 52.0916 69.52C52.6782 69.04 53.3582 68.68 54.1316 68.44C54.9049 68.1733 55.7316 68.04 56.6116 68.04C58.5049 68.04 60.1982 68.4666 61.6916 69.32C63.1849 70.1466 64.3582 71.28 65.2116 72.72C66.0916 74.1333 66.5316 75.7333 66.5316 77.52ZM56.1316 82.88C57.0916 82.88 57.9716 82.64 58.7716 82.16C59.5716 81.6533 60.2116 81 60.6916 80.2C61.1716 79.3733 61.4116 78.48 61.4116 77.52C61.4116 76.56 61.1716 75.6933 60.6916 74.92C60.2116 74.12 59.5716 73.4933 58.7716 73.04C57.9982 72.56 57.1316 72.32 56.1716 72.32C55.2116 72.32 54.3316 72.56 53.5316 73.04C52.7316 73.4933 52.0916 74.12 51.6116 74.92C51.1582 75.6933 50.9316 76.56 50.9316 77.52C50.9316 78.48 51.1716 79.3733 51.6516 80.2C52.1316 81 52.7716 81.6533 53.5716 82.16C54.3716 82.64 55.2249 82.88 56.1316 82.88Z" fill="#0366DD"/>
</svg>
