<svg width="112" height="112" viewBox="0 0 112 112" fill="none" xmlns="http://www.w3.org/2000/svg">
<path d="M93.333 14H88.6663V4.66666H79.333V14H32.6663V4.66666H23.333V14H18.6663C13.533 14 9.33301 18.2 9.33301 23.3333V98C9.33301 103.133 13.533 107.333 18.6663 107.333H93.333C98.4663 107.333 102.666 103.133 102.666 98V23.3333C102.666 18.2 98.4663 14 93.333 14ZM93.333 98H18.6663V46.6667H93.333V98ZM93.333 37.3333H18.6663V23.3333H93.333V37.3333Z" fill="#9AE6FE"/>
<path d="M55.3733 87.4C53.3199 87.4 51.4666 86.96 49.8133 86.08C48.1866 85.1733 46.9333 83.96 46.0533 82.44L49.1333 79.24C49.9066 80.28 50.8399 81.1066 51.9333 81.72C53.0533 82.3333 54.2133 82.64 55.4133 82.64C56.3733 82.64 57.2266 82.44 57.9733 82.04C58.7199 81.64 59.2933 81.08 59.6933 80.36C60.1199 79.64 60.3333 78.8133 60.3333 77.88C60.3333 76.9733 60.1333 76.1733 59.7333 75.48C59.3333 74.76 58.7866 74.2133 58.0933 73.84C57.3999 73.44 56.6133 73.24 55.7333 73.24C54.8799 73.24 54.0666 73.44 53.2933 73.84C52.5199 74.2133 51.9066 74.76 51.4533 75.48H46.7733L50.0533 58.6H64.0533V63.48H53.9333L52.8133 69.84C53.1333 69.4933 53.5999 69.2133 54.2133 69C54.8266 68.76 55.5866 68.64 56.4933 68.64C58.2799 68.64 59.8799 69.04 61.2933 69.84C62.7066 70.6133 63.8133 71.68 64.6133 73.04C65.4399 74.4 65.8533 75.9733 65.8533 77.76C65.8533 79.6533 65.3866 81.3333 64.4533 82.8C63.5466 84.24 62.3066 85.3733 60.7333 86.2C59.1866 87 57.3999 87.4 55.3733 87.4Z" fill="#0366DD"/>
</svg>
