<svg width="240" height="240" viewBox="0 0 240 240" fill="none" xmlns="http://www.w3.org/2000/svg">
<path fill-rule="evenodd" clip-rule="evenodd" d="M56.6703 99.2576L58.0318 96.538C58.9211 94.0822 59.3932 91.4641 59.3932 88.497C59.3932 83.2889 57.7203 78.9511 55.3088 75.6876C52.8952 72.4241 50.7997 71.1549 47.5457 71.1549C44.2918 71.1549 41.8387 72.8773 39.425 76.1409C37.0136 79.4044 35.7002 83.2889 35.7002 88.497C35.7002 90.9065 37.4599 95.4238 38.0636 97.5152L36.7021 97.9585L34.8868 99.2576C29.0753 102.918 26.718 108.078 26.718 115.437C26.718 122.552 30.2072 127.725 35.7002 131.44L36.7021 131.893V135.066C38.2942 144.944 43.014 149.117 49.5871 149.117C53.2756 149.117 55.7401 148.109 58.4856 144.585C61.233 141.057 62.7888 135.761 63.0238 130.08V128.267L64.8391 126.907C68.4407 123.728 69.3773 121.179 69.3773 115.908C69.3773 108.516 65.6859 103.125 59.3932 100.617L56.6703 99.2576ZM62.7125 88.497C62.7125 91.7333 62.1589 94.7929 61.1721 97.5152C68.3653 100.384 73.4618 107.537 73.4618 115.908C73.4618 121.88 70.8677 127.232 66.7678 130.85C66.2624 143.093 58.7634 152.808 49.5871 152.808C41.3483 152.808 34.4612 144.975 32.7746 134.513C26.6554 130.374 22.6336 123.376 22.6336 115.437C22.6336 107.227 26.935 100.023 33.4102 95.946C32.7447 93.637 32.3798 91.1268 32.3798 88.497C32.3798 77.167 39.17 67.9829 47.5457 67.9829C55.9215 67.9829 62.7125 77.167 62.7125 88.497Z" fill="#0366DD"/>
<path fill-rule="evenodd" clip-rule="evenodd" d="M46.5758 116.77C47.6732 116.77 48.5617 117.657 48.5617 118.753V167.616C48.5617 168.712 47.6732 169.599 46.5758 169.599C45.4793 169.599 44.5908 168.712 44.5908 167.616V118.753C44.5908 117.657 45.4793 116.77 46.5758 116.77Z" fill="#0366DD"/>
<path fill-rule="evenodd" clip-rule="evenodd" d="M58.2681 123.058C58.7944 124.018 58.7855 125.571 58.2471 126.525L46.7019 146.993C46.1636 147.948 45.3004 147.942 44.774 146.98C44.2477 146.02 44.2567 144.467 44.795 143.515L56.3403 123.044C56.8783 122.092 57.7415 122.098 58.2681 123.058Z" fill="#0366DD"/>
<path d="M202.709 118.466H151.275V154.728H202.709V118.466Z" fill="white"/>
<path d="M191.363 126.398H185.312C183.641 126.398 182.287 127.265 182.287 128.334V139.949C182.287 141.018 183.641 141.885 185.312 141.885H191.363C193.034 141.885 194.389 141.018 194.389 139.949V128.334C194.389 127.265 193.034 126.398 191.363 126.398Z" fill="white"/>
<path fill-rule="evenodd" clip-rule="evenodd" d="M185.501 127.532C184.963 127.532 184.506 128.113 184.506 128.665V139.241C184.506 139.793 185.045 140.374 185.583 140.374H190.714C191.252 140.374 191.791 139.793 191.791 139.241V128.665C191.791 128.113 191.252 127.532 190.714 127.532H188.149H185.501ZM181.53 127.736C181.53 125.999 183.288 124.51 185.583 124.51H190.714C193.009 124.51 194.767 125.999 194.767 127.736V140.17C194.767 141.907 193.009 143.396 190.714 143.396H185.583C183.288 143.396 181.53 141.907 181.53 140.17V127.736Z" fill="#0366DD"/>
<path d="M151.719 118.432H93.0424V155.939H151.719V118.432Z" fill="white"/>
<path fill-rule="evenodd" clip-rule="evenodd" d="M91.3921 116.784H153.369V157.587H91.3921V116.784ZM94.6926 120.08V154.29H150.068V120.08H94.6926Z" fill="#0366DD"/>
<path d="M135.142 126.405H110.331C109.284 126.405 108.434 127.288 108.434 128.378V139.834C108.434 140.924 109.284 141.807 110.331 141.807H135.142C136.189 141.807 137.039 140.924 137.039 139.834V128.378C137.039 127.288 136.189 126.405 135.142 126.405Z" fill="white"/>
<path d="M219.113 115.378L157.092 83.4726C156.561 83.2012 155.939 83.2012 155.408 83.4726L134.97 93.9861L179.005 115.916C180.323 116.572 180.356 118.24 179.512 119.113H218.274C220.28 119.113 220.915 116.296 219.113 115.368V115.378Z" fill="#0366DD"/>
<path d="M219.113 115.378L157.092 83.4726C156.561 83.2012 155.939 83.2012 155.408 83.4726L134.97 93.9861L179.005 115.916C180.323 116.572 180.356 118.24 179.512 119.113H218.274C220.28 119.113 220.915 116.296 219.113 115.368V115.378Z" fill="white"/>
<path fill-rule="evenodd" clip-rule="evenodd" d="M154.657 82.0051C155.66 81.4926 156.84 81.4926 157.843 82.0051L157.847 82.0072L217.463 112.675V112.665L219.869 113.903C221.55 114.768 222.051 116.528 221.732 117.95C221.411 119.374 220.191 120.761 218.274 120.761H175.625L178.325 117.968C178.351 117.942 178.383 117.894 178.406 117.824C178.429 117.753 178.436 117.68 178.429 117.615C178.422 117.553 178.404 117.511 178.386 117.485C178.372 117.464 178.343 117.428 178.269 117.391L131.319 94.0099L154.653 82.0072L154.657 82.0051ZM218.432 116.882L156.34 84.9399C156.34 84.9397 156.339 84.9395 156.339 84.9394C156.281 84.9099 156.219 84.9099 156.161 84.9394C156.16 84.9396 156.16 84.9397 156.16 84.9399L138.62 93.9623L179.741 114.441C179.741 114.441 179.741 114.441 179.741 114.441C181.077 115.106 181.676 116.282 181.724 117.465H218.274C218.365 117.465 218.392 117.441 218.408 117.427C218.439 117.399 218.487 117.334 218.511 117.228C218.535 117.122 218.522 117.03 218.498 116.972C218.487 116.944 218.47 116.914 218.432 116.882Z" fill="#0366DD"/>
<path d="M179.005 115.921L134.97 93.9862L130.536 91.7759C130.019 91.5194 129.417 91.5194 128.9 91.7759L80.4314 115.921C78.6104 116.829 79.2316 119.676 81.2517 119.676H178.189C178.749 119.676 179.194 119.454 179.517 119.123C180.361 118.25 180.328 116.582 179.009 115.926L179.005 115.921Z" fill="white"/>
<path fill-rule="evenodd" clip-rule="evenodd" d="M128.166 90.2999C129.145 89.8138 130.291 89.8138 131.27 90.2999L131.273 90.3012L135.706 92.5112L179.997 114.573L180.027 114.605C182.247 115.936 182.108 118.815 180.704 120.268L180.699 120.273C180.088 120.9 179.224 121.324 178.189 121.324H81.2517C79.3213 121.324 78.1014 119.922 77.7888 118.49C77.4771 117.063 77.9918 115.295 79.6943 114.446L128.166 90.2999ZM129.634 93.252C129.634 93.2521 129.635 93.2519 129.634 93.252L81.1683 117.396C81.0745 117.443 81.0453 117.49 81.0282 117.53C81.004 117.588 80.99 117.68 81.0135 117.788C81.037 117.895 81.0855 117.961 81.1169 117.989C81.1324 118.003 81.1592 118.027 81.2517 118.027H178.189C178.245 118.027 178.271 118.017 178.281 118.013C178.292 118.008 178.309 117.999 178.331 117.977C178.357 117.95 178.388 117.903 178.411 117.834C178.434 117.763 178.441 117.69 178.434 117.625C178.427 117.563 178.408 117.521 178.391 117.495C178.377 117.474 178.348 117.438 178.273 117.401L178.017 117.274L178.013 117.269L134.233 95.4612L129.802 93.252C129.801 93.2519 129.802 93.2521 129.802 93.252C129.748 93.2255 129.688 93.2256 129.634 93.252Z" fill="#0366DD"/>
<path fill-rule="evenodd" clip-rule="evenodd" d="M164.457 125.551C162.848 125.551 161.446 126.55 161.446 127.882V128.981H171.269V127.882C171.269 126.55 169.867 125.551 168.259 125.551H164.457ZM174.345 128.981V127.882C174.345 125.434 171.629 123.377 168.259 123.377H164.457C161.086 123.377 158.461 125.434 158.461 127.882V131.156V153.972H166.214H174.345V128.981ZM161.536 131.686H171.36V150.664H161.536V131.686Z" fill="#0366DD"/>
<path fill-rule="evenodd" clip-rule="evenodd" d="M169.428 155.861H152.41V152.461H169.428V155.861Z" fill="#0366DD"/>
<path fill-rule="evenodd" clip-rule="evenodd" d="M168.351 159.382H151.453V157.184H168.351V159.382Z" fill="#0366DD"/>
<path fill-rule="evenodd" clip-rule="evenodd" d="M168.514 162.898H151.453V160.7H168.514V162.898Z" fill="#0366DD"/>
<path fill-rule="evenodd" clip-rule="evenodd" d="M168.351 166.414H151.453V164.217H168.351V166.414Z" fill="#0366DD"/>
<path fill-rule="evenodd" clip-rule="evenodd" d="M171.731 169.931H149.199V167.733H171.731V169.931Z" fill="#0366DD"/>
<path fill-rule="evenodd" clip-rule="evenodd" d="M204.221 153.595V119.599H206.491V153.595H204.221Z" fill="#0366DD"/>
<path fill-rule="evenodd" clip-rule="evenodd" d="M205.583 153.595V119.599H207.171V153.595H205.583Z" fill="#0366DD"/>
<path d="M149.572 168.734H95.1891C94.003 168.734 93.0424 167.486 93.0424 165.946V154.571H151.719V165.946C151.719 167.486 150.758 168.734 149.572 168.734Z" fill="white"/>
<path fill-rule="evenodd" clip-rule="evenodd" d="M91.3921 152.923H153.369V165.946C153.369 167.968 152.046 170.382 149.572 170.382H95.1891C92.715 170.382 91.3921 167.968 91.3921 165.946V152.923ZM94.6926 156.219V165.946C94.6926 166.385 94.8312 166.721 94.9791 166.913C95.051 167.006 95.1135 167.052 95.1483 167.071C95.1652 167.08 95.1759 167.083 95.1804 167.084C95.1845 167.086 95.1868 167.086 95.1891 167.086H149.572C149.574 167.086 149.576 167.086 149.58 167.084C149.585 167.083 149.596 167.08 149.613 167.071C149.647 167.052 149.71 167.006 149.782 166.913C149.93 166.721 150.068 166.385 150.068 165.946V156.219H94.6926Z" fill="#0366DD"/>
<path d="M203.601 170.004H170.279C169.214 170.004 168.351 168.422 168.351 166.47V152.422H205.528V166.47C205.528 168.422 204.666 170.004 203.601 170.004Z" fill="white"/>
<path fill-rule="evenodd" clip-rule="evenodd" d="M166.701 150.774H207.179V166.47C207.179 167.667 206.918 168.832 206.413 169.758C205.943 170.62 205.021 171.652 203.601 171.652H170.279C168.859 171.652 167.937 170.62 167.466 169.758C166.962 168.832 166.701 167.667 166.701 166.47V150.774ZM170.002 154.071V166.47C170.002 167.225 170.172 167.827 170.365 168.181C170.409 168.262 170.446 168.318 170.475 168.356H203.405C203.433 168.318 203.471 168.262 203.515 168.181C203.708 167.827 203.878 167.225 203.878 166.47V154.071H170.002ZM203.339 168.425C203.339 168.424 203.345 168.417 203.359 168.409C203.346 168.422 203.34 168.426 203.339 168.425ZM170.54 168.425C170.54 168.426 170.533 168.422 170.52 168.409C170.534 168.417 170.541 168.424 170.54 168.425Z" fill="#0366DD"/>
<path fill-rule="evenodd" clip-rule="evenodd" d="M110.18 128.124C110.127 128.18 110.085 128.266 110.085 128.378V139.834C110.085 139.946 110.127 140.032 110.18 140.088C110.233 140.142 110.285 140.159 110.331 140.159H135.142C135.188 140.159 135.24 140.142 135.293 140.088C135.346 140.032 135.388 139.946 135.388 139.834V128.378C135.388 128.266 135.346 128.18 135.293 128.124C135.24 128.07 135.188 128.053 135.142 128.053H110.331C110.285 128.053 110.233 128.07 110.18 128.124ZM106.784 128.378C106.784 126.442 108.309 124.756 110.331 124.756H135.142C137.164 124.756 138.689 126.442 138.689 128.378V139.834C138.689 141.77 137.164 143.456 135.142 143.456H110.331C108.309 143.456 106.784 141.77 106.784 139.834V128.378Z" fill="#0366DD"/>
<path fill-rule="evenodd" clip-rule="evenodd" d="M116.501 124.756H129.086V143.456H116.501V124.756ZM119.802 128.053V140.159H125.786V128.053H119.802Z" fill="#0366DD"/>
</svg>
