<svg width="125" height="125" viewBox="0 0 125 125" fill="none" xmlns="http://www.w3.org/2000/svg">
<path d="M84.8342 24.8276C83.6407 21.7535 81.8298 18.9473 79.5099 16.5769C77.1978 14.1989 74.4222 12.3043 71.3493 11.0065C68.3871 9.7516 65.2059 9.07463 61.9822 9.01318L61.8325 16.3899C66.5071 16.4848 70.8652 18.3653 74.1034 21.6859C75.7009 23.3145 76.9545 25.2385 77.7917 27.3466C78.6289 29.4547 79.033 31.705 78.9807 33.9673C78.8874 38.5663 76.9794 42.8542 73.6091 46.0406L78.8038 51.3633C81.2183 49.0898 83.1416 46.3599 84.4585 43.337C85.7316 40.4225 86.4174 37.2921 86.4778 34.1195C86.5426 30.9258 85.9894 27.8001 84.8342 24.8276Z" fill="#002C61"/>
<path d="M91.451 86.6061C88.2194 86.6096 85.019 85.9905 82.0334 84.7841C79.0478 83.5777 76.3359 81.8079 74.0535 79.5763L79.2712 74.4881C80.867 76.0531 82.7652 77.2939 84.8558 78.1385C86.9465 78.9831 89.1882 79.4149 91.451 79.4088C93.7139 79.4148 95.9555 78.983 98.0462 78.1384C100.137 77.2937 102.035 76.053 103.631 74.4881C105.235 72.9315 106.508 71.0799 107.374 69.0405C108.24 67.0011 108.683 64.8143 108.677 62.6068C108.677 58.1181 106.885 53.8985 103.631 50.7256C102.035 49.1602 100.137 47.9192 98.0464 47.0743C95.9558 46.2294 93.714 45.7974 91.451 45.8034C86.8495 45.8034 82.5237 47.5512 79.2712 50.7256L74.0535 45.6358C76.3755 43.3619 79.1445 41.569 82.1944 40.3647C85.1341 39.1995 88.2779 38.6022 91.451 38.6061C94.6437 38.6061 97.7592 39.1979 100.708 40.3647C103.758 41.569 106.527 43.3619 108.849 45.6358C111.179 47.9018 113.016 50.6027 114.252 53.5772C115.446 56.4449 116.058 59.5116 116.053 62.6068C116.053 65.7213 115.448 68.7604 114.252 71.635C113.017 74.6099 111.179 77.3109 108.849 79.5763C106.566 81.8077 103.854 83.5773 100.868 84.7836C97.8829 85.99 94.6826 86.6093 91.451 86.6061Z" fill="#002C61"/>
<path d="M62.4465 116C59.2672 116 56.1648 115.408 53.2287 114.24C50.1916 113.035 47.4342 111.241 45.1219 108.965C42.8016 106.698 40.9715 103.995 39.7409 101.018C38.552 98.1487 37.9428 95.0803 37.9473 91.9833C37.9473 88.8651 38.5499 85.8253 39.7409 82.9471C40.9708 79.9701 42.801 77.267 45.1219 75L50.3177 80.0919C48.7199 81.6499 47.4532 83.5032 46.591 85.5443C45.7287 87.5855 45.2881 89.7741 45.2945 91.9833C45.2945 96.4738 47.0772 100.697 50.3177 103.873C51.907 105.439 53.7972 106.681 55.8791 107.526C57.961 108.371 60.1931 108.803 62.4465 108.797C67.0287 108.797 71.3363 107.048 74.5752 103.873C76.1731 102.315 77.4399 100.463 78.3024 98.4216C79.1649 96.3807 79.6059 94.1924 79.6 91.9833C79.6062 89.774 79.1652 87.5854 78.3027 85.5442C77.4402 83.503 76.1733 81.6499 74.5752 80.0919L79.771 75C82.092 77.267 83.9222 79.9701 85.152 82.9471C86.3415 85.8168 86.9512 88.8857 86.9472 91.9833C86.9472 95.1 86.3431 98.1413 85.152 101.018C83.9215 103.995 82.0913 106.698 79.771 108.965C77.4587 111.241 74.7013 113.035 71.6643 114.24C68.7369 115.406 65.6063 116.004 62.4465 116Z" fill="#002C61"/>
<path d="M32.9639 87C29.8097 87.0032 26.6859 86.384 23.7717 85.178C20.8576 83.9719 18.2104 82.2026 15.9822 79.9718C13.7063 77.706 11.9116 75.0044 10.7056 72.0289C9.54005 69.1617 8.94288 66.0955 8.9473 63.0008C8.94211 59.8482 9.561 56.7257 10.7683 53.8131C11.9757 50.9005 13.7476 48.2553 15.9822 46.0298C18.2485 43.7561 20.951 41.9632 23.9277 40.7586C26.7975 39.5935 29.8663 38.9963 32.9639 39C36.0822 39 39.1219 39.5919 42.0002 40.7586C44.9771 41.9635 47.6801 43.7563 49.9473 46.0298L44.8538 51.1195C43.2963 49.554 41.4434 48.3129 39.4024 47.468C37.3615 46.623 35.1731 46.1912 32.9639 46.1973C30.7548 46.1915 28.5665 46.6235 26.5257 47.4684C24.4848 48.3133 22.6318 49.5543 21.0741 51.1195C19.5079 52.6762 18.2663 54.5279 17.421 56.5673C16.5758 58.6067 16.1437 60.7934 16.1498 63.0008C16.1498 67.4879 17.8989 71.7076 21.0741 74.882C22.6321 76.4468 24.4851 77.6874 26.5259 78.532C28.5668 79.3767 30.755 79.8085 32.9639 79.8027C37.4559 79.8027 41.6787 78.0548 44.8538 74.882L49.9473 79.9718C47.719 82.2031 45.0717 83.9726 42.1572 85.1787C39.2427 86.3848 36.1185 87.0038 32.9639 87Z" fill="#002C61"/>
<path d="M52.9179 10.8012C49.9435 12.037 47.2427 13.8748 44.9768 16.2049C42.7039 18.5277 40.9112 21.2965 39.7058 24.3458C38.5406 27.2855 37.9434 30.4293 37.9473 33.6024C37.9473 36.7967 38.5391 39.9106 39.7058 42.8591C40.9112 45.9083 42.7039 48.6771 44.9768 51L50.0664 45.7823C48.5009 44.1868 47.2598 42.2887 46.4149 40.198C45.5701 38.1072 45.1382 35.8655 45.1444 33.6024C45.1444 29.0009 46.8921 24.6767 50.0664 21.4226C51.6231 19.8182 53.4746 18.5463 55.514 17.6804C57.5533 16.8145 59.7399 16.3719 61.9473 16.3782V9C58.8314 9 55.7939 9.60513 52.9179 10.8012Z" fill="#002C61"/>
<rect x="44.0474" y="50.173" width="7.25" height="45" transform="rotate(-45.5217 44.0474 50.173)" fill="#002C61"/>
<rect x="49.9473" y="80.1265" width="7.25" height="41.5382" transform="rotate(-135 49.9473 80.1265)" fill="#002C61"/>
</svg>
