<svg width="24" height="24" viewBox="0 0 24 24" fill="none" xmlns="http://www.w3.org/2000/svg">
<path d="M16.9091 2.00909L7.81818 2C6.81818 2 6 2.81818 6 3.81818V20.1818C6 21.1818 6.81818 22 7.81818 22H16.9091C17.9091 22 18.7273 21.1818 18.7273 20.1818V3.81818C18.7273 2.81818 17.9091 2.00909 16.9091 2.00909ZM16.9091 20.1818H7.81818V3.81818H16.9091V20.1818Z" fill="#002C61"/>
<path d="M8.72727 18.3636C8.72727 17.8616 9.13429 17.4545 9.63636 17.4545H15.0909C15.593 17.4545 16 17.8616 16 18.3636C16 18.8657 15.593 19.2727 15.0909 19.2727H9.63636C9.13429 19.2727 8.72727 18.8657 8.72727 18.3636Z" fill="#002C61"/>
<path d="M13.7273 6.09091C13.7273 6.84402 13.1168 7.45455 12.3636 7.45455C11.6105 7.45455 11 6.84402 11 6.09091C11 5.33779 11.6105 4.72727 12.3636 4.72727C13.1168 4.72727 13.7273 5.33779 13.7273 6.09091Z" fill="#002C61"/>
</svg>
