<svg width="248" height="200" viewBox="0 0 248 200" fill="none" xmlns="http://www.w3.org/2000/svg">
<g clip-path="url(#clip0_2657_12709)">
<path fill-rule="evenodd" clip-rule="evenodd" d="M93.0143 192.853C121.226 199.903 138.239 182.356 162.591 171.496C194.823 157.123 218.344 177.601 240.482 107.355C260.188 44.8356 198.108 89.4634 136.206 49.8351C74.3039 10.2053 7.75914 -16.1519 9.79809 62.5241C11.8382 141.2 27.4632 176.471 93.0143 192.853Z" fill="#CCF3FF"/>
<path d="M188.278 53.5918C188.278 43.6075 180.182 35.5019 170.188 35.5019H74.5289C64.5446 35.5019 56.439 43.5978 56.439 53.5918V77.5987H188.278V53.5918ZM92.5703 50.8609C89.5392 50.8609 87.0794 48.4011 87.0794 45.37C87.0794 42.3389 89.5392 39.8791 92.5703 39.8791C95.6015 39.8791 98.0612 42.3389 98.0612 45.37C98.0612 48.4011 95.6015 50.8609 92.5703 50.8609ZM152.166 50.8609C149.135 50.8609 146.675 48.4011 146.675 45.37C146.675 42.3389 149.135 39.8791 152.166 39.8791C155.197 39.8791 157.657 42.3389 157.657 45.37C157.657 48.4011 155.197 50.8609 152.166 50.8609Z" fill="#02AADE"/>
<path d="M56.4487 148.167C56.4487 158.151 64.5446 166.257 74.5386 166.257H170.198C180.182 166.257 188.288 158.161 188.288 148.167V77.5987H56.4487V148.167Z" fill="white"/>
<path d="M172.096 134.115H152.796V151.237H172.096V134.115Z" fill="#E6E6E6"/>
<path d="M118.659 88.687H99.3589V105.799H118.659V88.687Z" fill="#E6E6E6"/>
<path d="M145.378 88.687H126.077V105.799H145.378V88.687Z" fill="#E6E6E6"/>
<path d="M172.096 88.687H152.796V105.799H172.096V88.687Z" fill="#E6E6E6"/>
<path d="M91.9313 111.396H72.6309V128.508H91.9313V111.396Z" fill="#E6E6E6"/>
<path d="M118.659 111.396H99.3589V128.508H118.659V111.396Z" fill="#1FDE02"/>
<path d="M145.378 111.396H126.077V128.508H145.378V111.396Z" fill="#E6E6E6"/>
<path d="M172.096 111.396H152.796V128.508H172.096V111.396Z" fill="#E6E6E6"/>
<path d="M91.9313 134.115H72.6309V151.237H91.9313V134.115Z" fill="#E6E6E6"/>
<path d="M118.659 134.115H99.3589V151.237H118.659V134.115Z" fill="#E6E6E6"/>
<path d="M145.378 134.115H126.077V151.237H145.378V134.115Z" fill="#E6E6E6"/>
<path d="M172.096 166.295C189.805 166.295 204.16 151.94 204.16 134.231C204.16 116.523 189.805 102.167 172.096 102.167C154.388 102.167 140.032 116.523 140.032 134.231C140.032 151.94 154.388 166.295 172.096 166.295Z" fill="#F7A500"/>
<path d="M172.096 95.1269C150.5 95.1269 132.982 112.636 132.982 134.241C132.982 155.846 150.491 173.345 172.096 173.345C193.701 173.345 211.21 155.836 211.21 134.241C211.21 112.645 193.701 95.1269 172.096 95.1269ZM172.096 166.295C154.393 166.295 140.032 151.943 140.032 134.231C140.032 116.519 154.384 102.167 172.096 102.167C189.808 102.167 204.16 116.519 204.16 134.231C204.16 151.943 189.808 166.295 172.096 166.295Z" fill="#FFD61D"/>
<path d="M138.821 135.451C138.821 153.154 153.173 167.515 170.885 167.515C188.598 167.515 188.317 163.671 194.156 157.512C188.414 162.964 180.647 166.305 172.106 166.305C154.403 166.305 140.041 151.953 140.041 134.241C140.041 116.529 143.383 117.933 148.835 112.19C142.676 118.03 138.831 126.3 138.831 135.461L138.821 135.451Z" fill="#FFCF40"/>
<path d="M172.096 95.1269C160.988 95.1269 150.956 99.7559 143.838 107.193C150.859 100.472 160.388 96.3374 170.876 96.3374C192.471 96.3374 209.99 113.846 209.99 135.451C209.99 157.057 205.855 155.468 199.134 162.489C206.571 155.372 211.2 145.339 211.2 134.231C211.2 112.636 193.692 95.1172 172.086 95.1172L172.096 95.1269Z" fill="#FFCF40"/>
<path d="M175.389 161.192C157.686 161.192 143.325 146.84 143.325 129.128C143.325 111.416 144.622 118.795 146.908 114.389C142.598 119.85 140.022 126.745 140.022 134.241C140.022 151.943 154.374 166.305 172.087 166.305C189.799 166.305 195.222 159.274 200.567 148.99C194.699 156.427 185.596 161.201 175.389 161.201V161.192Z" fill="#F79800"/>
<path d="M92.5705 38.4749C88.7646 38.4749 85.6851 41.5641 85.6851 45.3603C85.6851 49.1565 88.7743 52.2457 92.5705 52.2457C96.3666 52.2457 99.4558 49.1565 99.4558 45.3603C99.4558 41.5641 96.3666 38.4749 92.5705 38.4749ZM92.5705 50.8609C89.5393 50.8609 87.0796 48.4011 87.0796 45.37C87.0796 42.3389 89.5393 39.8791 92.5705 39.8791C95.6016 39.8791 98.0613 42.3389 98.0613 45.37C98.0613 48.4011 95.6016 50.8609 92.5705 50.8609Z" fill="white"/>
<path d="M88.3188 25.905V45.3216C88.3188 47.6651 90.2169 49.5632 92.5605 49.5632C94.904 49.5632 96.8021 47.6651 96.8021 45.3216V25.905C96.8021 23.5614 94.904 21.6633 92.5605 21.6633C90.2169 21.6633 88.3188 23.5614 88.3188 25.905Z" fill="#242424"/>
<path d="M152.166 38.4749C148.36 38.4749 145.281 41.5641 145.281 45.3603C145.281 49.1565 148.37 52.2457 152.166 52.2457C155.962 52.2457 159.052 49.1565 159.052 45.3603C159.052 41.5641 155.962 38.4749 152.166 38.4749ZM152.166 50.8609C149.135 50.8609 146.675 48.4011 146.675 45.37C146.675 42.3389 149.135 39.8791 152.166 39.8791C155.197 39.8791 157.657 42.3389 157.657 45.37C157.657 48.4011 155.197 50.8609 152.166 50.8609Z" fill="white"/>
<path d="M152.166 21.6536H152.157C149.814 21.6536 147.915 23.5527 147.915 25.8953V45.3216C147.915 47.6641 149.814 49.5632 152.157 49.5632H152.166C154.509 49.5632 156.408 47.6641 156.408 45.3216V25.8953C156.408 23.5527 154.509 21.6536 152.166 21.6536Z" fill="#242424"/>
<path d="M88.5707 83.1089H55.451C48.0435 83.1089 42.0386 89.1139 42.0386 96.5214V96.5311C42.0386 103.939 48.0435 109.944 55.451 109.944H88.5707C95.9782 109.944 101.983 103.939 101.983 96.5311V96.5214C101.983 89.1139 95.9782 83.1089 88.5707 83.1089Z" fill="#1B9009"/>
<path d="M66.4908 83.1476H33.4487C26.0465 83.1476 20.0459 89.1483 20.0459 96.5504V96.5795C20.0459 103.982 26.0465 109.982 33.4487 109.982H66.4908C73.893 109.982 79.8936 103.982 79.8936 96.5795V96.5504C79.8936 89.1483 73.893 83.1476 66.4908 83.1476Z" fill="#1B9009"/>
<path d="M83.7189 108.413H38.252C28.9553 108.413 21.2758 103.145 20.0072 96.3083C19.891 96.9572 19.8232 97.6157 19.8232 98.2936C19.8232 106.07 28.074 112.384 38.2423 112.384H83.7092C93.8872 112.384 102.128 106.08 102.128 98.2936C102.128 97.6157 102.061 96.9572 101.944 96.3083C100.685 103.145 92.9962 108.413 83.6995 108.413H83.7189Z" fill="#126006"/>
<path d="M81.9819 92.243L84.1511 96.3831L86.3576 92.243H88.2045L85.0064 97.9698V101.044H83.3082V97.945L80.1226 92.243H81.9819Z" fill="white"/>
<path d="M75.9864 92.243H77.7218L80.9571 101.044H79.1969L78.3788 98.8499H75.3047L74.499 101.044H72.7388L75.9864 92.243ZM78.0689 97.6475L76.8541 94.0156L75.5898 97.6475H78.0689Z" fill="white"/>
<path d="M66.5122 101.044V92.243H70.2433C70.6482 92.243 71.0201 92.3256 71.3589 92.4909C71.6977 92.6562 71.9911 92.8793 72.239 93.1603C72.4952 93.4412 72.6935 93.7552 72.834 94.1023C72.9745 94.4494 73.0447 94.8047 73.0447 95.1684C73.0447 95.6642 72.929 96.1352 72.6976 96.5815C72.4662 97.0277 72.1481 97.3913 71.7432 97.6723C71.3382 97.9532 70.8589 98.0937 70.3053 98.0937H68.2228V101.044H66.5122ZM68.2228 96.5939H70.2061C70.4127 96.5939 70.5986 96.536 70.7639 96.4203C70.9292 96.3046 71.0614 96.1393 71.1606 95.9245C71.2597 95.7014 71.3093 95.4493 71.3093 95.1684C71.3093 94.8626 71.2515 94.6023 71.1358 94.3874C71.0284 94.1726 70.8837 94.0114 70.7019 93.904C70.5284 93.7966 70.3383 93.7429 70.1317 93.7429H68.2228V96.5939Z" fill="white"/>
<path d="M60.8988 101.106C60.2542 101.106 59.6675 100.982 59.1386 100.734C58.618 100.486 58.1676 100.151 57.7874 99.7299C57.4156 99.3002 57.1263 98.8209 56.9198 98.292C56.7132 97.7549 56.6099 97.2053 56.6099 96.6434C56.6099 96.0567 56.7173 95.4989 56.9322 94.97C57.1553 94.4328 57.4569 93.9577 57.837 93.5445C58.2254 93.123 58.6799 92.7925 59.2006 92.5528C59.7294 92.3049 60.3079 92.181 60.9359 92.181C61.5723 92.181 62.1507 92.3091 62.6713 92.5652C63.2002 92.8214 63.6506 93.1644 64.0225 93.5941C64.3943 94.0238 64.6836 94.5031 64.8902 95.032C65.0967 95.5608 65.2 96.1063 65.2 96.6682C65.2 97.2467 65.0926 97.8045 64.8778 98.3416C64.6629 98.8705 64.3613 99.3457 63.9729 99.7671C63.5927 100.18 63.1382 100.507 62.6094 100.746C62.0887 100.986 61.5185 101.106 60.8988 101.106ZM58.3453 96.6434C58.3453 97.0235 58.4031 97.3913 58.5188 97.7466C58.6345 98.102 58.7998 98.4201 59.0146 98.7011C59.2377 98.9738 59.5063 99.1928 59.8203 99.358C60.1426 99.5151 60.5062 99.5936 60.9112 99.5936C61.3243 99.5936 61.6921 99.5109 62.0144 99.3457C62.3367 99.1721 62.6052 98.9449 62.8201 98.6639C63.0349 98.3747 63.1961 98.0565 63.3035 97.7094C63.4192 97.3541 63.4771 96.9987 63.4771 96.6434C63.4771 96.2633 63.4151 95.8997 63.2911 95.5526C63.1754 95.1972 63.006 94.8832 62.7829 94.6105C62.568 94.3295 62.2995 94.1106 61.9772 93.9535C61.6632 93.7883 61.3078 93.7056 60.9112 93.7056C60.4897 93.7056 60.1178 93.7924 59.7955 93.9659C59.4815 94.1312 59.2171 94.3543 59.0022 94.6353C58.7874 94.9163 58.6221 95.2303 58.5064 95.5774C58.399 95.9245 58.3453 96.2798 58.3453 96.6434Z" fill="white"/>
<path d="M56.2565 93.7429H53.4427V101.044H51.7445V93.7429H48.9307V92.243H56.2565V93.7429Z" fill="white"/>
<path d="M44.1085 101.106C43.406 101.106 42.8069 100.99 42.3111 100.759C41.8235 100.519 41.4269 100.193 41.1211 99.7795C40.8236 99.3663 40.6046 98.8994 40.4641 98.3788C40.3237 97.8499 40.2534 97.3004 40.2534 96.7302V92.243H41.964V96.7302C41.964 97.0938 41.9971 97.4492 42.0632 97.7962C42.1376 98.135 42.2574 98.4408 42.4227 98.7135C42.5879 98.9862 42.8069 99.2011 43.0796 99.3581C43.3523 99.5151 43.6911 99.5936 44.0961 99.5936C44.5093 99.5936 44.8522 99.5151 45.1249 99.3581C45.4059 99.1928 45.6249 98.9738 45.7819 98.7011C45.9471 98.4284 46.067 98.1226 46.1413 97.7838C46.2157 97.4368 46.2529 97.0855 46.2529 96.7302V92.243H47.9511V96.7302C47.9511 97.3335 47.8767 97.8995 47.728 98.4284C47.5875 98.9573 47.3603 99.4242 47.0462 99.8291C46.7405 100.226 46.3438 100.54 45.8562 100.771C45.3687 100.994 44.7861 101.106 44.1085 101.106Z" fill="white"/>
<path d="M34.7926 92.243H36.528L39.7632 101.044H38.0031L37.1849 98.8499H34.1108L33.3051 101.044H31.5449L34.7926 92.243ZM36.875 97.6475L35.6603 94.0156L34.3959 97.6475H36.875Z" fill="white"/>
<path d="M173.549 113.633V115.977C175.098 116.132 176.425 116.451 177.539 116.935C178.643 117.41 179.611 118.136 180.444 119.105C181.093 119.841 181.596 120.606 181.955 121.39C182.313 122.175 182.487 122.891 182.487 123.54C182.487 124.189 182.226 124.896 181.693 125.419C181.161 125.951 180.521 126.213 179.766 126.213C178.343 126.213 177.423 125.448 177.006 123.908C176.532 122.097 175.379 120.896 173.549 120.296V129.341C175.34 129.835 176.774 130.28 177.839 130.687C178.904 131.094 179.853 131.675 180.696 132.449C181.596 133.243 182.284 134.202 182.768 135.306C183.252 136.41 183.494 137.63 183.494 138.947C183.494 140.264 183.107 142.143 182.332 143.586C181.558 145.029 180.415 146.201 178.914 147.121C177.403 148.031 175.621 148.573 173.549 148.748V154.161C173.549 155.013 173.462 155.643 173.297 156.03C173.132 156.418 172.764 156.621 172.203 156.621C171.641 156.621 171.312 156.466 171.108 156.146C170.895 155.827 170.789 155.333 170.789 154.665V148.796C169.094 148.612 167.613 148.205 166.344 147.605C165.075 146.995 164.02 146.24 163.168 145.329C162.315 144.429 161.696 143.48 161.289 142.501C160.882 141.523 160.679 140.565 160.679 139.625C160.679 138.686 160.95 138.299 161.492 137.747C162.034 137.185 162.712 136.914 163.526 136.914C164.339 136.914 164.727 137.069 165.182 137.369C165.627 137.669 165.947 138.105 166.111 138.647C166.499 139.838 166.847 140.749 167.128 141.378C167.419 142.008 167.855 142.589 168.445 143.102C169.036 143.625 169.811 144.022 170.779 144.293V134.183C168.842 133.65 167.215 133.05 165.908 132.391C164.601 131.733 163.545 130.793 162.732 129.573C161.918 128.353 161.512 126.794 161.512 124.876C161.512 122.959 162.306 120.344 163.894 118.746C165.482 117.148 167.777 116.229 170.77 115.967V113.662C170.77 112.442 171.225 111.832 172.135 111.832C173.045 111.832 173.53 112.423 173.53 113.614L173.549 113.633ZM170.789 128.537V120.209C169.569 120.567 168.62 121.051 167.942 121.642C167.264 122.233 166.925 123.133 166.925 124.334C166.925 125.535 167.245 126.348 167.884 126.929C168.523 127.52 169.491 128.053 170.799 128.527L170.789 128.537ZM173.549 134.996V144.516C175.011 144.225 176.144 143.644 176.938 142.753C177.732 141.872 178.129 140.845 178.129 139.664C178.129 138.483 177.742 137.427 176.967 136.739C176.193 136.052 175.05 135.471 173.549 134.987V134.996Z" fill="white"/>
</g>
<defs>
<clipPath id="clip0_2657_12709">
<rect width="248" height="200" fill="white"/>
</clipPath>
</defs>
</svg>
