<svg width="248" height="248" viewBox="0 0 248 248" fill="none" xmlns="http://www.w3.org/2000/svg">
<path fill-rule="evenodd" clip-rule="evenodd" d="M120.967 84.8727C148.26 84.8727 159.759 103.846 179.462 118.596C205.541 138.117 231.618 125.409 235.792 191.366C239.508 250.069 193.135 197.722 127.752 218.749C62.3669 239.778 -4.22463 248.245 15.5354 180.209C35.2965 112.173 57.5503 84.8727 120.967 84.8727Z" fill="#E6F1FF"/>
<path d="M131.877 171C131.877 173.785 129.854 176.058 127.366 176.058H78.4958C76.0201 176.058 73.9849 173.785 73.9849 171V170C73.9849 167.215 76.0082 164.942 78.4958 164.942H127.366C129.842 164.942 131.877 167.215 131.877 170V171Z" fill="#E6F1FF"/>
<path d="M135.409 31H86.8606C80.3846 31 75.1348 36.2498 75.1348 42.7258V164.959C75.1348 171.435 80.3846 176.684 86.8606 176.684H135.409C141.885 176.684 147.135 171.435 147.135 164.959V42.7258C147.135 36.2498 141.885 31 135.409 31Z" fill="#0F506E"/>
<path d="M86.8478 34.1338H135.435C140.149 34.1338 143.975 37.9597 143.975 42.6735V164.985C143.975 169.699 140.149 173.524 135.435 173.524H86.8478C82.134 173.524 78.3081 169.699 78.3081 164.985V42.6866C78.3081 37.9727 82.134 34.1468 86.8478 34.1468V34.1338Z" fill="#F3F6FF"/>
<path d="M135.435 34.1338H86.8478C82.134 34.1338 78.3081 37.9597 78.3081 42.6735V48.2883H143.975V42.6735C143.975 37.9597 140.149 34.1338 135.435 34.1338Z" fill="#02AADE"/>
<path d="M135.435 173.538H86.8478C82.134 173.538 78.3081 169.712 78.3081 164.998V159.383H143.975V164.998C143.975 169.712 140.149 173.538 135.435 173.538Z" fill="#02AADE"/>
<path d="M127.43 42.8172H94.8382C93.9502 42.8172 93.2451 42.099 93.2451 41.2241C93.2451 40.3493 93.9633 39.6311 94.8382 39.6311H127.43C128.318 39.6311 129.023 40.3493 129.023 41.2241C129.023 42.099 128.305 42.8172 127.43 42.8172Z" fill="#81BAFD"/>
<path d="M187.08 91.8572L187.017 151.337C187.017 154.624 183.694 157.301 179.634 157.301L33.3681 157.212C30.8285 157.212 28.571 156.159 27.2542 154.56C26.4703 153.608 26 152.467 26 151.236L26.0627 91.7557C26.0627 88.4696 29.3862 85.7925 33.4465 85.7925L179.712 85.8813C181.499 85.8813 183.145 86.4015 184.415 87.2643C186.045 88.3681 187.08 90.0175 187.08 91.8572Z" fill="#4C92E6"/>
<g opacity="0.75">
<path d="M33.7419 94.9022H71.7427V96.6024H33.7419V94.9022Z" fill="#F5F9FF"/>
<path d="M33.742 98.7721H60.8003V100.142H33.742V98.7721Z" fill="#F5F9FF"/>
<path d="M33.7419 98.7086H71.7427V100.409H33.7419V98.7086Z" fill="#F5F9FF"/>
<path d="M33.742 102.578H60.8003V103.949H33.742V102.578Z" fill="#F5F9FF"/>
<path d="M33.7432 119.009H154.877V120.709H33.7432V119.009Z" fill="#F5F9FF"/>
<path d="M33.737 125.76H154.901V127.069H33.737V125.76Z" fill="#F5F9FF"/>
<path d="M38.7079 140.945V147.738H37.9711V142.197L37.4974 142.784L37.0669 142.197L38.0668 140.945H38.7127H38.7079Z" fill="#F5F9FF"/>
<path d="M41.5409 147.28C41.5409 146.329 41.7514 145.546 42.1772 144.934C42.3351 144.705 42.7274 144.309 43.3541 143.75C43.7751 143.372 43.9904 142.995 43.9904 142.622C43.9904 141.944 43.7034 141.61 43.1388 141.61C42.6174 141.61 42.2155 141.886 41.9284 142.441L41.4644 141.868C41.67 141.447 41.9571 141.142 42.3255 140.946C42.5935 140.807 42.8613 140.74 43.1341 140.74C43.5886 140.74 43.9665 140.907 44.2632 141.237C44.5742 141.581 44.727 142.045 44.727 142.627C44.727 143.21 44.5167 143.721 44.0957 144.165C43.7034 144.528 43.3111 144.887 42.9188 145.245C42.4978 145.703 42.2872 146.248 42.2872 146.878H44.6842V147.738H41.5553C41.5457 147.581 41.5409 147.428 41.5409 147.28Z" fill="#F5F9FF"/>
<path d="M48.5888 147.079C48.909 147.079 49.1771 146.941 49.4021 146.668C49.603 146.42 49.7034 146.162 49.7034 145.89C49.7034 145.479 49.603 145.154 49.4021 144.92C49.2008 144.691 48.9184 144.571 48.5598 144.571H48.1292V143.702H48.5362C48.7849 143.702 48.9904 143.602 49.1529 143.401C49.3159 143.2 49.4021 142.947 49.4021 142.641C49.4021 142.336 49.3254 142.073 49.1771 141.877C49.0241 141.681 48.8327 141.586 48.5935 141.586C48.4452 141.586 48.2633 141.629 48.0525 141.71C47.8564 141.786 47.7081 141.868 47.5982 141.949V141.089C47.9331 140.855 48.268 140.74 48.6077 140.74C49.0194 140.74 49.3685 140.917 49.6603 141.265C49.9616 141.624 50.1098 142.073 50.1098 142.603C50.1098 143.229 49.9232 143.726 49.5457 144.093C50.134 144.438 50.4258 145.054 50.4258 145.928C50.4258 146.401 50.2681 146.84 49.9616 147.246C49.603 147.715 49.1434 147.949 48.5888 147.949C48.0335 147.949 47.574 147.762 47.1387 147.394V146.501C47.6318 146.893 48.115 147.089 48.5888 147.089V147.079Z" fill="#F5F9FF"/>
<path d="M56.4958 145.732H55.5294V147.738H54.8017V145.732H52.563V144.867L54.8017 140.945H55.5294V144.867H56.4958V145.732ZM54.8017 144.867V142.383L53.3953 144.867H54.8017Z" fill="#F5F9FF"/>
<path d="M61.5103 140.945V141.772H59.4383V143.501H59.8357C60.4193 143.501 60.8978 143.716 61.2611 144.146C61.6155 144.556 61.7874 145.063 61.7874 145.67C61.7874 146.362 61.5866 146.926 61.1849 147.356C60.8163 147.752 60.3715 147.948 59.8547 147.948C59.3809 147.948 58.9456 147.848 58.5581 147.652V146.72C58.9456 146.94 59.3478 147.055 59.7637 147.055C60.0892 147.055 60.381 146.94 60.6297 146.711C60.9167 146.448 61.0603 146.1 61.0603 145.665C61.0603 145.307 60.9504 145.006 60.7401 144.767C60.5056 144.504 60.1943 144.37 59.8021 144.37H58.7064V140.955H61.5056L61.5103 140.945Z" fill="#F5F9FF"/>
<path d="M67.7897 145.819C67.7897 146.407 67.6273 146.909 67.3018 147.324C66.9769 147.74 66.5989 147.945 66.1682 147.945C65.4984 147.945 64.9958 147.534 64.6656 146.718C64.4122 146.092 64.2881 145.332 64.2881 144.434C64.2881 143.44 64.4747 142.6 64.8475 141.917C65.2781 141.133 65.8812 140.746 66.6467 140.746C66.8476 140.746 67.0868 140.809 67.3597 140.937V141.802C67.1057 141.673 66.8665 141.611 66.6372 141.611C66.1157 141.611 65.7087 141.926 65.4027 142.562C65.1493 143.092 65.0247 143.703 65.0247 144.382C65.3691 143.923 65.766 143.699 66.2208 143.699C66.6751 143.699 67.0247 143.894 67.326 144.291C67.632 144.697 67.785 145.208 67.785 145.824L67.7897 145.819ZM67.0915 145.81C67.0915 145.428 67.0147 145.122 66.857 144.898C66.6993 144.668 66.4884 144.558 66.2161 144.558C65.9816 144.558 65.7518 144.644 65.5415 144.821C65.3454 144.974 65.1971 145.165 65.0962 145.389C65.1109 145.819 65.2019 146.192 65.3785 146.517C65.5846 146.894 65.8523 147.08 66.1872 147.08C66.4311 147.08 66.642 146.956 66.8234 146.718C67.0053 146.474 67.0962 146.173 67.0962 145.81H67.0915Z" fill="#F5F9FF"/>
<path d="M70.4901 145.134C70.7009 144.595 71.0211 143.988 71.4517 143.324C71.7967 142.808 72.1363 142.288 72.4807 141.772H70.0264V140.945H73.3798V141.772C73.0164 142.297 72.6573 142.827 72.294 143.357C71.8298 144.046 71.4854 144.652 71.2604 145.182C70.9544 145.909 70.8014 146.62 70.8014 147.318C70.8014 147.475 70.8108 147.619 70.825 147.738H70.0884C70.0695 147.58 70.0642 147.437 70.0642 147.318C70.0642 146.592 70.203 145.861 70.4854 145.134H70.4901Z" fill="#F5F9FF"/>
<path d="M76.1512 141.142C76.4236 140.874 76.7874 140.74 77.2369 140.74C77.687 140.74 78.055 140.874 78.3279 141.142C78.6292 141.438 78.7775 141.868 78.7775 142.431C78.7775 142.995 78.4809 143.558 77.8926 144.036C78.2464 144.337 78.4951 144.591 78.6339 144.805C78.8637 145.149 78.9788 145.555 78.9788 146.018C78.9788 146.511 78.84 146.941 78.5577 147.304C78.2322 147.729 77.7969 147.944 77.2417 147.944C76.687 147.944 76.2516 147.738 75.9262 147.323C75.6486 146.964 75.5098 146.53 75.5098 146.018C75.5098 145.551 75.6249 145.144 75.8494 144.801C75.9882 144.591 76.2374 144.337 76.5913 144.036C75.9982 143.558 75.7059 143.024 75.7059 142.431C75.7059 141.839 75.8547 141.433 76.1559 141.142H76.1512ZM76.4525 146.745C76.6486 147.017 76.912 147.155 77.2369 147.155C77.5624 147.155 77.8305 147.022 78.0266 146.759C78.1891 146.539 78.2706 146.291 78.2706 146.018C78.2706 145.479 77.9262 144.968 77.2417 144.495C76.5576 144.968 76.2133 145.479 76.2133 146.018C76.2133 146.277 76.2947 146.52 76.4572 146.745H76.4525ZM76.7154 143.119C76.8736 143.31 77.0503 143.468 77.2417 143.592C77.4331 143.468 77.6102 143.31 77.768 143.119C77.9788 142.871 78.084 142.646 78.084 142.436C78.084 142.145 77.9977 141.92 77.8258 141.758C77.6723 141.615 77.4762 141.547 77.2417 141.547C77.0077 141.547 76.8163 141.619 76.6628 141.758C76.4909 141.915 76.4046 142.145 76.4046 142.436C76.4046 142.646 76.5098 142.875 76.7154 143.119Z" fill="#F5F9FF"/>
<path d="M81.2075 142.857C81.2075 142.269 81.3658 141.767 81.6812 141.356C81.9972 140.946 82.37 140.74 82.8059 140.74C83.4852 140.74 83.9873 141.156 84.3127 141.987C84.5567 142.608 84.6761 143.372 84.6761 144.284C84.6761 145.412 84.5041 146.286 84.155 146.907C83.7675 147.59 83.1786 147.934 82.3942 147.934C82.0498 147.934 81.7338 147.844 81.442 147.662V146.783C81.7675 146.974 82.0882 147.069 82.4037 147.069C83.4326 147.069 83.9442 146.157 83.9442 144.332C83.5998 144.791 83.2028 145.016 82.7528 145.016C82.3032 145.016 81.9541 144.81 81.6576 144.399C81.361 143.988 81.2122 143.472 81.2122 142.851L81.2075 142.857ZM81.8921 142.866C81.8921 143.248 81.973 143.558 82.136 143.807C82.2985 144.05 82.5088 144.175 82.7628 144.175C83.0162 144.175 83.2312 144.089 83.4421 143.917C83.6476 143.759 83.7912 143.563 83.8774 143.324C83.8632 142.89 83.7722 142.508 83.5998 142.178C83.3989 141.786 83.1261 141.59 82.7959 141.59C82.5472 141.59 82.3369 141.71 82.1597 141.939C81.9778 142.183 81.8868 142.493 81.8868 142.866H81.8921Z" fill="#F5F9FF"/>
</g>
<path opacity="0.75" d="M160.931 122.211V120.872C160.262 120.788 159.716 120.639 159.295 120.426C158.878 120.208 158.516 119.858 158.209 119.377C157.906 118.896 157.73 118.309 157.681 117.614L159.027 117.361C159.131 118.08 159.315 118.609 159.578 118.946C159.954 119.422 160.406 119.687 160.931 119.742V115.479C160.381 115.375 159.818 115.162 159.243 114.84C158.816 114.602 158.487 114.272 158.253 113.85C158.025 113.429 157.911 112.95 157.911 112.415C157.911 111.462 158.248 110.691 158.923 110.101C159.374 109.704 160.044 109.461 160.931 109.372V108.732H161.72V109.372C162.499 109.446 163.116 109.675 163.572 110.056C164.157 110.542 164.51 111.209 164.629 112.057L163.245 112.266C163.166 111.74 162.999 111.338 162.747 111.061C162.499 110.778 162.156 110.592 161.72 110.503V114.364C162.394 114.532 162.841 114.664 163.059 114.758C163.476 114.941 163.815 115.164 164.078 115.427C164.341 115.69 164.542 116.003 164.681 116.365C164.824 116.727 164.896 117.118 164.896 117.54C164.896 118.467 164.601 119.241 164.011 119.861C163.421 120.481 162.657 120.813 161.72 120.858V122.211H160.931ZM160.931 110.488C160.411 110.567 159.999 110.776 159.697 111.113C159.399 111.45 159.25 111.849 159.25 112.31C159.25 112.767 159.377 113.148 159.63 113.456C159.888 113.763 160.321 114.009 160.931 114.192V110.488ZM161.72 119.742C162.241 119.677 162.67 119.452 163.007 119.065C163.349 118.678 163.52 118.199 163.52 117.629C163.52 117.143 163.399 116.754 163.156 116.461C162.918 116.164 162.439 115.898 161.72 115.665V119.742Z" fill="#F5F9FF"/>
<path d="M122.734 93.4954C130.13 86.099 130.13 74.107 122.734 66.7106C115.337 59.3142 103.345 59.3142 95.9491 66.7106C88.5526 74.107 88.5526 86.099 95.9491 93.4954C103.345 100.892 115.337 100.892 122.734 93.4954Z" fill="#24C00C"/>
<path fill-rule="evenodd" clip-rule="evenodd" d="M98.7162 80.5799C98.2096 79.7592 98.4639 78.6826 99.2847 78.1757C100.105 77.6687 101.182 77.9234 101.689 78.7441L105.251 84.5113L115.998 70.9252C116.596 70.1686 117.693 70.04 118.45 70.6375C119.206 71.235 119.335 72.3332 118.738 73.0894L106.487 88.5768C106.357 88.7553 106.191 88.9119 105.991 89.0351C105.171 89.5421 104.094 89.2874 103.587 88.4667L98.7162 80.5799Z" fill="white"/>
<path d="M109.346 100.396C98.1575 100.396 89.0654 91.2915 89.0654 80.1153C89.0654 68.9392 98.1697 59.835 109.346 59.835C120.522 59.835 129.626 68.9392 129.626 80.1153C129.626 91.2915 120.522 100.396 109.346 100.396ZM109.346 62.5163C99.6444 62.5163 91.7589 70.4017 91.7589 80.1032C91.7589 89.8046 99.6444 97.6901 109.346 97.6901C119.047 97.6901 126.933 89.8046 126.933 80.1032C126.933 70.4017 119.047 62.5163 109.346 62.5163Z" fill="white"/>
<path d="M172.618 183.111C172.618 183.111 174.653 185.134 174.891 186.408C175.129 187.693 174.415 193.24 174.415 193.24H172.38L171.618 188.169L166.928 193.24H159.347C159.347 193.24 160.073 190.217 164.988 190.121C169.904 190.026 171.094 182.742 172.618 183.111Z" fill="#002C61"/>
<path d="M164.988 190.121C169.904 190.026 171.094 182.742 172.618 183.111L172.903 181.98H166.452L164.215 190.169C164.465 190.145 164.727 190.133 165 190.121H164.988Z" fill="#FF8460"/>
<path d="M206.717 184.801C206.063 182.575 206.122 181.98 206.122 181.98H203.956H200.54C200.54 181.98 200.088 182.492 199.874 184.801C199.659 187.122 199.528 191.026 199.528 191.026C199.528 191.026 200.052 193.525 201.718 193.525C203.385 193.525 204.051 193.525 204.051 193.525C204.253 193.525 204.813 193.525 205.944 193.525C207.431 193.525 207.896 191.026 207.896 191.026C207.896 191.026 207.479 187.372 206.717 184.813V184.801Z" fill="#002C61"/>
<path d="M201.028 181.98L200.528 188.657C200.528 188.657 203.206 192.038 206.467 188.729L205.598 181.98H201.028Z" fill="#FF8460"/>
<path d="M179.151 104.164C179.211 104.188 179.294 104.212 179.377 104.235C180.639 104.747 184.055 105.807 191.16 106.199C200.087 106.699 206.907 105.414 207.692 105.247C207.716 105.307 207.74 105.378 207.776 105.438C208.918 108.437 211.334 116.173 210.192 123.862C208.74 133.765 206.133 181.968 206.133 181.968H200.551L192.041 122.85C184.483 147.309 172.914 181.957 172.914 181.957H166.463L178.77 104.14H179.163L179.151 104.164Z" fill="#002C61"/>
<path d="M166.164 76.432C167.795 76.2892 168.795 76.6819 168.795 76.6819L172.889 81.7761C172.889 81.7761 177.388 66.946 189.981 64.6608C189.981 64.6608 189.981 64.6846 189.981 64.6965C189.862 65.1845 189.945 65.6248 190.231 66.0057C190.802 66.7317 192.135 67.1959 193.718 67.1959C195.301 67.1959 196.658 66.7436 197.277 66.0057C197.586 65.6367 197.705 65.2083 197.634 64.7203C203.847 65.5296 209.322 67.6839 213.761 77.3961C218.808 88.4294 219.95 91.631 218.284 96.4871C216.618 101.331 206.465 96.4038 206.465 96.4038L207.774 105.449C207.774 105.449 200.657 106.949 191.159 106.414C181.661 105.878 178.769 104.164 178.769 104.164L180.483 93.4997L180.768 89.2625L181.018 85.4419C181.006 85.4657 180.602 86.644 179.935 88.1913C178.662 91.1312 176.4 95.3921 173.972 95.3921C171.544 95.3921 173.877 95.3921 173.829 95.3921C170.044 95.1303 164.308 77.1223 164.308 77.1223C164.308 77.1223 164.546 76.5867 166.176 76.432H166.164Z" fill="#EBC396"/>
<path d="M205.31 87.1915L204.822 76.9795L208.167 88.5127L205.31 87.1915Z" fill="#ABB1BA"/>
<path d="M181.006 85.4419L180.756 89.2625C182.542 83.5852 182.923 72.0044 182.22 76.1226C181.542 80.1217 180.197 86.8107 179.923 88.1913C180.59 86.6441 180.995 85.4658 181.006 85.4419Z" fill="#ABB1BA"/>
<path d="M165.129 70.6119C165.129 70.6119 164.724 69.3621 164.498 69.2312C164.272 69.0884 163.856 69.1122 163.891 69.8501C163.927 70.5881 164.296 72.0639 164.296 72.0639L165.129 70.6119Z" fill="#EB825A"/>
<path d="M163.44 62.697H168.629C169.093 62.697 169.569 63.0541 169.688 63.5064L172.842 74.8372C172.961 75.2776 172.688 75.6466 172.235 75.6466H167.046C166.582 75.6466 166.106 75.2895 165.987 74.8372L165.796 74.1588L164.13 68.1601L162.833 63.5183C162.714 63.0779 162.987 62.7089 163.44 62.7089V62.697Z" fill="#366380"/>
<path d="M166.212 66.827C166.284 67.077 166.57 67.2912 166.831 67.2912H167.01C167.272 67.2912 167.427 67.077 167.355 66.827L166.736 64.6846C166.665 64.4347 166.379 64.2205 166.117 64.2205H165.939C165.677 64.2205 165.522 64.4347 165.594 64.6846L166.212 66.827Z" fill="#011E41"/>
<path d="M172.354 75.1109L169.2 63.7801C169.081 63.3397 168.605 62.9707 168.141 62.9707H162.952C162.928 62.9707 162.904 62.9707 162.88 62.9707C162.987 62.7922 163.19 62.6851 163.44 62.6851H168.629C169.093 62.6851 169.569 63.0421 169.688 63.4944L172.842 74.8253C172.961 75.2418 172.723 75.587 172.307 75.6227C172.39 75.4799 172.414 75.3013 172.354 75.1109Z" fill="#011E41"/>
<path d="M168.403 77.039C168.201 77.3127 167.879 77.5389 167.391 77.6698C165.642 78.134 164.821 77.3365 164.821 77.3365C164.725 76.2653 164.642 74.5633 164.452 73.9444C164.154 73.0041 164.083 72.3257 164.368 71.8615C164.666 71.3973 165.368 70.1714 165.523 69.9334C165.678 69.6953 166.987 68.767 167.808 68.398C168.641 68.029 168.879 68.9098 168.32 69.2669C168.058 69.4335 166.915 70.2547 166.677 70.6356C166.439 71.0165 166.082 71.6235 166.201 71.6354C166.32 71.6354 166.773 70.9927 167.284 70.707C167.796 70.4214 168.308 70.2904 169.474 69.8144C170.617 69.3621 170.677 70.1952 170.534 70.3499C170.129 70.7903 168.617 71.4807 168.332 71.6354C168.046 71.7901 167.023 72.6828 167.142 72.6947C167.261 72.6947 168.344 71.9686 168.713 71.9091C169.082 71.8496 170.129 71.6473 170.855 71.5759C171.569 71.5045 171.426 72.4685 170.665 72.659C169.903 72.8494 169.451 73.0398 168.534 73.4683C167.618 73.8968 167.915 74.0158 167.915 74.0158C167.915 74.0158 169.046 74.3134 169.76 74.2539C170.474 74.1944 171.272 74.2063 171.331 74.5514C171.414 75.0275 170.998 75.1584 170.343 75.2417C169.689 75.3251 168.379 75.4798 168.379 75.4798C168.344 76.1939 168.558 76.6462 168.415 77.0271L168.403 77.039Z" fill="#FF966E"/>
<path d="M188.553 84.0732C188.6 84.0137 188.684 83.9542 188.779 83.8828C189.374 83.4781 190.35 82.9782 190.779 82.8235C191.278 82.6331 191.85 82.7283 193.349 82.7045C194.849 82.6807 195.182 83.2401 195.385 83.49C195.551 83.7043 197.253 85.6324 198.36 86.5846C197.92 86.6084 196.872 87.7034 196.753 89.572C195.754 89.4054 194.718 88.7627 194.171 88.6556C193.587 88.5365 193.207 89.0007 192.469 88.6556C191.719 88.3223 191.814 87.7391 191.814 87.7391C190.957 87.3225 191.183 86.5013 191.183 86.5013C190.898 86.3584 190.564 85.7395 190.802 85.2992C191.04 84.8588 192.623 84.1327 192.623 84.1327C190.683 83.978 190.16 84.6683 189.267 84.7398C188.993 84.7636 188.791 84.7398 188.648 84.6683C188.351 84.5255 188.374 84.2875 188.553 84.0732Z" fill="#FF966E"/>
<path d="M203.204 49.6284C203.287 47.1765 202.382 44.9032 200.585 43.0465C199.359 41.7848 197.788 40.797 196.098 40.19C196.705 39.1188 198.133 37.5715 201.121 38.0952C205.584 38.8807 206.62 44.3081 205.656 48.3191C205.346 49.6165 204.37 50.4258 203.144 50.7948C203.18 50.4139 203.192 50.0211 203.216 49.6165L203.204 49.6284Z" fill="#011E41"/>
<path d="M188.445 40.4399C193.706 37.2977 203.561 41.773 203.299 49.6284C203.061 56.5554 200.502 58.7097 196.884 59.3762C196.824 58.186 196.8 57.222 196.788 56.5554V56.5197L196.836 56.4483L196.872 56.4007H196.931H196.943C197.11 56.4007 197.991 56.3293 198.526 54.8772C198.74 54.2821 198.669 53.6394 198.348 53.1752C198.098 52.8182 197.741 52.6277 197.36 52.6277C196.979 52.6277 196.598 52.8182 196.253 53.1871C195.884 53.568 195.753 53.6513 195.646 53.6513C195.598 53.6513 195.551 53.6275 195.527 53.5918C195.444 53.4966 195.467 53.2942 195.503 52.9372C195.586 52.1873 195.717 50.9376 194.979 49.8426C193.753 48.0216 192.289 47.2003 190.23 47.2003C188.171 47.2003 190.028 47.2003 189.933 47.2003C188.088 47.2717 186.862 47.8311 186.196 48.9142C185.767 49.9021 185.815 51.0804 185.969 52.3302C185.029 50.9138 184.446 49.8664 184.446 49.8664C184.446 49.8664 181.923 44.3319 188.433 40.4518L188.445 40.4399Z" fill="#011E41"/>
<path d="M186.113 48.8667C186.589 48.105 187.541 47.1885 189.933 47.1052C191.945 47.0338 193.647 47.6646 195.075 49.7832C196.503 51.9018 194.754 54.6036 196.182 53.1158C197.61 51.628 199.229 53.2586 198.622 54.9249C198.015 56.5912 196.92 56.5198 196.92 56.5198C196.92 56.5198 196.92 56.5317 196.884 56.5674C196.908 57.9957 197.289 61.2569 197.586 64.7204C197.586 64.7204 198.681 71.2904 191.112 70.3739C187.957 69.993 189.398 65.4583 189.933 64.6966C189.957 62.8518 189.933 61.3878 189.933 60.7332C186.934 60.9117 185.934 57.1387 186.053 54.6274C186.077 54.1394 186.041 53.6514 185.97 53.1753C185.708 51.4376 185.589 50.045 186.089 48.8786L186.113 48.8667Z" fill="#FF966E"/>
<path d="M190.931 53.2825C190.979 53.5562 191.205 53.7466 191.419 53.7109C191.633 53.6752 191.776 53.4253 191.728 53.1515C191.681 52.8778 191.455 52.6873 191.241 52.7231C191.026 52.7588 190.883 53.0087 190.931 53.2825Z" fill="#011E41"/>
<path d="M187.385 53.4134C187.349 53.6871 187.147 53.9014 186.933 53.8776C186.718 53.8538 186.552 53.6157 186.587 53.342C186.623 53.0682 186.825 52.854 187.04 52.8778C187.266 52.9016 187.421 53.1396 187.385 53.4134Z" fill="#011E41"/>
<path d="M192.693 51.7232C192.657 51.5923 192.241 51.14 191.467 51.0329C190.682 50.9257 190.313 51.0805 190.324 51.3661C190.324 51.6756 191.205 51.3899 191.931 51.6518C192.657 51.9136 192.705 51.7827 192.693 51.7351V51.7232Z" fill="#011E41"/>
<path d="M185.516 51.9851C185.54 51.8423 185.885 51.3662 186.611 51.1996C187.337 51.033 187.682 51.1639 187.694 51.4495C187.694 51.759 186.885 51.5328 186.218 51.8423C185.564 52.1518 185.516 52.0327 185.516 51.9732V51.9851Z" fill="#011E41"/>
<path d="M189.562 56.3174C189.61 56.3174 189.646 56.2817 189.646 56.2341C189.646 56.1865 189.61 56.1508 189.562 56.1508C188.777 56.1746 188.324 56.0674 188.205 55.8532C188.063 55.6033 188.372 55.1391 188.705 54.6511L188.753 54.5797C189.384 53.6394 189.336 53.3418 189.312 53.2942C189.3 53.2466 189.253 53.2228 189.205 53.2347C189.158 53.2466 189.134 53.2942 189.146 53.3418C189.146 53.3537 189.181 53.6275 188.598 54.4844L188.551 54.5559C188.182 55.1153 187.86 55.5914 188.051 55.9365C188.205 56.2222 188.682 56.3412 189.562 56.3174Z" fill="#EB825A"/>
<path d="M190.432 57.3529C190.432 57.3529 189.646 57.6624 189.063 57.6862C188.48 57.71 187.837 57.4481 187.599 57.46C187.361 57.46 188.277 58.3408 189.087 58.317C189.825 58.2932 190.896 57.2458 190.432 57.3648V57.3529Z" fill="#EB825A"/>
<path d="M190.087 60.7212C192.789 60.4712 194.158 59.3286 195.538 58.1622C195.015 59.0906 193.801 60.4236 189.968 61.4948C189.968 61.1735 189.968 60.9235 189.968 60.7331C190.004 60.7331 190.052 60.7331 190.087 60.7331V60.7212Z" fill="#EB825A"/>
<path d="M223.494 192.703H54.4746V194.385H223.494V192.703Z" fill="#B8D3F5"/>
</svg>
