<svg width="248" height="200" viewBox="0 0 248 200" fill="none" xmlns="http://www.w3.org/2000/svg">
<g clip-path="url(#clip0_2691_4734)">
<mask id="mask0_2691_4734" style="mask-type:luminance" maskUnits="userSpaceOnUse" x="0" y="0" width="248" height="200">
<path d="M248 0H0V200H248V0Z" fill="white"/>
</mask>
<g mask="url(#mask0_2691_4734)">
<path d="M248 0H0V190.133H248V0Z" fill="white"/>
<path opacity="0.75" fill-rule="evenodd" clip-rule="evenodd" d="M112.979 196.557C140.624 197.172 152.732 176.707 173.047 161.042C199.936 140.308 226.041 154.774 231.87 82.8293C237.059 18.7966 188.817 74.9271 123.101 50.4888C57.3831 26.0492 -9.86204 15.303 8.5015 90.057C26.8662 164.811 48.7444 195.13 112.979 196.557Z" fill="#CCF3FF"/>
<path d="M203.272 85.8514H139.023V155.572H203.272V85.8514Z" fill="white"/>
<path d="M213.828 148.298H196.427V155.151H213.828V148.298Z" fill="white"/>
<path d="M208.157 142.098H202.007V148.207H208.157V142.098Z" fill="white"/>
<path d="M209.704 87.7031L158.674 87.5708L139.545 101.707L139.264 62.6219L158.409 53.2475L210.241 82.3049L209.704 87.7031Z" fill="white"/>
<path fill-rule="evenodd" clip-rule="evenodd" d="M155.992 51.8262C156.529 51.5555 157.162 51.5555 157.7 51.8263L212.582 79.4951C213.367 79.8903 213.778 80.7731 213.574 81.6279C213.371 82.4827 212.607 83.0861 211.728 83.0861H101.955C101.076 83.0861 100.313 82.4827 100.109 81.6279C99.9059 80.7731 100.317 79.8903 101.101 79.4951L155.992 51.8262ZM109.934 79.2917H203.751L156.846 55.645L109.934 79.2917Z" fill="#B0DBE8"/>
<path fill-rule="evenodd" clip-rule="evenodd" d="M103.981 79.2917C105.029 79.2917 105.878 80.1416 105.878 81.189V85.8059H207.806V81.189C207.806 80.1416 208.656 79.2917 209.704 79.2917C210.752 79.2917 211.601 80.1416 211.601 81.189V87.7031C211.601 88.7505 210.752 89.6003 209.704 89.6003H103.981C102.934 89.6003 102.084 88.7505 102.084 87.7031V81.189C102.084 80.1416 102.934 79.2917 103.981 79.2917Z" fill="#B0DBE8"/>
<path fill-rule="evenodd" clip-rule="evenodd" d="M109.012 94.9282C109.012 93.88 109.862 93.031 110.909 93.031H120.374C121.422 93.031 122.271 93.88 122.271 94.9282V133.434C122.271 134.482 121.422 135.332 120.374 135.332H110.909C109.862 135.332 109.012 134.482 109.012 133.434V94.9282ZM112.806 96.8254V131.537H118.477V96.8254H112.806Z" fill="#B0DBE8"/>
<path fill-rule="evenodd" clip-rule="evenodd" d="M129.141 94.9282C129.141 93.88 129.99 93.031 131.038 93.031H140.503C141.551 93.031 142.4 93.88 142.4 94.9282V133.434C142.4 134.482 141.551 135.332 140.503 135.332H131.038C129.99 135.332 129.141 134.482 129.141 133.434V94.9282ZM132.935 96.8254V131.537H138.606V96.8254H132.935Z" fill="#B0DBE8"/>
<path fill-rule="evenodd" clip-rule="evenodd" d="M171.276 94.9282C171.276 93.88 172.126 93.031 173.174 93.031H182.639C183.687 93.031 184.536 93.88 184.536 94.9282V133.434C184.536 134.482 183.687 135.332 182.639 135.332H173.174C172.126 135.332 171.276 134.482 171.276 133.434V94.9282ZM175.071 96.8254V131.537H180.742V96.8254H175.071Z" fill="#B0DBE8"/>
<path fill-rule="evenodd" clip-rule="evenodd" d="M191.488 94.9282C191.488 93.88 192.338 93.031 193.385 93.031H202.851C203.899 93.031 204.748 93.88 204.748 94.9282V133.434C204.748 134.482 203.899 135.332 202.851 135.332H193.385C192.338 135.332 191.488 134.482 191.488 133.434V94.9282ZM195.283 96.8254V131.537H200.954V96.8254H195.283Z" fill="#B0DBE8"/>
<path fill-rule="evenodd" clip-rule="evenodd" d="M103.613 141.263C103.613 140.214 104.463 139.366 105.51 139.366H208.166C209.214 139.366 210.063 140.214 210.063 141.263V148.207C210.063 149.254 209.214 150.104 208.166 150.104C207.119 150.104 206.269 149.254 206.269 148.207V143.16H107.408V148.207C107.408 149.254 106.559 150.104 105.51 150.104C104.463 150.104 103.613 149.254 103.613 148.207V141.263Z" fill="#B0DBE8"/>
<path fill-rule="evenodd" clip-rule="evenodd" d="M97.9502 148.207C97.9502 147.158 98.8 146.31 99.8474 146.31H213.828C214.876 146.31 215.725 147.158 215.725 148.207V155.151C215.725 156.198 214.876 157.048 213.828 157.048C212.781 157.048 211.931 156.198 211.931 155.151V150.104H101.745V155.151C101.745 156.198 100.896 157.048 99.8474 157.048C98.8 157.048 97.9502 156.198 97.9502 155.151V148.207Z" fill="#B0DBE8"/>
<path fill-rule="evenodd" clip-rule="evenodd" d="M92.9414 155.151C92.9414 154.103 93.7912 153.254 94.8386 153.254H218.839C219.886 153.254 220.736 154.103 220.736 155.151C220.736 156.198 219.886 157.048 218.839 157.048H94.8386C93.7912 157.048 92.9414 156.198 92.9414 155.151Z" fill="#B0DBE8"/>
<path fill-rule="evenodd" clip-rule="evenodd" d="M122.019 85.8059C123.067 85.8059 123.917 86.6557 123.917 87.7031V93.3079C123.917 95.2481 122.339 96.8254 120.399 96.8254C119.351 96.8254 118.502 95.9756 118.502 94.9282C118.502 93.9742 119.205 93.1847 120.122 93.0508V87.7031C120.122 86.6557 120.971 85.8059 122.019 85.8059Z" fill="#B0DBE8"/>
<path fill-rule="evenodd" clip-rule="evenodd" d="M109.263 85.8059C110.312 85.8059 111.161 86.6557 111.161 87.7031V93.0508C112.077 93.1847 112.781 93.9742 112.781 94.9282C112.781 95.9756 111.932 96.8254 110.884 96.8254C108.943 96.8254 107.366 95.2481 107.366 93.3079V87.7031C107.366 86.6557 108.216 85.8059 109.263 85.8059Z" fill="#B0DBE8"/>
<path fill-rule="evenodd" clip-rule="evenodd" d="M142.148 85.8059C143.196 85.8059 144.046 86.6557 144.046 87.7031V93.3079C144.046 95.2481 142.468 96.8254 140.528 96.8254C139.48 96.8254 138.631 95.9756 138.631 94.9282C138.631 93.9742 139.334 93.1847 140.251 93.0508V87.7031C140.251 86.6557 141.1 85.8059 142.148 85.8059Z" fill="#B0DBE8"/>
<path fill-rule="evenodd" clip-rule="evenodd" d="M129.393 85.8059C130.442 85.8059 131.29 86.6557 131.29 87.7031V93.0508C132.207 93.1847 132.911 93.9742 132.911 94.9282C132.911 95.9756 132.062 96.8254 131.014 96.8254C129.073 96.8254 127.496 95.2481 127.496 93.3079V87.7031C127.496 86.6557 128.346 85.8059 129.393 85.8059Z" fill="#B0DBE8"/>
<path fill-rule="evenodd" clip-rule="evenodd" d="M184.283 85.8059C185.331 85.8059 186.18 86.6557 186.18 87.7031V93.3079C186.18 95.2489 184.603 96.8254 182.663 96.8254C181.615 96.8254 180.766 95.9756 180.766 94.9282C180.766 93.9742 181.469 93.1847 182.386 93.0508V87.7031C182.386 86.6557 183.236 85.8059 184.283 85.8059Z" fill="#B0DBE8"/>
<path fill-rule="evenodd" clip-rule="evenodd" d="M171.528 85.8059C172.575 85.8059 173.425 86.6557 173.425 87.7031V93.0508C174.342 93.1847 175.046 93.9742 175.046 94.9282C175.046 95.9756 174.196 96.8254 173.148 96.8254C171.208 96.8254 169.631 95.2489 169.631 93.3079V87.7031C169.631 86.6557 170.48 85.8059 171.528 85.8059Z" fill="#B0DBE8"/>
<path fill-rule="evenodd" clip-rule="evenodd" d="M204.496 85.8059C205.544 85.8059 206.393 86.6557 206.393 87.7031V93.3079C206.393 95.2489 204.816 96.8254 202.876 96.8254C201.828 96.8254 200.979 95.9756 200.979 94.9282C200.979 93.9742 201.682 93.1847 202.599 93.0508V87.7031C202.599 86.6557 203.449 85.8059 204.496 85.8059Z" fill="#B0DBE8"/>
<path fill-rule="evenodd" clip-rule="evenodd" d="M191.74 85.8059C192.787 85.8059 193.637 86.6557 193.637 87.7031V93.0508C194.554 93.1847 195.257 93.9742 195.257 94.9282C195.257 95.9756 194.408 96.8254 193.36 96.8254C191.42 96.8254 189.843 95.2489 189.843 93.3079V87.7031C189.843 86.6557 190.692 85.8059 191.74 85.8059Z" fill="#B0DBE8"/>
<path fill-rule="evenodd" clip-rule="evenodd" d="M193.637 135.32C194.554 135.186 195.257 134.396 195.257 133.442C195.257 132.395 194.408 131.545 193.36 131.545C191.42 131.545 189.843 133.122 189.843 135.063V140.667C189.843 141.716 190.692 142.565 191.74 142.565C192.787 142.565 193.637 141.716 193.637 140.667V135.32Z" fill="#B0DBE8"/>
<path fill-rule="evenodd" clip-rule="evenodd" d="M200.979 133.442C200.979 132.395 201.828 131.545 202.876 131.545C204.816 131.545 206.393 133.122 206.393 135.063V140.667C206.393 141.716 205.544 142.565 204.496 142.565C203.449 142.565 202.599 141.716 202.599 140.667V135.32C201.682 135.186 200.979 134.396 200.979 133.442Z" fill="#B0DBE8"/>
<path fill-rule="evenodd" clip-rule="evenodd" d="M173.425 135.32C174.342 135.186 175.046 134.396 175.046 133.442C175.046 132.395 174.196 131.545 173.148 131.545C171.208 131.545 169.631 133.122 169.631 135.063V140.667C169.631 141.716 170.48 142.565 171.528 142.565C172.575 142.565 173.425 141.716 173.425 140.667V135.32Z" fill="#B0DBE8"/>
<path fill-rule="evenodd" clip-rule="evenodd" d="M180.766 133.442C180.766 132.395 181.615 131.545 182.663 131.545C184.603 131.545 186.18 133.122 186.18 135.063V140.667C186.18 141.716 185.331 142.565 184.283 142.565C183.236 142.565 182.386 141.716 182.386 140.667V135.32C181.469 135.186 180.766 134.396 180.766 133.442Z" fill="#B0DBE8"/>
<path fill-rule="evenodd" clip-rule="evenodd" d="M131.29 135.32C132.207 135.186 132.911 134.396 132.911 133.442C132.911 132.395 132.062 131.545 131.014 131.545C129.073 131.545 127.496 133.123 127.496 135.063V140.667C127.496 141.716 128.346 142.565 129.393 142.565C130.442 142.565 131.29 141.716 131.29 140.667V135.32Z" fill="#B0DBE8"/>
<path fill-rule="evenodd" clip-rule="evenodd" d="M138.631 133.442C138.631 132.395 139.48 131.545 140.528 131.545C142.468 131.545 144.046 133.123 144.046 135.063V140.667C144.046 141.716 143.196 142.565 142.148 142.565C141.1 142.565 140.251 141.716 140.251 140.667V135.32C139.334 135.186 138.631 134.396 138.631 133.442Z" fill="#B0DBE8"/>
<path fill-rule="evenodd" clip-rule="evenodd" d="M111.161 135.32C112.077 135.186 112.781 134.396 112.781 133.442C112.781 132.395 111.932 131.545 110.884 131.545C108.943 131.545 107.366 133.123 107.366 135.063V140.667C107.366 141.716 108.216 142.565 109.263 142.565C110.312 142.565 111.161 141.716 111.161 140.667V135.32Z" fill="#B0DBE8"/>
<path fill-rule="evenodd" clip-rule="evenodd" d="M118.502 133.442C118.502 132.395 119.351 131.545 120.399 131.545C122.339 131.545 123.917 133.123 123.917 135.063V140.667C123.917 141.716 123.067 142.565 122.019 142.565C120.971 142.565 120.122 141.716 120.122 140.667V135.32C119.205 135.186 118.502 134.396 118.502 133.442Z" fill="#B0DBE8"/>
<path fill-rule="evenodd" clip-rule="evenodd" d="M149.65 95.077C149.65 94.0296 150.5 93.1797 151.548 93.1797H161.013C162.061 93.1797 162.91 94.0296 162.91 95.077V133.583C162.91 134.63 162.061 135.48 161.013 135.48H151.548C150.5 135.48 149.65 134.63 149.65 133.583V95.077ZM153.445 96.9742V131.686H159.116V96.9742H153.445Z" fill="#B0DBE8"/>
<path fill-rule="evenodd" clip-rule="evenodd" d="M162.658 85.9547C163.706 85.9547 164.555 86.8045 164.555 87.8519V93.4567C164.555 95.3969 162.979 96.9742 161.038 96.9742C159.99 96.9742 159.141 96.1252 159.141 95.077C159.141 94.123 159.844 93.3335 160.761 93.1996V87.8519C160.761 86.8045 161.611 85.9547 162.658 85.9547Z" fill="#B0DBE8"/>
<path fill-rule="evenodd" clip-rule="evenodd" d="M149.902 85.4587C150.95 85.4587 151.799 86.3085 151.799 87.3559V92.7036C152.716 92.8375 153.42 93.627 153.42 94.581C153.42 95.6292 152.571 96.4782 151.522 96.4782C149.582 96.4782 148.005 94.9017 148.005 92.9607V87.3559C148.005 86.3085 148.855 85.4587 149.902 85.4587Z" fill="#B0DBE8"/>
<path d="M113.543 128.15C113.138 130.332 111.013 131.787 108.831 131.374L22.7503 115.254C20.5679 114.849 19.1129 112.724 19.5263 110.542L28.8345 60.8343C29.2396 58.6519 31.3641 57.1969 33.5465 57.6103L119.627 73.7303C121.81 74.1353 123.265 76.2599 122.851 78.4423L113.543 128.15Z" fill="#02AADE"/>
<path d="M118.552 101.504L24.5383 83.9099L21.9395 97.7962L115.953 115.39L118.552 101.504Z" fill="#32AAF0"/>
<path d="M48.4348 83.0138C48.2281 84.105 47.17 84.8324 46.0788 84.6258L35.6793 82.6748C34.5881 82.4682 33.8607 81.41 34.0673 80.3188L35.1585 74.4991C35.3652 73.4079 36.4233 72.6804 37.5145 72.8871L47.914 74.838C49.0052 75.0447 49.7327 76.1028 49.526 77.194L48.4348 83.0138Z" fill="#E0B36F"/>
<path d="M30.379 93.8431L30.9812 90.6249C31.0329 90.3488 31.2934 90.1702 31.5697 90.2223L67.9723 97.0348C68.2486 97.0869 68.4269 97.3473 68.3753 97.6234L67.773 100.841C67.7214 101.117 67.4609 101.295 67.1846 101.244L30.7819 94.4317C30.5057 94.3796 30.3274 94.1192 30.379 93.8431Z" fill="white"/>
<path d="M89.958 105.02C89.9084 105.292 89.6438 105.474 89.371 105.425L73.466 102.449C73.1932 102.399 73.0113 102.135 73.0609 101.862L73.6644 98.646C73.714 98.3732 73.9785 98.1913 74.2513 98.2409L90.1564 101.217C90.4292 101.267 90.611 101.531 90.5614 101.804L89.958 105.02Z" fill="white"/>
<path d="M95.2278 105.988L95.8296 102.771C95.8817 102.495 96.1421 102.316 96.4182 102.368L112.328 105.345C112.604 105.397 112.783 105.658 112.731 105.934L112.129 109.151C112.077 109.428 111.816 109.606 111.54 109.555L95.6304 106.577C95.3543 106.525 95.1757 106.265 95.2278 105.988Z" fill="white"/>
<path d="M65.0009 69.3884L37.1057 64.168L36.2998 68.4745L64.1949 73.695L65.0009 69.3884Z" fill="#1496DC"/>
<path d="M112.902 78.347L80.2292 72.2324L79.8262 74.3857L112.499 80.5003L112.902 78.347Z" fill="white"/>
<path d="M112.068 82.8178L90.6731 78.8139L90.2705 80.9671L111.665 84.9713L112.068 82.8178Z" fill="white"/>
<path opacity="0.5" d="M60.1066 112.392L27.6205 106.313L27.0928 109.132L59.579 115.212L60.1066 112.392Z" fill="white"/>
<path opacity="0.4" d="M97.7294 116.119L93.0364 119.333C92.5768 119.647 92.4594 120.275 92.7744 120.735L95.9868 125.428C96.3018 125.887 96.9292 126.005 97.3888 125.69L102.082 122.476C102.541 122.162 102.659 121.535 102.345 121.075L99.1314 116.382C98.8165 115.923 98.189 115.805 97.7294 116.119Z" fill="white"/>
<path opacity="0.2" d="M104.046 117.296L99.354 120.51C98.8944 120.825 98.777 121.452 99.0911 121.912L102.304 126.605C102.619 127.064 103.247 127.182 103.706 126.867L108.399 123.653C108.859 123.339 108.976 122.711 108.661 122.251L105.448 117.558C105.134 117.099 104.506 116.981 104.046 117.296Z" fill="white"/>
<path d="M140.781 32.5541H94.7441C88.5987 32.5541 83.6172 37.5358 83.6172 43.6811V159.58C83.6172 165.725 88.5987 170.707 94.7441 170.707H140.781C146.927 170.707 151.908 165.725 151.908 159.58V43.6811C151.908 37.5358 146.927 32.5541 140.781 32.5541Z" fill="#0F506E"/>
<path d="M140.798 35.5383H94.7195C90.2456 35.5383 86.6182 39.1655 86.6182 43.6397V159.638C86.6182 164.112 90.2456 167.739 94.7195 167.739H140.798C145.272 167.739 148.899 164.112 148.899 159.638V43.6397C148.899 39.1655 145.272 35.5383 140.798 35.5383Z" fill="#F3F6FF"/>
<path d="M140.798 35.5383H94.7195C90.2555 35.5383 86.6182 39.1757 86.6182 43.6397V48.9634H148.899V43.6397C148.899 39.1757 145.262 35.5383 140.798 35.5383Z" fill="#02AADE"/>
<path d="M140.798 167.73H94.7195C90.2555 167.73 86.6182 164.093 86.6182 159.629V154.305H148.899V159.629C148.899 164.093 145.262 167.73 140.798 167.73Z" fill="#02AADE"/>
<path d="M133.218 43.7638H102.309C101.474 43.7638 100.796 43.0859 100.796 42.251C100.796 41.416 101.474 40.7382 102.309 40.7382H133.218C134.053 40.7382 134.731 41.416 134.731 42.251C134.731 43.0859 134.053 43.7638 133.218 43.7638Z" fill="#81BAFD"/>
<path d="M117.759 110.765C129.94 110.765 139.814 100.89 139.814 88.7095C139.814 76.5285 129.94 66.654 117.759 66.654C105.578 66.654 95.7031 76.5285 95.7031 88.7095C95.7031 100.89 105.578 110.765 117.759 110.765Z" fill="white"/>
<path d="M131.586 102.541C139.225 94.9037 139.225 82.5193 131.586 74.8811C123.948 67.2428 111.564 67.2428 103.926 74.8811C96.2877 82.5193 96.2877 94.9037 103.926 102.541C111.564 110.18 123.948 110.18 131.586 102.541Z" fill="#24C00C"/>
<path fill-rule="evenodd" clip-rule="evenodd" d="M106.039 89.8894C105.451 88.9359 105.746 87.6851 106.7 87.0962C107.653 86.5072 108.904 86.8031 109.492 87.7566L113.631 94.4568L126.117 78.6726C126.811 77.7937 128.087 77.6442 128.965 78.3384C129.844 79.0326 129.994 80.3085 129.3 81.187L115.067 99.18C114.916 99.3873 114.723 99.5692 114.491 99.7125C113.538 100.301 112.287 100.006 111.698 99.0521L106.039 89.8894Z" fill="white"/>
<path opacity="0.1" d="M136.54 130.415V129.406C136.392 129.406 136.259 129.282 136.259 129.125V122.396L135.805 121.867L134.49 130.051L136.243 130.406H136.532L136.54 130.415Z" fill="#1D1D1B"/>
<path opacity="0.1" d="M136.011 164.845C136.011 164.837 136.011 164.829 136.011 164.821C136.02 164.738 136.069 164.655 136.144 164.614C136.168 164.597 136.201 164.581 136.235 164.581C136.235 164.581 136.259 164.581 136.276 164.581H136.301H136.871V163.572C136.722 163.572 136.59 163.448 136.59 163.291V156.314C136.59 156.306 136.59 156.298 136.59 156.289C136.598 156.199 136.648 156.124 136.731 156.075H136.747C136.764 156.058 136.788 156.05 136.805 156.041C136.805 156.041 136.821 156.041 136.83 156.041C136.846 156.041 136.863 156.041 136.871 156.041V155.033H135.937C135.788 155.033 135.656 154.909 135.656 154.752V147.775C135.656 147.767 135.656 147.758 135.656 147.75C135.664 147.659 135.714 147.585 135.796 147.535H135.805C135.829 147.519 135.854 147.51 135.879 147.502C135.879 147.502 135.904 147.502 135.92 147.502C135.92 147.502 135.937 147.502 135.945 147.502C135.945 147.502 135.937 147.502 135.929 147.502V146.493C135.78 146.493 135.648 146.369 135.648 146.212V139.235C135.648 139.227 135.648 139.219 135.648 139.211C135.656 139.12 135.705 139.045 135.788 138.996H135.805C135.821 138.979 135.846 138.971 135.863 138.963H135.879C135.904 138.963 135.912 138.963 135.929 138.963V137.954H134.441C134.292 137.954 134.16 137.83 134.16 137.673V130.96L133.655 130.655L128.819 170.715H135.995V164.845H136.011Z" fill="#1D1D1B"/>
<path opacity="0.2" d="M55.1966 111.757L52.5596 119.734H55.1966V111.757Z" fill="#1D1D1B"/>
<path opacity="0.2" d="M83.6174 109.484V66.9847L77.624 109.484H83.6174Z" fill="#1D1D1B"/>
<path d="M110.17 166.424C110.17 169.624 107.55 172.236 104.359 172.236H25.3212C22.122 172.236 19.5098 169.615 19.5098 166.424V125.546C19.5098 122.346 22.1303 119.734 25.3212 119.734H104.351C107.55 119.734 110.162 122.355 110.162 125.546V166.424H110.17Z" fill="#FF9300"/>
<path d="M110.17 125.802H19.5098V137.003H110.17V125.802Z" fill="black"/>
<path opacity="0.8" d="M107.483 140.5H33.042V152.164H107.483V140.5Z" fill="white"/>
<path d="M27.0978 156.802H51.0876C53.0303 156.802 54.6092 158.381 54.6092 160.324V163.845C54.6092 165.788 53.0303 167.367 51.0876 167.367H27.0978C25.1551 167.367 23.5762 165.788 23.5762 163.845V160.324C23.5762 158.381 25.1551 156.802 27.0978 156.802Z" fill="#FFB02A"/>
<path d="M95.1826 162.365V112.832C95.1826 110.856 93.2151 109.236 90.8178 109.236H58.9746C58.9498 109.236 58.9333 109.236 58.9085 109.236C58.5282 109.236 58.1645 109.285 57.8173 109.36C56.3045 109.748 55.1885 110.955 55.1885 112.377V119.734H62.521V166.061C62.521 168.036 64.4885 169.657 66.8858 169.657H98.729C98.7538 169.657 98.7703 169.657 98.7951 169.657C99.1754 169.657 99.5392 169.607 99.8863 169.533C101.399 169.144 102.515 167.937 102.515 166.515V162.365H95.1826Z" fill="white"/>
<path d="M58.9163 109.227C58.8998 109.227 58.8832 109.227 58.8584 109.227C58.503 109.227 58.1558 109.269 57.8251 109.36C56.3123 109.748 55.1963 110.955 55.1963 112.377V119.734H62.5288V112.377C62.5288 110.666 60.9086 109.26 58.9163 109.236V109.227Z" fill="#B4BEBE"/>
<path d="M95.1822 162.365H70.6963V166.515C70.6963 167.937 69.5803 169.144 68.0675 169.533C67.7368 169.615 67.3896 169.665 67.0342 169.665H98.8526C99.208 169.665 99.5552 169.624 99.8859 169.533C101.399 169.144 102.515 167.937 102.515 166.515V162.365H95.1822Z" fill="#DAE4E4"/>
<path d="M84.8902 115.378H73.3086V115.956H84.8902V115.378Z" fill="#3C3C3B"/>
<path d="M80.567 111.757H77.624V112.137H80.567V111.757Z" fill="#3C3C3B"/>
<path d="M85.9076 120.635H72.2842V120.974H85.9076V120.635Z" fill="#3C3C3B"/>
<path d="M78.3348 123.62H65.877V124.231H78.3348V123.62Z" fill="#3C3C3B"/>
<path d="M73.0028 132.647H65.877V133.259H73.0028V132.647Z" fill="#3C3C3B"/>
<path d="M70.3658 134.846H65.877V135.457H70.3658V134.846Z" fill="#3C3C3B"/>
<path d="M93.314 134.846H91.0654V135.457H93.314V134.846Z" fill="#3C3C3B"/>
<path d="M80.9553 130.44H65.877V131.051H80.9553V130.44Z" fill="#3C3C3B"/>
<path d="M74.7058 126.025H65.877V126.637H74.7058V126.025Z" fill="#3C3C3B"/>
<path d="M75.7143 128.232H65.877V128.844H75.7143V128.232Z" fill="#3C3C3B"/>
<path d="M77.3924 137.053H65.877V137.665H77.3924V137.053Z" fill="#3C3C3B"/>
<path d="M80.1204 141.467H65.877V142.079H80.1204V141.467Z" fill="#3C3C3B"/>
<path d="M79.0706 139.26H65.877V139.872H79.0706V139.26Z" fill="#3C3C3B"/>
<path d="M72.234 144.972H65.877V146.527H72.234V144.972Z" fill="#3C3C3B"/>
<path d="M93.2643 144.972H89.627V146.527H93.2643V144.972Z" fill="#3C3C3B"/>
<path d="M93.3056 123.62H90.6934V124.231H93.3056V123.62Z" fill="#3C3C3B"/>
<path d="M93.3138 132.647H90.8008V133.259H93.3138V132.647Z" fill="#3C3C3B"/>
<path d="M93.314 130.44H91.0654V131.051H93.314V130.44Z" fill="#3C3C3B"/>
<path d="M93.314 126.025H91.0654V126.637H93.314V126.025Z" fill="#3C3C3B"/>
<path d="M93.3143 128.232H91.7354V128.844H93.3143V128.232Z" fill="#3C3C3B"/>
<path d="M93.3062 137.053H91.1816V137.665H93.3062V137.053Z" fill="#3C3C3B"/>
<path d="M93.314 139.26H91.0654V139.872H93.314V139.26Z" fill="#3C3C3B"/>
<path d="M93.3062 141.467H91.1816V142.079H93.3062V141.467Z" fill="#3C3C3B"/>
<path d="M88.2298 116.89H69.9688V117.469H88.2298V116.89Z" fill="#3C3C3B"/>
<path d="M67.1915 119.172H66.8525V119.461H67.1915V119.172Z" fill="#3C3C3B"/>
<path d="M68.1173 119.172H67.7783V119.461H68.1173V119.172Z" fill="#3C3C3B"/>
<path d="M69.0518 119.172H68.7129V119.461H69.0518V119.172Z" fill="#3C3C3B"/>
<path d="M69.9776 119.172H69.6387V119.461H69.9776V119.172Z" fill="#3C3C3B"/>
<path d="M70.9034 119.172H70.5645V119.461H70.9034V119.172Z" fill="#3C3C3B"/>
<path d="M71.837 119.172H71.498V119.461H71.837V119.172Z" fill="#3C3C3B"/>
<path d="M72.7628 119.172H72.4238V119.461H72.7628V119.172Z" fill="#3C3C3B"/>
<path d="M73.6973 119.172H73.3584V119.461H73.6973V119.172Z" fill="#3C3C3B"/>
<path d="M74.6231 119.172H74.2842V119.461H74.6231V119.172Z" fill="#3C3C3B"/>
<path d="M75.5577 119.172H75.2188V119.461H75.5577V119.172Z" fill="#3C3C3B"/>
<path d="M76.4835 119.172H76.1445V119.461H76.4835V119.172Z" fill="#3C3C3B"/>
<path d="M77.4092 119.172H77.0703V119.461H77.4092V119.172Z" fill="#3C3C3B"/>
<path d="M78.3428 119.172H78.0039V119.461H78.3428V119.172Z" fill="#3C3C3B"/>
<path d="M79.2686 119.172H78.9297V119.461H79.2686V119.172Z" fill="#3C3C3B"/>
<path d="M80.2032 119.172H79.8643V119.461H80.2032V119.172Z" fill="#3C3C3B"/>
<path d="M81.129 119.172H80.79V119.461H81.129V119.172Z" fill="#3C3C3B"/>
<path d="M82.0548 119.172H81.7158V119.461H82.0548V119.172Z" fill="#3C3C3B"/>
<path d="M82.9893 119.172H82.6504V119.461H82.9893V119.172Z" fill="#3C3C3B"/>
<path d="M83.9151 119.172H83.5762V119.461H83.9151V119.172Z" fill="#3C3C3B"/>
<path d="M84.8487 119.172H84.5098V119.461H84.8487V119.172Z" fill="#3C3C3B"/>
<path d="M85.7745 119.172H85.4355V119.461H85.7745V119.172Z" fill="#3C3C3B"/>
<path d="M86.7012 119.172H86.3623V119.461H86.7012V119.172Z" fill="#3C3C3B"/>
<path d="M87.6348 119.172H87.2959V119.461H87.6348V119.172Z" fill="#3C3C3B"/>
<path d="M88.5606 119.172H88.2217V119.461H88.5606V119.172Z" fill="#3C3C3B"/>
<path d="M89.4952 119.172H89.1562V119.461H89.4952V119.172Z" fill="#3C3C3B"/>
<path d="M90.421 119.172H90.082V119.461H90.421V119.172Z" fill="#3C3C3B"/>
<path d="M91.3467 119.172H91.0078V119.461H91.3467V119.172Z" fill="#3C3C3B"/>
<path d="M183.644 121.371H136.549C136.115 121.371 135.764 121.722 135.764 122.156V129.125C135.764 129.559 136.115 129.91 136.549 129.91H183.644C184.078 129.91 184.43 129.559 184.43 129.125V122.156C184.43 121.722 184.078 121.371 183.644 121.371Z" fill="url(#paint0_linear_2691_4734)"/>
<path d="M136.847 121.371H152.752C152.156 121.371 151.66 121.726 151.66 122.156V129.133C151.66 129.563 152.148 129.919 152.752 129.919H136.847C136.251 129.919 135.764 129.563 135.764 129.133V122.156C135.764 121.726 136.251 121.371 136.847 121.371Z" fill="#FFAB1F"/>
<path d="M170.228 121.371H162.176V129.91H170.228V121.371Z" fill="#FFDA40"/>
<path d="M177.898 121.371H172.674V129.91H177.898V121.371Z" fill="#FFDA40"/>
<path d="M136.54 129.34H183.644C184.074 129.34 184.429 128.985 184.429 128.555V129.125C184.429 129.555 184.074 129.911 183.644 129.911H136.54C136.11 129.911 135.755 129.555 135.755 129.125V128.555C135.755 128.985 136.11 129.34 136.54 129.34Z" fill="#FA9500"/>
<path d="M136.54 121.371H183.644C184.074 121.371 184.429 121.726 184.429 122.156V122.644C184.429 122.214 184.074 121.859 183.644 121.859H136.54C136.11 121.859 135.755 122.214 135.755 122.644V122.156C135.755 121.726 136.11 121.371 136.54 121.371Z" fill="#FFEE84"/>
<path d="M182.842 128.985H183.148V122.487H182.842V128.985Z" fill="#FFCD34"/>
<path d="M179.561 128.861H179.866V122.363H179.561V128.861Z" fill="#FFCD34"/>
<path d="M175.138 128.861H175.444V122.363H175.138V128.861Z" fill="#FFE146"/>
<path d="M166.053 128.861H166.359V122.363H166.053V128.861Z" fill="#FFE146"/>
<path d="M159.604 128.861H159.91V122.363H159.604V128.861Z" fill="#FFCD34"/>
<path d="M154.835 128.861H155.141V122.363H154.835V128.861Z" fill="#FFC336"/>
<path d="M148.296 128.861H148.602V122.363H148.296V128.861Z" fill="#FFB400"/>
<path d="M140.748 128.861H141.054V122.363H140.748V128.861Z" fill="#FFB400"/>
<path d="M181.552 129.911H134.457C134.023 129.911 133.672 130.262 133.672 130.696V137.665C133.672 138.099 134.023 138.45 134.457 138.45H181.552C181.986 138.45 182.338 138.099 182.338 137.665V130.696C182.338 130.262 181.986 129.911 181.552 129.911Z" fill="url(#paint1_linear_2691_4734)"/>
<path d="M134.755 129.911H150.66C150.065 129.911 149.569 130.266 149.569 130.696V137.673C149.569 138.103 150.056 138.458 150.66 138.458H134.755C134.16 138.458 133.672 138.103 133.672 137.673V130.696C133.672 130.266 134.16 129.911 134.755 129.911Z" fill="#FFAB1F"/>
<path d="M168.136 129.911H160.084V138.45H168.136V129.911Z" fill="#FFDA40"/>
<path d="M175.808 129.911H170.583V138.45H175.808V129.911Z" fill="#FFDA40"/>
<path d="M134.449 137.88H181.553C181.983 137.88 182.338 137.524 182.338 137.094V137.665C182.338 138.095 181.983 138.45 181.553 138.45H134.449C134.02 138.45 133.664 138.095 133.664 137.665V137.094C133.664 137.524 134.02 137.88 134.449 137.88Z" fill="#FA9500"/>
<path d="M134.449 129.911H181.553C181.983 129.911 182.338 130.266 182.338 130.696V131.184C182.338 130.754 181.983 130.398 181.553 130.398H134.449C134.02 130.398 133.664 130.754 133.664 131.184V130.696C133.664 130.266 134.02 129.911 134.449 129.911Z" fill="#FFEE84"/>
<path d="M180.751 137.524H181.057V131.027H180.751V137.524Z" fill="#FFCD34"/>
<path d="M177.469 137.4H177.775V130.903H177.469V137.4Z" fill="#FFCD34"/>
<path d="M173.046 137.4H173.352V130.903H173.046V137.4Z" fill="#FFE146"/>
<path d="M163.961 137.4H164.267V130.903H163.961V137.4Z" fill="#FFE146"/>
<path d="M157.513 137.4H157.819V130.903H157.513V137.4Z" fill="#FFCD34"/>
<path d="M152.743 137.4H153.049V130.903H152.743V137.4Z" fill="#FFC336"/>
<path d="M146.213 137.4H146.519V130.903H146.213V137.4Z" fill="#FFB400"/>
<path d="M138.657 137.4H138.963V130.903H138.657V137.4Z" fill="#FFB400"/>
<path d="M183.032 138.45H135.937C135.503 138.45 135.151 138.801 135.151 139.235V146.204C135.151 146.638 135.503 146.989 135.937 146.989H183.032C183.466 146.989 183.817 146.638 183.817 146.204V139.235C183.817 138.801 183.466 138.45 183.032 138.45Z" fill="url(#paint2_linear_2691_4734)"/>
<path d="M136.243 138.45H152.148C151.553 138.45 151.057 138.805 151.057 139.235V146.212C151.057 146.642 151.545 146.998 152.148 146.998H136.243C135.648 146.998 135.16 146.642 135.16 146.212V139.235C135.16 138.805 135.648 138.45 136.243 138.45Z" fill="#FFAB1F"/>
<path d="M169.624 138.45H161.572V146.989H169.624V138.45Z" fill="#FFDA40"/>
<path d="M177.295 138.45H172.07V146.989H177.295V138.45Z" fill="#FFDA40"/>
<path d="M135.937 146.419H183.04C183.47 146.419 183.825 146.064 183.825 145.634V146.204C183.825 146.634 183.47 146.989 183.04 146.989H135.937C135.507 146.989 135.151 146.634 135.151 146.204V145.634C135.151 146.064 135.507 146.419 135.937 146.419Z" fill="#FA9500"/>
<path d="M135.937 138.45H183.04C183.47 138.45 183.825 138.805 183.825 139.235V139.723C183.825 139.293 183.47 138.938 183.04 138.938H135.937C135.507 138.938 135.151 139.293 135.151 139.723V139.235C135.151 138.805 135.507 138.45 135.937 138.45Z" fill="#FFEE84"/>
<path d="M182.247 146.064H182.553V139.566H182.247V146.064Z" fill="#FFCD34"/>
<path d="M178.965 145.94H179.271V139.442H178.965V145.94Z" fill="#FFCD34"/>
<path d="M174.534 145.94H174.84V139.442H174.534V145.94Z" fill="#FFE146"/>
<path d="M165.449 145.94H165.755V139.442H165.449V145.94Z" fill="#FFE146"/>
<path d="M158.993 145.94H159.299V139.442H158.993V145.94Z" fill="#FFCD34"/>
<path d="M154.239 145.94H154.545V139.442H154.239V145.94Z" fill="#FFC336"/>
<path d="M147.692 145.94H147.998V139.442H147.692V145.94Z" fill="#FFB400"/>
<path d="M140.153 145.94H140.459V139.442H140.153V145.94Z" fill="#FFB400"/>
<path d="M183.032 146.989H135.937C135.503 146.989 135.151 147.341 135.151 147.775V154.744C135.151 155.178 135.503 155.529 135.937 155.529H183.032C183.466 155.529 183.817 155.178 183.817 154.744V147.775C183.817 147.341 183.466 146.989 183.032 146.989Z" fill="url(#paint3_linear_2691_4734)"/>
<path d="M136.243 146.989H152.148C151.553 146.989 151.057 147.345 151.057 147.775V154.752C151.057 155.182 151.545 155.537 152.148 155.537H136.243C135.648 155.537 135.16 155.182 135.16 154.752V147.775C135.16 147.345 135.648 146.989 136.243 146.989Z" fill="#FFAB1F"/>
<path d="M169.624 146.989H161.572V155.529H169.624V146.989Z" fill="#FFDA40"/>
<path d="M177.295 146.989H172.07V155.529H177.295V146.989Z" fill="#FFDA40"/>
<path d="M135.937 154.958H183.04C183.47 154.958 183.825 154.603 183.825 154.173V154.744C183.825 155.173 183.47 155.529 183.04 155.529H135.937C135.507 155.529 135.151 155.173 135.151 154.744V154.173C135.151 154.603 135.507 154.958 135.937 154.958Z" fill="#FA9500"/>
<path d="M135.937 146.989H183.04C183.47 146.989 183.825 147.345 183.825 147.775V148.263C183.825 147.833 183.47 147.477 183.04 147.477H135.937C135.507 147.477 135.151 147.833 135.151 148.263V147.775C135.151 147.345 135.507 146.989 135.937 146.989Z" fill="#FFEE84"/>
<path d="M182.247 154.603H182.553V148.105H182.247V154.603Z" fill="#FFCD34"/>
<path d="M178.965 154.479H179.271V147.981H178.965V154.479Z" fill="#FFCD34"/>
<path d="M174.534 154.479H174.84V147.981H174.534V154.479Z" fill="#FFE146"/>
<path d="M165.449 154.479H165.755V147.981H165.449V154.479Z" fill="#FFE146"/>
<path d="M158.993 154.479H159.299V147.981H158.993V154.479Z" fill="#FFCD34"/>
<path d="M154.239 154.479H154.545V147.981H154.239V154.479Z" fill="#FFC336"/>
<path d="M147.692 154.479H147.998V147.981H147.692V154.479Z" fill="#FFB400"/>
<path d="M140.153 154.479H140.459V147.981H140.153V154.479Z" fill="#FFB400"/>
<path d="M183.974 155.529H136.879C136.445 155.529 136.094 155.88 136.094 156.314V163.283C136.094 163.717 136.445 164.068 136.879 164.068H183.974C184.408 164.068 184.76 163.717 184.76 163.283V156.314C184.76 155.88 184.408 155.529 183.974 155.529Z" fill="url(#paint4_linear_2691_4734)"/>
<path d="M137.177 155.529H153.082C152.487 155.529 151.991 155.884 151.991 156.314V163.291C151.991 163.721 152.478 164.077 153.082 164.077H137.177C136.581 164.077 136.094 163.721 136.094 163.291V156.314C136.094 155.884 136.581 155.529 137.177 155.529Z" fill="#FFAB1F"/>
<path d="M170.558 155.529H162.506V164.068H170.558V155.529Z" fill="#FFDA40"/>
<path d="M178.229 155.529H173.005V164.068H178.229V155.529Z" fill="#FFDA40"/>
<path d="M136.871 163.498H183.975C184.405 163.498 184.76 163.143 184.76 162.713V163.283C184.76 163.713 184.405 164.068 183.975 164.068H136.871C136.441 164.068 136.086 163.713 136.086 163.283V162.713C136.086 163.143 136.441 163.498 136.871 163.498Z" fill="#FA9500"/>
<path d="M136.871 155.529H183.975C184.405 155.529 184.76 155.884 184.76 156.314V156.802C184.76 156.372 184.405 156.017 183.975 156.017H136.871C136.441 156.017 136.086 156.372 136.086 156.802V156.314C136.086 155.884 136.441 155.529 136.871 155.529Z" fill="#FFEE84"/>
<path d="M183.181 163.142H183.487V156.645H183.181V163.142Z" fill="#FFCD34"/>
<path d="M179.891 163.019H180.196V156.521H179.891V163.019Z" fill="#FFCD34"/>
<path d="M175.469 163.019H175.775V156.521H175.469V163.019Z" fill="#FFE146"/>
<path d="M166.383 163.019H166.689V156.521H166.383V163.019Z" fill="#FFE146"/>
<path d="M159.927 163.019H160.233V156.521H159.927V163.019Z" fill="#FFCD34"/>
<path d="M155.174 163.019H155.48V156.521H155.174V163.019Z" fill="#FFC336"/>
<path d="M148.626 163.019H148.932V156.521H148.626V163.019Z" fill="#FFB400"/>
<path d="M141.079 163.019H141.385V156.521H141.079V163.019Z" fill="#FFB400"/>
<path d="M183.387 164.068H136.292C135.858 164.068 135.507 164.42 135.507 164.854V171.822C135.507 172.256 135.858 172.608 136.292 172.608H183.387C183.821 172.608 184.173 172.256 184.173 171.822V164.854C184.173 164.42 183.821 164.068 183.387 164.068Z" fill="url(#paint5_linear_2691_4734)"/>
<path d="M136.599 164.068H152.504C151.908 164.068 151.412 164.424 151.412 164.854V171.831C151.412 172.261 151.9 172.616 152.504 172.616H136.599C136.003 172.616 135.516 172.261 135.516 171.831V164.854C135.516 164.424 136.003 164.068 136.599 164.068Z" fill="#FFAB1F"/>
<path d="M169.979 164.068H161.928V172.608H169.979V164.068Z" fill="#FFDA40"/>
<path d="M177.65 164.068H172.426V172.608H177.65V164.068Z" fill="#FFDA40"/>
<path d="M136.292 172.037H183.396C183.826 172.037 184.181 171.682 184.181 171.252V171.823C184.181 172.252 183.826 172.608 183.396 172.608H136.292C135.862 172.608 135.507 172.252 135.507 171.823V171.252C135.507 171.682 135.862 172.037 136.292 172.037Z" fill="#FA9500"/>
<path d="M136.292 164.068H183.396C183.826 164.068 184.181 164.424 184.181 164.854V165.341C184.181 164.912 183.826 164.556 183.396 164.556H136.292C135.862 164.556 135.507 164.912 135.507 165.341V164.854C135.507 164.424 135.862 164.068 136.292 164.068Z" fill="#FFEE84"/>
<path d="M182.603 171.674H182.908V165.176H182.603V171.674Z" fill="#FFCD34"/>
<path d="M179.32 171.558H179.626V165.06H179.32V171.558Z" fill="#FFCD34"/>
<path d="M174.881 171.558H175.187V165.06H174.881V171.558Z" fill="#FFE146"/>
<path d="M165.796 171.558H166.102V165.06H165.796V171.558Z" fill="#FFE146"/>
<path d="M159.356 171.558H159.662V165.06H159.356V171.558Z" fill="#FFCD34"/>
<path d="M154.595 171.558H154.901V165.06H154.595V171.558Z" fill="#FFC336"/>
<path d="M148.048 171.558H148.354V165.06H148.048V171.558Z" fill="#FFB400"/>
<path d="M140.509 171.558H140.815V165.06H140.509V171.558Z" fill="#FFB400"/>
<path d="M185.032 172.848C173.707 175.08 162.679 167.673 160.456 156.356C158.224 145.03 165.631 134.003 176.948 131.779C188.273 129.547 199.301 136.954 201.524 148.271C203.756 159.596 196.349 170.624 185.032 172.848Z" fill="#FFD61D"/>
<path d="M184.165 168.45C175.27 170.202 166.598 164.383 164.846 155.488C163.093 146.593 168.913 137.921 177.808 136.168C186.703 134.416 195.375 140.236 197.127 149.131C198.88 158.025 193.06 166.697 184.165 168.45Z" fill="#F5A91B"/>
<path d="M167.103 143.501C169.508 140.31 173.055 137.962 177.287 137.202C186.207 135.581 194.788 141.525 196.408 150.453C197.177 154.686 196.226 158.827 194.085 162.2C196.747 158.662 198.003 154.074 197.152 149.379C195.532 140.459 186.951 134.515 178.031 136.127C173.336 136.979 169.483 139.764 167.111 143.501H167.103Z" fill="#EB9F11"/>
<path d="M179.046 142.858L179.412 143.949C180.158 143.779 180.826 143.721 181.42 143.772C182.009 143.821 182.573 144.008 183.112 144.329C183.529 144.57 183.883 144.848 184.173 145.157C184.462 145.466 184.655 145.773 184.756 146.075C184.858 146.377 184.846 146.747 184.68 147.074C184.515 147.405 184.258 147.627 183.907 147.745C183.244 147.967 182.696 147.755 182.261 147.102C181.758 146.333 181.033 145.954 180.087 145.96L181.5 150.173C182.411 150.123 183.148 150.106 183.708 150.129C184.268 150.152 184.8 150.275 185.314 150.504C185.857 150.733 186.327 151.072 186.725 151.511C187.123 151.949 187.426 152.479 187.632 153.093C187.838 153.706 187.951 154.642 187.815 155.435C187.68 156.227 187.331 156.952 186.776 157.615C186.214 158.274 185.469 158.805 184.531 159.21L185.377 161.731C185.51 162.128 185.568 162.435 185.552 162.641C185.535 162.847 185.396 162.999 185.134 163.087C184.873 163.175 184.695 163.154 184.551 163.037C184.401 162.921 184.275 162.708 184.17 162.397L183.254 159.664C182.436 159.843 181.682 159.885 180.998 159.803C180.311 159.718 179.702 159.531 179.163 159.24C178.625 158.954 178.188 158.608 177.846 158.216C177.504 157.824 177.26 157.41 177.113 156.972C176.966 156.535 177.032 156.312 177.198 155.97C177.363 155.624 177.636 155.392 178.015 155.265C178.394 155.138 178.599 155.149 178.857 155.218C179.112 155.288 179.329 155.441 179.49 155.668C179.857 156.162 180.161 156.532 180.39 156.781C180.624 157.029 180.917 157.231 181.273 157.378C181.63 157.529 182.052 157.593 182.546 157.568L180.966 152.86C179.981 152.915 179.13 152.889 178.418 152.787C177.706 152.684 177.068 152.412 176.499 151.97C175.929 151.529 175.496 150.867 175.197 149.974C174.897 149.081 174.859 147.739 175.349 146.747C175.839 145.755 176.764 144.968 178.117 144.379L177.757 143.305C177.566 142.737 177.683 142.382 178.107 142.24C178.531 142.097 178.848 142.297 179.034 142.852L179.046 142.858ZM180.089 150.229L178.788 146.351C178.276 146.708 177.91 147.082 177.686 147.463C177.463 147.844 177.446 148.316 177.633 148.876C177.821 149.435 178.097 149.764 178.485 149.934C178.875 150.11 179.409 150.207 180.092 150.223L180.089 150.229ZM182.383 152.806L183.87 157.239C184.506 156.876 184.943 156.428 185.173 155.889C185.406 155.355 185.43 154.815 185.246 154.265C185.061 153.714 184.716 153.283 184.248 153.084C183.779 152.885 183.156 152.793 182.382 152.802L182.383 152.806Z" fill="white"/>
<path opacity="0.2" d="M160.448 156.347C158.844 148.205 162.225 140.211 168.466 135.532C161.043 139.921 156.81 148.668 158.571 157.596C159.919 164.465 164.515 169.888 170.442 172.591H175.89C168.285 170.665 162.068 164.531 160.456 156.339L160.448 156.347Z" fill="#793D45"/>
</g>
</g>
<defs>
<linearGradient id="paint0_linear_2691_4734" x1="184.421" y1="125.637" x2="135.755" y2="125.637" gradientUnits="userSpaceOnUse">
<stop stop-color="#FDC627"/>
<stop offset="0.4" stop-color="#FDD62D"/>
<stop offset="0.8" stop-color="#FD9F00"/>
</linearGradient>
<linearGradient id="paint1_linear_2691_4734" x1="182.338" y1="134.176" x2="133.672" y2="134.176" gradientUnits="userSpaceOnUse">
<stop stop-color="#FDC627"/>
<stop offset="0.4" stop-color="#FDD62D"/>
<stop offset="0.8" stop-color="#FD9F00"/>
</linearGradient>
<linearGradient id="paint2_linear_2691_4734" x1="183.817" y1="142.716" x2="135.151" y2="142.716" gradientUnits="userSpaceOnUse">
<stop stop-color="#FDC627"/>
<stop offset="0.4" stop-color="#FDD62D"/>
<stop offset="0.8" stop-color="#FD9F00"/>
</linearGradient>
<linearGradient id="paint3_linear_2691_4734" x1="183.817" y1="151.255" x2="135.151" y2="151.255" gradientUnits="userSpaceOnUse">
<stop stop-color="#FDC627"/>
<stop offset="0.4" stop-color="#FDD62D"/>
<stop offset="0.8" stop-color="#FD9F00"/>
</linearGradient>
<linearGradient id="paint4_linear_2691_4734" x1="184.751" y1="159.795" x2="136.085" y2="159.795" gradientUnits="userSpaceOnUse">
<stop stop-color="#FDC627"/>
<stop offset="0.4" stop-color="#FDD62D"/>
<stop offset="0.8" stop-color="#FD9F00"/>
</linearGradient>
<linearGradient id="paint5_linear_2691_4734" x1="184.173" y1="168.334" x2="135.507" y2="168.334" gradientUnits="userSpaceOnUse">
<stop stop-color="#FDC627"/>
<stop offset="0.4" stop-color="#FDD62D"/>
<stop offset="0.8" stop-color="#FD9F00"/>
</linearGradient>
<clipPath id="clip0_2691_4734">
<rect width="248" height="200" fill="white"/>
</clipPath>
</defs>
</svg>
