<svg width="248" height="248" viewBox="0 0 248 248" fill="none" xmlns="http://www.w3.org/2000/svg">
<path fill-rule="evenodd" clip-rule="evenodd" d="M120.967 74.8975C148.26 74.8975 159.759 94.426 179.462 109.606C205.541 129.698 231.618 116.619 235.792 184.504C239.508 244.924 193.135 191.046 127.752 212.688C62.3669 234.332 -4.22462 243.046 15.5354 173.021C35.2965 102.996 57.5503 74.8975 120.967 74.8975Z" fill="#CCF3FF"/>
<path d="M84.0544 109.686C69.295 113.282 55.1085 111.843 52.4272 111.527C51.7082 133.976 50.6113 187.103 52.3907 188.017C54.6454 189.175 59.5692 188.931 59.8617 187.517C60.0811 186.457 65.4072 145.348 68.186 124.372C69.1488 131.527 70.2335 139.01 70.8551 143.495C72.4151 154.756 75.2914 185.908 75.9739 187.273C76.6564 188.638 82.1775 188.87 83.2012 187.517C84.2128 186.176 84.4444 156.487 84.3591 144.104C84.3103 135.585 84.3835 119.046 84.0544 109.698V109.686Z" fill="#002C61"/>
<path d="M92.4026 190.698C91.196 189.552 82.9084 187.639 82.9084 187.639H82.7865C81.4093 188.431 77.948 188.334 76.5342 187.542H76.2051C74.5232 189.967 75.5957 193.843 75.5957 193.843H93.0851C93.0851 193.843 93.6092 191.832 92.4026 190.686V190.698Z" fill="#011E41"/>
<path d="M59.5201 187.383C59.5201 187.383 61.4579 193.721 60.4464 193.843C59.8735 193.916 52.1709 193.964 50.3671 193.843C49.4896 193.782 52.3293 187.761 52.5 187.383C52.6706 187.005 55.9857 185.957 59.5079 187.383H59.5201Z" fill="#011E41"/>
<path d="M52.4394 111.624C52.4394 111.941 52.415 112.258 52.415 112.587C55.4376 113.111 69.5875 115.195 84.1275 111.648C84.1153 111.003 84.0909 110.381 84.0666 109.784C69.3072 113.379 55.1085 111.941 52.4394 111.624Z" fill="#002C61"/>
<path d="M91.5866 70.4662L88.3081 77.535C88.3081 77.535 87.6378 73.5009 83.9205 67.6142C80.2033 61.7276 72.2081 59.9482 72.2081 59.9482H72.1594C71.5743 60.7891 70.0265 62.8001 69.1734 62.8123C68.3568 62.8123 65.4439 60.7891 63.8108 59.5581L63.4817 59.4485C63.4817 59.4485 51.7205 62.3126 48.503 66.1395C48.3933 66.2492 48.2958 66.3589 48.1983 66.4808C44.1398 71.2462 40.2153 89.089 42.4457 94.2566C44.676 99.4242 53.1465 94.1226 53.1465 94.1226L51.9765 111.551C51.9765 111.551 67.9668 113.806 84.5299 109.65L84.4324 108.553L83.3477 89.8934V89.8081L83.043 84.4942C83.043 84.5796 83.1527 85.2864 83.5427 86.1762C83.6524 86.4199 83.7743 86.6758 83.9327 86.944C84.798 88.4187 86.4921 90.0519 89.7463 90.2347C95.8279 90.5759 95.9376 70.9171 95.9376 70.9171C95.2795 70.1737 91.5988 70.4418 91.5988 70.4418L91.5866 70.4662Z" fill="#EBC396"/>
<path d="M95.3027 64.4942C95.3027 64.4942 95.7293 63.1657 95.9731 63.0195C96.2168 62.8732 96.6556 62.8976 96.619 63.6776C96.5824 64.4576 96.1924 66.0298 96.1924 66.0298L95.3149 64.4942H95.3027Z" fill="#D78046"/>
<path d="M97.0963 56.0846H91.5753C91.0878 56.0846 90.5759 56.4746 90.454 56.9377L87.1146 68.967C86.9805 69.4423 87.273 69.8202 87.7605 69.8202H93.2816C93.7691 69.8202 94.281 69.4302 94.4029 68.967L94.5979 68.248L96.3651 61.8738L97.7423 56.9377C97.8764 56.4624 97.5839 56.0846 97.0963 56.0846Z" fill="#2D7DAF"/>
<path d="M94.1461 60.4722C94.073 60.7403 93.7683 60.9597 93.488 60.9597H93.293C93.0126 60.9597 92.842 60.7403 92.9273 60.4722L93.5855 58.1931C93.6586 57.925 93.9633 57.7056 94.2436 57.7056H94.4386C94.7189 57.7056 94.8896 57.925 94.8042 58.1931L94.1461 60.4722Z" fill="#0F506E"/>
<path d="M87.6253 69.2717L90.9647 57.2424C91.0988 56.7671 91.5985 56.3893 92.086 56.3893H97.607C97.6314 56.3893 97.6558 56.3893 97.6923 56.3893C97.5826 56.2065 97.3754 56.0846 97.0951 56.0846H91.5741C91.0866 56.0846 90.5747 56.4746 90.4528 56.9377L87.1134 68.967C86.9915 69.4058 87.2474 69.7836 87.6862 69.8202C87.6009 69.6739 87.5765 69.4789 87.6374 69.2717H87.6253Z" fill="#19699B"/>
<path d="M91.8172 70.7343C92.0366 71.0268 92.3778 71.2705 92.8897 71.4046C94.7422 71.8921 95.6198 71.0512 95.6198 71.0512C95.7173 69.9055 95.8026 68.1139 96.0098 67.4436C96.3266 66.4442 96.412 65.7251 96.0951 65.2376C95.7782 64.7501 95.0347 63.446 94.8763 63.1901C94.7179 62.9463 93.3285 61.9591 92.4388 61.5569C91.5491 61.1669 91.3053 62.1054 91.9025 62.4832C92.1828 62.666 93.3894 63.5313 93.6453 63.9335C93.9013 64.3357 94.2791 64.9938 94.145 64.9938C94.011 64.9938 93.5478 64.3113 92.9994 64.0066C92.4509 63.7019 91.9025 63.5557 90.6715 63.0682C89.4528 62.5807 89.3918 63.4704 89.5503 63.641C89.989 64.1041 91.5856 64.8476 91.8903 65.006C92.195 65.1645 93.2797 66.1151 93.1456 66.1273C93.0238 66.1273 91.8781 65.3595 91.4759 65.2985C91.0737 65.2376 89.9647 65.0182 89.209 64.9451C88.4534 64.872 88.5996 65.8836 89.4162 66.0907C90.2206 66.2979 90.7081 66.4929 91.6831 66.9439C92.6581 67.3948 92.3413 67.5289 92.3413 67.5289C92.3413 67.5289 91.1347 67.8458 90.3912 67.7848C89.6356 67.7239 88.7946 67.7361 88.7215 68.1017C88.6362 68.6014 89.0749 68.7355 89.7696 68.833C90.4643 68.9305 91.8538 69.0767 91.8538 69.0767C91.8903 69.8324 91.6709 70.3077 91.8172 70.7221V70.7343Z" fill="#FA8C64"/>
<path d="M65.5159 83.897L53.1575 94.1469L53.0234 96.5479L65.5159 83.897Z" fill="#DCB487"/>
<path d="M54.9501 72.2699C55.3157 72.2699 54.2675 82.8489 54.6819 83.1048C55.1085 83.3608 63.5668 80.4113 63.8715 80.4601C64.1762 80.4966 58.2895 83.4095 53.1585 84.5552C52.9391 84.6039 54.6088 72.2699 54.9501 72.2699Z" fill="#DCB487"/>
<path d="M83.3476 89.8325V89.9178C82.5066 85.2133 81.1416 72.0384 81.556 72.2821C81.9338 72.5015 83.1526 82.8733 83.5304 86.2005C83.1404 85.3108 83.0429 84.6039 83.0307 84.5186L83.3354 89.8325H83.3476Z" fill="#DCB487"/>
<path d="M75.2311 77.3887C75.1824 77.3278 75.097 77.2547 74.9995 77.1815C74.378 76.7306 72.9276 75.9871 72.4889 75.8043C71.9648 75.5849 71.3432 75.6581 69.7466 75.5849C68.15 75.5118 67.7722 76.0968 67.5407 76.365C67.3578 76.5843 65.4444 78.6928 64.2256 79.68C64.6887 79.7166 65.7856 81.0938 65.8587 83.0926C66.9434 82.9463 68.0525 82.4101 68.6375 82.3004C69.2713 82.1907 69.6491 82.7026 70.4535 82.3613C71.2579 82.0201 71.1848 81.1304 71.1848 81.1304C72.111 80.716 71.9039 79.8385 71.9039 79.8385C72.2085 79.6922 72.5864 79.0463 72.3548 78.5588C72.1232 78.0712 70.4413 77.2547 70.4413 77.2547C72.5132 77.145 73.4761 78.0834 74.4145 78.1931C74.707 78.2297 74.9264 78.1931 75.0727 78.1322C75.3895 77.9859 75.4139 77.6325 75.2311 77.4009V77.3887Z" fill="#FA8C64"/>
<path d="M75.6459 48.4551V48.7598C75.6459 51.6483 75.3168 55.4508 73.8665 57.0718C73.6349 57.3278 73.3668 57.5349 73.0864 57.6812C72.7939 57.8275 72.4771 57.9371 72.148 57.9859L72.3064 59.9603C72.3064 59.9603 70.3198 62.9097 69.1985 62.9341C68.0773 62.9585 63.5069 59.4606 63.5069 59.4606L63.9456 54.5855L64.1406 52.3674C63.7628 52.3674 63.2266 52.2211 62.7147 51.7092C62.2881 51.2826 61.8737 50.5758 61.5568 49.4545C61.5568 49.4301 61.5447 49.3935 61.5325 49.3692C61.5081 49.2839 61.4837 49.1985 61.4715 49.1132C61.0815 47.4435 62.1419 47.3704 63.1169 47.6141C63.1169 47.6141 63.5556 48.5038 64.0797 49.0889C64.5306 49.6982 65.0303 50.2345 65.2863 50.0517C65.4813 49.9176 65.5788 49.1985 65.6397 48.3454C65.7372 46.7854 65.6885 44.7256 65.6885 44.7256C65.6885 44.7256 66.5782 45.0791 68.1504 45.3228C68.7842 45.4203 69.5398 45.5057 70.3808 45.53C71.8311 45.5788 73.5739 45.4813 75.5362 45.0791C75.5362 45.0791 75.6093 45.8104 75.6459 46.9316C75.6459 46.956 75.6459 46.9804 75.6459 47.0048C75.6459 47.0535 75.6459 47.1144 75.6459 47.1632C75.6459 47.1998 75.6459 47.2363 75.6459 47.2851C75.6459 47.4191 75.6459 47.5532 75.6459 47.6873C75.6459 47.7238 75.6459 47.7726 75.6459 47.8091V47.8457C75.6459 47.931 75.6459 48.0041 75.6459 48.0895C75.6459 48.1382 75.6459 48.1991 75.6459 48.2479C75.6459 48.3088 75.6459 48.382 75.6459 48.4429V48.4551Z" fill="#FA8C64"/>
<path d="M64.1271 52.3795L63.9321 54.5977C63.1887 54.098 62.8474 52.7086 62.7012 51.7214C63.2131 52.2454 63.7493 52.3673 64.1271 52.3795Z" fill="#20386F"/>
<path d="M77.0588 38.0711C75.706 37.2789 75.9498 37.7908 72.7931 37.2546C72.5494 37.218 72.3178 37.1693 72.0984 37.1205C72.0741 37.1205 72.0619 37.1205 72.0375 37.1083C70.2093 36.6696 68.6371 35.2192 65.7974 36.5477C62.007 38.3027 62.397 40.6062 62.397 40.6062C62.397 40.6062 59.5451 40.6915 59.2526 42.995C59.0454 44.6403 59.3257 47.3582 61.5439 49.4789C61.5195 49.3692 61.4829 49.2473 61.4585 49.1376C61.0685 47.4679 62.1289 47.3948 63.1039 47.6385C63.1039 47.6385 63.5426 48.5282 64.0667 49.1132C64.5177 49.7226 65.0174 50.2589 65.2733 50.0761C65.4683 49.942 65.5658 49.2229 65.6267 48.3698C65.7242 46.8098 65.6755 44.75 65.6755 44.75C65.6755 44.75 66.5652 45.1035 68.1374 45.3472C68.7712 45.4447 69.5268 45.53 70.3678 45.5544C71.8181 45.6032 73.561 45.5057 75.5232 45.1035C75.5232 45.1035 75.6694 46.7001 75.6694 48.772C76.0716 48.2601 76.5226 47.0779 76.5713 45.3838C76.5713 45.3838 79.6548 39.5824 77.0954 38.0833L77.0588 38.0711Z" fill="#20386F"/>
<path d="M65.6636 55.5483C67.2236 56.9499 70.0268 58.3515 72.1352 57.9859L72.2206 59.0706C71.1115 59.2412 68.0767 59.3143 65.6514 55.5483H65.6636Z" fill="#E07746"/>
<path d="M70.3677 49.7958C70.3433 50.0761 70.1362 50.2954 69.9046 50.2833C69.673 50.2711 69.5146 50.0273 69.5511 49.747C69.5755 49.4667 69.7827 49.2473 70.0143 49.2595C70.2458 49.2717 70.4043 49.5154 70.3677 49.7958Z" fill="#20386F"/>
<path d="M74.2082 49.6129C74.257 49.8811 74.4764 50.0761 74.6957 50.0395C74.9151 50.0029 75.0492 49.747 75.0004 49.4789C74.9517 49.2107 74.7323 49.0157 74.5129 49.0523C74.2936 49.0889 74.1595 49.3448 74.2082 49.6129Z" fill="#20386F"/>
<path d="M68.4544 48.5648C68.4788 48.4186 68.8566 47.9311 69.6488 47.7482C70.441 47.5654 70.831 47.6995 70.8432 47.992C70.8554 48.3089 69.9413 48.0895 69.2222 48.4186C68.5032 48.7476 68.4422 48.6258 68.4544 48.5648Z" fill="#20386F"/>
<path d="M75.9867 48.1991C75.9501 48.0651 75.5235 47.6019 74.7191 47.5044C73.9147 47.3947 73.5369 47.5654 73.5491 47.8579C73.5613 48.1748 74.451 47.8701 75.2066 48.126C75.9623 48.382 75.9988 48.2601 75.9867 48.1991Z" fill="#20386F"/>
<path d="M72.3423 52.7573C72.2204 52.7573 72.1107 52.7574 72.0132 52.7208C71.8304 52.6598 71.7329 52.538 71.7207 52.3552C71.7207 52.3186 71.7451 52.2942 71.7816 52.2942C71.8182 52.2942 71.8426 52.3186 71.8426 52.3552C71.8426 52.477 71.9157 52.5623 72.0498 52.6111C72.391 52.7208 73.0492 52.5258 73.2807 52.2455C73.427 52.0626 73.1223 51.4655 72.8298 50.8926C72.5251 50.3076 72.2204 49.7104 72.2326 49.3082C72.2326 49.2717 72.257 49.2473 72.2935 49.2473C72.3301 49.2473 72.3545 49.2717 72.3545 49.3082C72.3423 49.6739 72.647 50.2589 72.9395 50.8317C73.2807 51.502 73.5854 52.0748 73.3782 52.3186C73.1832 52.5623 72.7323 52.7452 72.3423 52.7573Z" fill="#E07746"/>
<path d="M70.4413 54.488C70.4413 54.488 71.3675 54.6952 72.0501 54.6708C72.7204 54.6343 73.4395 54.354 73.7076 54.3418C73.9757 54.3296 73.0007 55.1949 72.0744 55.2437C71.2213 55.2802 69.8928 54.4393 70.4413 54.5002V54.488Z" fill="#E07746"/>
<path d="M172.393 46.1272H127.079C121.035 46.1272 116.135 51.0273 116.135 57.0718V171.161C116.135 177.206 121.035 182.106 127.079 182.106H172.393C178.438 182.106 183.338 177.206 183.338 171.161V57.0718C183.338 51.0273 178.438 46.1272 172.393 46.1272Z" fill="#0F506E"/>
<path d="M127.067 49.0523H172.418C176.818 49.0523 180.389 52.6233 180.389 57.0231V171.186C180.389 175.585 176.818 179.156 172.418 179.156H127.067C122.668 179.156 119.097 175.585 119.097 171.186V57.0353C119.097 52.6355 122.668 49.0645 127.067 49.0645V49.0523Z" fill="#F3F6FF"/>
<path d="M172.418 49.0523H127.067C122.668 49.0523 119.097 52.6233 119.097 57.0231V62.2638H180.389V57.0231C180.389 52.6233 176.818 49.0523 172.418 49.0523Z" fill="#02AADE"/>
<path d="M172.418 179.169H127.067C122.668 179.169 119.097 175.598 119.097 171.198V165.957H180.389V171.198C180.389 175.598 176.818 179.169 172.418 179.169Z" fill="#02AADE"/>
<path d="M164.947 57.1571H134.526C133.697 57.1571 133.039 56.4868 133.039 55.6702C133.039 54.8536 133.709 54.1833 134.526 54.1833H164.947C165.775 54.1833 166.433 54.8536 166.433 55.6702C166.433 56.4868 165.763 57.1571 164.947 57.1571Z" fill="#81BAFD"/>
<path d="M178.656 68.4796H121.045V140.192H178.656V68.4796Z" fill="white"/>
<path d="M136.865 122.191H125.652V124.738H136.865V122.191Z" fill="#B1B1B1"/>
<path d="M173.952 122.191H167.529V124.738H173.952V122.191Z" fill="#B1B1B1"/>
<path d="M138.23 100.85H125.652V101.85H138.23V100.85Z" fill="#B1B1B1"/>
<path d="M143.008 94.7807H125.652V95.7801H143.008V94.7807Z" fill="#B1B1B1"/>
<path d="M145.969 106.92H125.652V107.919H145.969V106.92Z" fill="#B1B1B1"/>
<path d="M150.771 112.977H125.652V113.976H150.771V112.977Z" fill="#B1B1B1"/>
<path d="M174.037 100.85H169.613V101.85H174.037V100.85Z" fill="#B1B1B1"/>
<path d="M174.037 94.7806H171.246V95.78H174.037V94.7806Z" fill="#B1B1B1"/>
<path d="M174.038 106.92H170.284V107.919H174.038V106.92Z" fill="#B1B1B1"/>
<path d="M174.038 112.977H170.284V113.976H174.038V112.977Z" fill="#B1B1B1"/>
<path d="M163.093 84.4211H137.462V85.4449H163.093V84.4211Z" fill="#B1B1B1"/>
<path d="M155.999 80.8745H144.555V81.8982H155.999V80.8745Z" fill="#B1B1B1"/>
<path d="M129.272 89.5887H128.675V90.1006H129.272V89.5887Z" fill="#B1B1B1"/>
<path d="M130.906 89.5887H130.309V90.1006H130.906V89.5887Z" fill="#B1B1B1"/>
<path d="M132.55 89.5887H131.953V90.1006H132.55V89.5887Z" fill="#B1B1B1"/>
<path d="M134.184 89.5887H133.587V90.1006H134.184V89.5887Z" fill="#B1B1B1"/>
<path d="M135.83 89.5887H135.232V90.1006H135.83V89.5887Z" fill="#B1B1B1"/>
<path d="M137.463 89.5887H136.866V90.1006H137.463V89.5887Z" fill="#B1B1B1"/>
<path d="M139.109 89.5887H138.512V90.1006H139.109V89.5887Z" fill="#B1B1B1"/>
<path d="M140.741 89.5887H140.144V90.1006H140.741V89.5887Z" fill="#B1B1B1"/>
<path d="M142.386 89.5887H141.789V90.1006H142.386V89.5887Z" fill="#B1B1B1"/>
<path d="M144.019 89.5887H143.422V90.1006H144.019V89.5887Z" fill="#B1B1B1"/>
<path d="M145.653 89.5887H145.056V90.1006H145.653V89.5887Z" fill="#B1B1B1"/>
<path d="M147.297 89.5887H146.7V90.1006H147.297V89.5887Z" fill="#B1B1B1"/>
<path d="M148.931 89.5887H148.334V90.1006H148.931V89.5887Z" fill="#B1B1B1"/>
<path d="M150.578 89.5887H149.98V90.1006H150.578V89.5887Z" fill="#B1B1B1"/>
<path d="M152.21 89.5887H151.612V90.1006H152.21V89.5887Z" fill="#B1B1B1"/>
<path d="M153.856 89.5887H153.259V90.1006H153.856V89.5887Z" fill="#B1B1B1"/>
<path d="M155.489 89.5887H154.892V90.1006H155.489V89.5887Z" fill="#B1B1B1"/>
<path d="M157.134 89.5887H156.537V90.1006H157.134V89.5887Z" fill="#B1B1B1"/>
<path d="M158.766 89.5887H158.169V90.1006H158.766V89.5887Z" fill="#B1B1B1"/>
<path d="M160.412 89.5887H159.814V90.1006H160.412V89.5887Z" fill="#B1B1B1"/>
<path d="M162.044 89.5887H161.447V90.1006H162.044V89.5887Z" fill="#B1B1B1"/>
<path d="M163.69 89.5887H163.093V90.1006H163.69V89.5887Z" fill="#B1B1B1"/>
<path d="M165.325 89.5887H164.728V90.1006H165.325V89.5887Z" fill="#B1B1B1"/>
<path d="M166.968 89.5887H166.371V90.1006H166.968V89.5887Z" fill="#B1B1B1"/>
<path d="M168.603 89.5887H168.006V90.1006H168.603V89.5887Z" fill="#B1B1B1"/>
<path d="M170.248 89.5887H169.65V90.1006H170.248V89.5887Z" fill="#B1B1B1"/>
<path d="M171.88 89.5887H171.283V90.1006H171.88V89.5887Z" fill="#B1B1B1"/>
<path d="M129.272 76.8525H128.675V77.3644H129.272V76.8525Z" fill="#B1B1B1"/>
<path d="M130.906 76.8525H130.309V77.3644H130.906V76.8525Z" fill="#B1B1B1"/>
<path d="M132.55 76.8525H131.953V77.3644H132.55V76.8525Z" fill="#B1B1B1"/>
<path d="M134.184 76.8525H133.587V77.3644H134.184V76.8525Z" fill="#B1B1B1"/>
<path d="M135.83 76.8525H135.232V77.3644H135.83V76.8525Z" fill="#B1B1B1"/>
<path d="M137.463 76.8525H136.866V77.3644H137.463V76.8525Z" fill="#B1B1B1"/>
<path d="M139.109 76.8525H138.512V77.3644H139.109V76.8525Z" fill="#B1B1B1"/>
<path d="M140.741 76.8525H140.144V77.3644H140.741V76.8525Z" fill="#B1B1B1"/>
<path d="M142.386 76.8525H141.789V77.3644H142.386V76.8525Z" fill="#B1B1B1"/>
<path d="M144.019 76.8525H143.422V77.3644H144.019V76.8525Z" fill="#B1B1B1"/>
<path d="M145.653 76.8525H145.056V77.3644H145.653V76.8525Z" fill="#B1B1B1"/>
<path d="M147.297 76.8525H146.7V77.3644H147.297V76.8525Z" fill="#B1B1B1"/>
<path d="M148.931 76.8525H148.334V77.3644H148.931V76.8525Z" fill="#B1B1B1"/>
<path d="M150.578 76.8525H149.98V77.3644H150.578V76.8525Z" fill="#B1B1B1"/>
<path d="M152.21 76.8525H151.612V77.3644H152.21V76.8525Z" fill="#B1B1B1"/>
<path d="M153.856 76.8525H153.259V77.3644H153.856V76.8525Z" fill="#B1B1B1"/>
<path d="M155.489 76.8525H154.892V77.3644H155.489V76.8525Z" fill="#B1B1B1"/>
<path d="M157.134 76.8525H156.537V77.3644H157.134V76.8525Z" fill="#B1B1B1"/>
<path d="M158.766 76.8525H158.169V77.3644H158.766V76.8525Z" fill="#B1B1B1"/>
<path d="M160.412 76.8525H159.814V77.3644H160.412V76.8525Z" fill="#B1B1B1"/>
<path d="M162.044 76.8525H161.447V77.3644H162.044V76.8525Z" fill="#B1B1B1"/>
<path d="M163.69 76.8525H163.093V77.3644H163.69V76.8525Z" fill="#B1B1B1"/>
<path d="M165.325 76.8525H164.728V77.3644H165.325V76.8525Z" fill="#B1B1B1"/>
<path d="M166.968 76.8525H166.371V77.3644H166.968V76.8525Z" fill="#B1B1B1"/>
<path d="M168.603 76.8525H168.006V77.3644H168.603V76.8525Z" fill="#B1B1B1"/>
<path d="M170.248 76.8525H169.65V77.3644H170.248V76.8525Z" fill="#B1B1B1"/>
<path d="M171.88 76.8525H171.283V77.3644H171.88V76.8525Z" fill="#B1B1B1"/>
<path d="M163.734 150.623C171.13 143.226 171.13 131.234 163.734 123.838C156.337 116.442 144.345 116.442 136.949 123.838C129.553 131.234 129.553 143.226 136.949 150.623C144.345 158.019 156.337 158.019 163.734 150.623Z" fill="#24C00C"/>
<path fill-rule="evenodd" clip-rule="evenodd" d="M139.716 137.707C139.209 136.887 139.463 135.81 140.284 135.303C141.105 134.796 142.181 135.051 142.688 135.872L146.25 141.639L156.998 128.053C157.595 127.296 158.693 127.167 159.449 127.765C160.206 128.362 160.335 129.461 159.737 130.217L147.486 145.704C147.356 145.883 147.191 146.039 146.991 146.163C146.17 146.67 145.094 146.415 144.587 145.594L139.716 137.707Z" fill="white"/>
<path d="M150.346 157.523C139.157 157.523 130.065 148.419 130.065 137.243C130.065 126.067 139.17 116.962 150.346 116.962C161.522 116.962 170.626 126.067 170.626 137.243C170.626 148.419 161.522 157.523 150.346 157.523ZM150.346 119.644C140.644 119.644 132.759 127.529 132.759 137.231C132.759 146.932 140.644 154.817 150.346 154.817C160.047 154.817 167.933 146.932 167.933 137.231C167.933 127.529 160.047 119.644 150.346 119.644Z" fill="white"/>
<path d="M204.494 193.83H35.4746V195.512H204.494V193.83Z" fill="#81BAFD"/>
</svg>
